<?xml version="1.0" encoding="utf-8"?>
<!-- Generator: Adobe Illustrator 26.3.1, SVG Export Plug-In . SVG Version: 6.00 Build 0)  -->
<svg version="1.1" id="Layer_1" xmlns="http://www.w3.org/2000/svg" xmlns:xlink="http://www.w3.org/1999/xlink" x="0px" y="0px"
	 viewBox="0 0 536.52 269.45" style="enable-background:new 0 0 536.52 269.45;" xml:space="preserve">
<style type="text/css">
	.st0{fill:#E12026;}
	.st1{fill-rule:evenodd;clip-rule:evenodd;fill:#FFFFFF;}
	.st2{fill:none;stroke:#E12026;stroke-width:0.6631;stroke-miterlimit:2.6131;}
	.st3{fill:none;stroke:#E12026;stroke-width:0.663;stroke-miterlimit:2.6131;}
	.st4{fill-rule:evenodd;clip-rule:evenodd;fill:#E12026;}
	.st5{fill:none;stroke:#E12026;stroke-width:0.2653;stroke-miterlimit:2.6131;}
	.st6{fill:none;stroke:#E12026;stroke-width:0.5277;stroke-miterlimit:2.6131;}
</style>
<g>
	<g>
		<path class="st0" d="M44.07,205.82c0-7.52,4.71-11.99,10.53-11.99c2.88,0,5.17,1.38,6.62,2.91l-2.18,2.63
			c-1.18-1.18-2.56-2-4.36-2c-3.74,0-6.42,3.16-6.42,8.32c0,5.24,2.47,8.42,6.33,8.42c2.04,0,3.61-0.94,4.91-2.36l2.18,2.56
			c-1.86,2.17-4.26,3.35-7.24,3.35C48.65,217.66,44.07,213.43,44.07,205.82z"/>
		<path class="st0" d="M68.07,205.65c0-7.44,4.15-11.82,10.13-11.82s10.13,4.41,10.13,11.82c0,7.44-4.15,12-10.13,12
			S68.07,213.09,68.07,205.65z M84.15,205.65c0-5.16-2.33-8.28-5.95-8.28s-5.95,3.12-5.95,8.28c0,5.16,2.33,8.46,5.95,8.46
			S84.15,210.81,84.15,205.65z"/>
		<path class="st0" d="M96.68,205.82c0-7.52,4.71-11.99,10.53-11.99c2.88,0,5.17,1.38,6.62,2.91l-2.18,2.63
			c-1.18-1.18-2.56-2-4.36-2c-3.74,0-6.42,3.16-6.42,8.32c0,5.24,2.47,8.42,6.33,8.42c2.04,0,3.61-0.94,4.91-2.36l2.18,2.56
			c-1.86,2.17-4.26,3.35-7.24,3.35C101.26,217.66,96.68,213.43,96.68,205.82z"/>
		<path class="st0" d="M123.05,194.25h4.08v9.24h9.29v-9.24h4.08v22.98h-4.08v-10.19h-9.29v10.19h-4.08V194.25z"/>
		<path class="st0" d="M151.27,194.25h4.08v22.98h-4.08V194.25z"/>
		<path class="st0" d="M166.1,194.25h4.19l7.14,12.92l2.38,4.91h0.14c-0.2-2.38-0.52-5.29-0.52-7.84v-9.98h3.88v22.98h-4.19
			l-7.14-12.94l-2.38-4.88h-0.14c0.2,2.43,0.52,5.2,0.52,7.76v10.06h-3.88V194.25z"/>
		<path class="st0" d="M205.9,207.16v-12.9h4.08v13.21c0,5,1.87,6.65,4.65,6.65c2.81,0,4.75-1.65,4.75-6.65v-13.21h3.92v12.9
			c0,7.55-3.34,10.5-8.67,10.5C209.3,217.66,205.9,214.71,205.9,207.16z"/>
		<path class="st0" d="M233.95,194.25h4.19l7.14,12.92l2.38,4.91h0.14c-0.2-2.38-0.52-5.29-0.52-7.84v-9.98h3.88v22.98h-4.19
			l-7.14-12.94l-2.38-4.88h-0.14c0.2,2.43,0.52,5.2,0.52,7.76v10.06h-3.88V194.25z"/>
		<path class="st0" d="M261.92,194.25H266v22.98h-4.08V194.25z"/>
		<path class="st0" d="M273.7,194.25h4.32l3.23,11.55c0.75,2.61,1.25,4.86,2.02,7.48h0.14c0.77-2.61,1.3-4.87,2.02-7.48l3.19-11.55
			h4.16l-7.11,22.98h-4.84L273.7,194.25z"/>
		<path class="st0" d="M300.3,194.25h13.83v3.43h-9.75v5.89h8.27V207h-8.27v6.8h10.11v3.43H300.3V194.25z"/>
		<path class="st0" d="M324.12,194.25h7.75c4.78,0,8.46,1.69,8.46,6.82c0,4.94-3.68,7.18-8.46,7.18h-3.67v8.98h-4.08V194.25z
			 M331.44,204.99c3.15,0,4.86-1.31,4.86-3.92c0-2.64-1.71-3.56-4.86-3.56h-3.25v7.48H331.44z M331.1,207.16l2.95-2.43l7.18,12.5
			h-4.58L331.1,207.16z"/>
		<path class="st0" d="M347.78,214.29l2.38-2.8c1.64,1.57,3.85,2.62,5.99,2.62c2.59,0,4.01-1.17,4.01-2.97
			c0-1.89-1.48-2.5-3.57-3.38l-3.14-1.36c-2.26-0.94-4.65-2.73-4.65-6.09c0-3.66,3.23-6.48,7.72-6.48c2.69,0,5.29,1.11,7.08,2.93
			l-2.09,2.59c-1.46-1.24-3.02-1.97-4.99-1.97c-2.18,0-3.6,1.02-3.6,2.7c0,1.81,1.75,2.47,3.65,3.25l3.1,1.3
			c2.73,1.14,4.65,2.87,4.65,6.2c0,3.73-3.09,6.83-8.25,6.83C352.95,217.66,349.96,216.43,347.78,214.29z"/>
		<path class="st0" d="M373.42,194.25h4.08v22.98h-4.08V194.25z"/>
		<path class="st0" d="M392.89,197.68h-6.63v-3.43h17.35v3.43h-6.63v19.55h-4.08V197.68z"/>
		<path class="st0" d="M415.63,208.69l-6.92-14.44h4.36l2.5,5.88c0.67,1.71,1.32,3.3,2.04,5.05h0.14c0.72-1.75,1.45-3.34,2.12-5.05
			l2.5-5.88h4.25l-6.92,14.44v8.55h-4.08V208.69z"/>
		<path class="st0" d="M444.43,205.65c0-7.44,4.15-11.82,10.13-11.82s10.13,4.41,10.13,11.82c0,7.44-4.15,12-10.13,12
			S444.43,213.09,444.43,205.65z M460.51,205.65c0-5.16-2.33-8.28-5.95-8.28s-5.95,3.12-5.95,8.28c0,5.16,2.33,8.46,5.95,8.46
			S460.51,210.81,460.51,205.65z"/>
		<path class="st0" d="M474.24,194.25h13.89v3.43h-9.81v6.52h8.35v3.43h-8.35v9.6h-4.08V194.25z"/>
		<path class="st0" d="M7.23,246.58l2.38-2.8c1.64,1.57,3.85,2.62,5.99,2.62c2.59,0,4.01-1.17,4.01-2.97c0-1.89-1.48-2.49-3.57-3.38
			l-3.14-1.36c-2.26-0.94-4.65-2.73-4.65-6.09c0-3.66,3.23-6.48,7.72-6.48c2.69,0,5.29,1.11,7.08,2.93l-2.09,2.59
			c-1.46-1.24-3.02-1.97-4.99-1.97c-2.18,0-3.6,1.02-3.6,2.7c0,1.81,1.75,2.47,3.65,3.25l3.1,1.3c2.73,1.14,4.65,2.87,4.65,6.2
			c0,3.73-3.09,6.83-8.25,6.83C12.4,249.95,9.41,248.72,7.23,246.58z"/>
		<path class="st0" d="M31.67,238.11c0-7.52,4.71-11.99,10.53-11.99c2.88,0,5.17,1.38,6.62,2.91l-2.18,2.63
			c-1.18-1.18-2.56-2-4.36-2c-3.74,0-6.42,3.16-6.42,8.32c0,5.24,2.47,8.42,6.33,8.42c2.04,0,3.61-0.94,4.91-2.36l2.18,2.56
			c-1.86,2.17-4.26,3.35-7.24,3.35C36.25,249.95,31.67,245.72,31.67,238.11z"/>
		<path class="st0" d="M58.04,226.54h4.08v22.98h-4.08V226.54z"/>
		<path class="st0" d="M72.87,226.54H86.7v3.43h-9.75v5.89h8.27v3.43h-8.27v6.8h10.11v3.43H72.87V226.54z"/>
		<path class="st0" d="M96.69,226.54h4.19l7.14,12.92l2.38,4.91h0.14c-0.2-2.38-0.52-5.29-0.52-7.84v-9.98h3.88v22.98h-4.19
			l-7.14-12.94l-2.38-4.88h-0.14c0.2,2.43,0.52,5.2,0.52,7.76v10.06h-3.88V226.54z"/>
		<path class="st0" d="M123.46,238.11c0-7.52,4.71-11.99,10.53-11.99c2.88,0,5.17,1.38,6.62,2.91l-2.18,2.63
			c-1.18-1.18-2.56-2-4.36-2c-3.74,0-6.42,3.16-6.42,8.32c0,5.24,2.47,8.42,6.33,8.42c2.04,0,3.61-0.94,4.91-2.36l2.18,2.56
			c-1.86,2.17-4.26,3.35-7.24,3.35C128.04,249.95,123.46,245.72,123.46,238.11z"/>
		<path class="st0" d="M149.82,226.54h13.83v3.43h-9.75v5.89h8.27v3.43h-8.27v6.8h10.11v3.43h-14.18V226.54z"/>
		<path class="st0" d="M190.1,226.54h4.78l7.49,22.98h-4.32l-3.5-12.23c-0.73-2.43-1.41-5.05-2.08-7.58h-0.14
			c-0.63,2.54-1.31,5.14-2.04,7.58l-3.53,12.23h-4.16L190.1,226.54z M187.03,240.1h10.82v3.2h-10.82V240.1z"/>
		<path class="st0" d="M209.91,226.54h4.19l7.14,12.92l2.38,4.91h0.14c-0.2-2.38-0.52-5.29-0.52-7.84v-9.98h3.88v22.98h-4.19
			l-7.14-12.94l-2.38-4.88h-0.14c0.2,2.43,0.52,5.2,0.52,7.76v10.06h-3.88V226.54z"/>
		<path class="st0" d="M237.89,226.54h6.13c7.04,0,11.2,3.8,11.2,11.4s-4.16,11.58-10.99,11.58h-6.34V226.54z M243.75,246.22
			c4.62,0,7.28-2.63,7.28-8.28c0-5.65-2.66-8.1-7.28-8.1h-1.79v16.38H243.75z"/>
		<path class="st0" d="M281.36,229.97h-6.63v-3.43h17.35v3.43h-6.63v19.55h-4.08V229.97z"/>
		<path class="st0" d="M300.82,226.54h13.83v3.43h-9.75v5.89h8.27v3.43h-8.27v6.8h10.11v3.43h-14.18V226.54z"/>
		<path class="st0" d="M323.44,238.11c0-7.52,4.71-11.99,10.53-11.99c2.88,0,5.17,1.38,6.62,2.91l-2.18,2.63
			c-1.18-1.18-2.56-2-4.36-2c-3.74,0-6.42,3.16-6.42,8.32c0,5.24,2.47,8.42,6.33,8.42c2.04,0,3.61-0.94,4.91-2.36l2.18,2.56
			c-1.86,2.17-4.26,3.35-7.24,3.35C328.02,249.95,323.44,245.72,323.44,238.11z"/>
		<path class="st0" d="M349.81,226.54h4.08v9.24h9.29v-9.24h4.08v22.98h-4.08v-10.19h-9.29v10.19h-4.08V226.54z"/>
		<path class="st0" d="M378.03,226.54h4.19l7.14,12.92l2.38,4.91h0.14c-0.2-2.38-0.52-5.29-0.52-7.84v-9.98h3.88v22.98h-4.19
			l-7.14-12.94l-2.38-4.88h-0.14c0.2,2.43,0.52,5.2,0.52,7.76v10.06h-3.88V226.54z"/>
		<path class="st0" d="M404.79,237.94c0-7.44,4.15-11.82,10.13-11.82s10.13,4.41,10.13,11.82c0,7.44-4.15,12-10.13,12
			S404.79,245.38,404.79,237.94z M420.87,237.94c0-5.16-2.33-8.28-5.95-8.28s-5.95,3.12-5.95,8.28c0,5.16,2.33,8.46,5.95,8.46
			S420.87,243.1,420.87,237.94z"/>
		<path class="st0" d="M434.6,226.54h4.08v19.55h9.54v3.43H434.6V226.54z"/>
		<path class="st0" d="M454.86,237.94c0-7.44,4.15-11.82,10.13-11.82s10.13,4.41,10.13,11.82c0,7.44-4.15,12-10.13,12
			S454.86,245.38,454.86,237.94z M470.94,237.94c0-5.16-2.33-8.28-5.95-8.28s-5.95,3.12-5.95,8.28c0,5.16,2.33,8.46,5.95,8.46
			S470.94,243.1,470.94,237.94z"/>
		<path class="st0" d="M483.47,238.11c0-7.52,4.77-11.99,10.88-11.99c3.26,0,5.5,1.43,6.94,2.91l-2.18,2.63c-1.15-1.12-2.5-2-4.64-2
			c-4.08,0-6.82,3.16-6.82,8.32c0,5.24,2.43,8.42,7.04,8.42c1.28,0,2.54-0.37,3.27-1.01v-4.96h-4.33v-3.34h7.98v10.13
			c-1.53,1.55-4.19,2.73-7.34,2.73C488.09,249.95,483.47,245.72,483.47,238.11z"/>
		<path class="st0" d="M515.5,240.98l-6.92-14.44h4.36l2.5,5.88c0.67,1.71,1.32,3.3,2.04,5.05h0.14c0.72-1.75,1.45-3.34,2.12-5.05
			l2.5-5.88h4.25l-6.92,14.44v8.55h-4.08V240.98z"/>
	</g>
	<g>
		<path class="st1" d="M239.1,124.29l-24.74-8.68l8.68-8.25c-34.5-44.39-2.68-97.95,46-97.21c44.41,2.67,77.54,50.98,39.49,98.94
			l6.94,8.25l-27.34,9.55h18.23l16.06,9.98l-0.43,26.47H209.59l0.43-27.34l15.62-9.98L239.1,124.29z"/>
		<path class="st2" d="M257.92,67.44c0.66-2.92,1.41-3.39,9.53-36.98"/>
		<polyline class="st2" points="267.45,30.81 270.41,30.81 278.01,74.39 		"/>
		<polyline class="st2" points="270.45,30.66 266.82,34.52 271.72,38.66 265.34,41.87 272.65,46.79 262.68,51.39 275.41,60.59 		"/>
		<path class="st2" d="M275.41,60.59c-0.8-0.33-17.02,5.83-17.02,5.83"/>
		<polyline class="st2" points="267.45,30.46 271.42,34.52 265.74,38.35 271.26,41.87 264.07,46.52 272.52,52.85 261.45,58.44 		"/>
		<path class="st2" d="M261.45,58.44c0,0,15.22,9.93,15.64,11.2"/>
		<path class="st2" d="M239.02,65.85c0-2.96,1.53-21.54,1.53-21.54"/>
		<polyline class="st2" points="240.55,44.31 241.4,65.86 239.02,65.85 		"/>
		<path class="st2" d="M240.14,44.16c0.09,0.25,0.36,0.56,0.73,0.62c0.07,0.01,1.67-0.79,2.26-0.77c2.88,0.12,7.2,1.27,9.09-1.79
			c0.02-0.02-2.2,0.39-2.43,0.44c-1.54,0.38-2.67,0.27-4.26,0.07c-1.32-0.17-2.41,0.15-3.71,0.33c-0.79,0.11-1.34,0.5-1.78,1.02"/>
		<path class="st2" d="M255.9,34.12c-2.13,0.24-0.14,0.43-2.54,0.19c1.79,0,6.07-0.37,6.07-0.37"/>
		<polyline class="st2" points="259.43,33.95 259.71,34.7 263.44,33.6 264.32,34.42 264.21,35.44 271.66,34.7 273.35,35.17 
			275.89,34.7 278.05,34.89 278.62,35.45 280.31,34.89 285.77,34.98 		"/>
		<polyline class="st2" points="247.57,36.58 252.28,36.86 252.37,37.52 257.36,36.96 255.95,37.71 262.72,37.15 262.47,38.61 
			265.44,37.43 		"/>
		<polyline class="st2" points="272.13,38.18 277.21,37.99 277.02,38.75 282.19,38.09 282,38.93 288.4,38.28 287.74,39.22 
			291.5,38.75 		"/>
		<polyline class="st2" points="243.43,39.5 247.38,39.78 247.01,40.44 251.81,39.78 251.81,40.72 257.83,39.87 257.64,40.82 
			264.36,39.88 		"/>
		<polyline class="st2" points="272.78,41.38 276.17,41.38 275.89,42.04 280.69,41.1 279.93,42.04 286.24,41.29 285.67,42.32 
			289.81,41.66 290,42.51 294.89,41.94 		"/>
		<path class="st2" d="M223.53,106.98c-9.44-10.09-14.74-25.16-14.74-38.82c0-32.04,25.98-58.02,58.02-58.02
			c32.04,0,58.02,25.98,58.02,58.02c0,16.18-6.62,30.81-17.3,41.33"/>
		<polygon class="st2" points="237,95.76 267.04,109.14 296.55,96.22 315.03,116.75 266.66,134.54 214.64,115.38 		"/>
		<line class="st2" x1="266.66" y1="134.54" x2="266.89" y2="109.22"/>
		<path class="st2" d="M224.05,106.81l-4.46,7.45c17.34,5.17,31.43,11.72,47.14,19.33c14.96-8.01,27.92-14.56,43.7-18.5l-2.17-6.13"
			/>
		<polyline class="st2" points="242.75,125.72 225.59,125.65 209.9,136.09 322.76,136.77 306.82,126.79 289.59,126.41 		"/>
		<polyline class="st2" points="209.75,135.46 209.14,163.68 322.56,163.52 322.44,136.02 		"/>
		<path class="st2" d="M239.42,100.21c-0.35-0.24-1.02-0.68-1.37-0.91"/>
		<path class="st2" d="M237.14,102.23c-0.35-0.24-1.02-0.68-1.37-0.91"/>
		<path class="st2" d="M240.09,104.34c-0.35-0.24-1.02-0.68-1.37-0.91"/>
		<path class="st2" d="M243.04,105.69c-0.35-0.23-1.02-0.68-1.37-0.91"/>
		<path class="st2" d="M245.91,107.04c-0.35-0.24-1.02-0.68-1.37-0.91"/>
		<path class="st2" d="M242.62,109.66c-0.35-0.24-1.02-0.68-1.37-0.91"/>
		<path class="st2" d="M239.16,108.14c-0.35-0.23-1.02-0.68-1.37-0.91"/>
		<path class="st2" d="M236.04,106.53c-0.35-0.24-1.02-0.68-1.37-0.91"/>
		<path class="st2" d="M234.02,104.93c-0.35-0.24-1.02-0.68-1.37-0.91"/>
		<path class="st2" d="M231.82,108.48c-0.35-0.24-1.02-0.68-1.37-0.91"/>
		<path class="st2" d="M234.94,109.49c-0.35-0.24-1.02-0.68-1.37-0.91"/>
		<path class="st2" d="M237.64,111.01c-0.35-0.24-1.02-0.68-1.37-0.91"/>
		<path class="st2" d="M240.93,112.36c-0.35-0.24-1.02-0.68-1.37-0.91"/>
		<path class="st2" d="M243.65,113.41c-0.23-0.17-0.66-0.48-0.89-0.65"/>
		<path class="st2" d="M228.59,109.89c-0.35-0.23-1.02-0.68-1.37-0.91"/>
		<path class="st3" d="M231.08,107.59c-0.35-0.24-1.02-0.68-1.37-0.91"/>
		<path class="st2" d="M225.82,112.81c-0.35-0.24-1.02-0.68-1.37-0.91"/>
		<path class="st2" d="M230.37,115.39c-0.35-0.24-1.02-0.68-1.37-0.91"/>
		<path class="st2" d="M236.04,117.42c-0.35-0.24-1.02-0.68-1.37-0.91"/>
		<path class="st2" d="M240.51,119.36c-0.35-0.24-1.02-0.68-1.37-0.91"/>
		<path class="st2" d="M244.56,121.38c-0.35-0.24-1.02-0.68-1.37-0.91"/>
		<path class="st2" d="M249.63,123.58c-0.35-0.23-1.02-0.68-1.37-0.91"/>
		<path class="st2" d="M233.17,112.61c-0.35-0.24-1.02-0.68-1.37-0.91"/>
		<path class="st2" d="M235.87,114.13c-0.35-0.24-1.02-0.68-1.37-0.91"/>
		<path class="st2" d="M239.16,115.48c-0.35-0.23-1.02-0.68-1.37-0.91"/>
		<path class="st2" d="M241.88,116.53c-0.23-0.17-0.66-0.48-0.89-0.65"/>
		<path class="st2" d="M247.36,115.52c-0.23-0.17-0.66-0.48-0.89-0.65"/>
		<path class="st2" d="M247.02,118.64c-0.23-0.17-0.66-0.48-0.89-0.65"/>
		<path class="st2" d="M251.49,121.51c-0.23-0.17-0.66-0.48-0.89-0.65"/>
		<path class="st2" d="M255.21,123.36c-0.23-0.17-0.66-0.48-0.89-0.65"/>
		<path class="st2" d="M253.77,125.47c-0.23-0.17-0.66-0.48-0.89-0.65"/>
		<path class="st2" d="M258.08,124.97c-0.23-0.17-0.66-0.48-0.89-0.65"/>
		<path class="st2" d="M258.16,127.08c-0.23-0.17-0.66-0.48-0.89-0.65"/>
		<path class="st2" d="M260.86,125.89c-0.23-0.17-0.66-0.48-0.89-0.65"/>
		<path class="st2" d="M261.45,128.68c-0.23-0.17-0.66-0.48-0.89-0.65"/>
		<path class="st2" d="M262.89,126.99c-0.23-0.17-0.66-0.48-0.89-0.65"/>
		<path class="st2" d="M250.31,116.87c-0.23-0.17-0.66-0.48-0.89-0.65"/>
		<path class="st2" d="M253.94,118.38c-0.23-0.17-0.66-0.48-0.89-0.65"/>
		<path class="st2" d="M257.32,120.49c-0.23-0.17-0.66-0.48-0.89-0.65"/>
		<path class="st2" d="M260.44,122.01c-0.23-0.17-0.66-0.48-0.89-0.65"/>
		<path class="st2" d="M263.39,123.02c-0.23-0.17-0.66-0.48-0.89-0.65"/>
		<path class="st2" d="M245.07,110.84c-0.35-0.23-1.02-0.68-1.37-0.91"/>
		<path class="st2" d="M248.61,112.36c-0.35-0.24-1.02-0.68-1.37-0.91"/>
		<path class="st2" d="M249.12,109.32c-0.35-0.23-1.02-0.68-1.37-0.91"/>
		<path class="st2" d="M251.65,110.16c-0.35-0.24-1.02-0.68-1.37-0.91"/>
		<path class="st2" d="M255.45,111.85c-0.35-0.23-1.02-0.68-1.37-0.91"/>
		<path class="st2" d="M258.65,113.37c-0.35-0.24-1.02-0.68-1.37-0.91"/>
		<path class="st2" d="M261.61,114.47c-0.35-0.24-1.02-0.68-1.37-0.91"/>
		<path class="st2" d="M263.8,115.48c-0.35-0.23-1.02-0.68-1.37-0.91"/>
		<path class="st2" d="M262.62,118.85c-0.35-0.24-1.02-0.68-1.37-0.91"/>
		<path class="st2" d="M259.5,117.34c-0.35-0.24-1.02-0.68-1.37-0.91"/>
		<path class="st2" d="M256.04,115.82c-0.35-0.24-1.02-0.68-1.37-0.91"/>
		<path class="st2" d="M252.49,113.88c-0.35-0.23-1.02-0.68-1.37-0.91"/>
		<path class="st2" d="M242.37,102.06c-0.35-0.23-1.02-0.68-1.37-0.91"/>
		<path class="st2" d="M245.66,104c-0.35-0.23-1.02-0.68-1.37-0.91"/>
		<path class="st2" d="M248.86,105.27c-0.35-0.23-1.02-0.68-1.37-0.91"/>
		<path class="st2" d="M252.83,107.38c-0.35-0.24-1.02-0.68-1.37-0.91"/>
		<path class="st2" d="M256.37,108.39c-0.35-0.23-1.02-0.68-1.37-0.91"/>
		<path class="st2" d="M259.58,110.33c-0.35-0.24-1.02-0.68-1.37-0.91"/>
		<path class="st2" d="M262.62,111.85c-0.35-0.23-1.02-0.68-1.37-0.91"/>
		<path class="st2" d="M270.4,110.05c0.4-0.13,0.8-0.24,1.2-0.3"/>
		<path class="st2" d="M274.11,109.29c0.4-0.13,0.8-0.24,1.2-0.3"/>
		<path class="st2" d="M276.39,108.7c0.4-0.13,0.8-0.24,1.2-0.3"/>
		<path class="st2" d="M270.31,112.67c0.4-0.13,0.8-0.24,1.2-0.3"/>
		<path class="st2" d="M274.03,111.91c0.4-0.13,0.8-0.24,1.2-0.3"/>
		<path class="st2" d="M276.3,111.32c0.4-0.13,0.8-0.24,1.2-0.3"/>
		<path class="st2" d="M270.31,115.28c0.4-0.13,0.8-0.24,1.2-0.3"/>
		<path class="st2" d="M274.03,114.52c0.4-0.13,0.8-0.24,1.2-0.3"/>
		<path class="st2" d="M276.3,113.93c0.4-0.13,0.8-0.24,1.2-0.3"/>
		<path class="st2" d="M270.31,118.15c0.4-0.13,0.8-0.24,1.2-0.3"/>
		<path class="st2" d="M274.03,117.39c0.4-0.13,0.8-0.24,1.2-0.3"/>
		<path class="st2" d="M276.3,116.8c0.4-0.13,0.8-0.24,1.2-0.3"/>
		<path class="st2" d="M270.48,121.02c0.4-0.13,0.8-0.24,1.2-0.3"/>
		<path class="st2" d="M274.2,120.26c0.4-0.13,0.8-0.24,1.2-0.3"/>
		<path class="st2" d="M276.47,119.67c0.4-0.13,0.8-0.24,1.2-0.3"/>
		<path class="st2" d="M270.74,123.55c0.4-0.13,0.8-0.24,1.2-0.3"/>
		<path class="st2" d="M274.45,122.79c0.4-0.13,0.8-0.24,1.2-0.3"/>
		<path class="st2" d="M276.73,122.2c0.4-0.13,0.8-0.24,1.2-0.3"/>
		<path class="st2" d="M270.82,126.59c0.4-0.13,0.8-0.24,1.2-0.3"/>
		<path class="st2" d="M274.53,125.83c0.4-0.13,0.8-0.24,1.2-0.3"/>
		<path class="st2" d="M276.81,125.24c0.39-0.13,0.8-0.24,1.2-0.3"/>
		<path class="st2" d="M279.95,109.49c0.4-0.13,0.8-0.24,1.2-0.3"/>
		<path class="st2" d="M279.95,112.11c0.4-0.13,0.8-0.24,1.2-0.3"/>
		<path class="st2" d="M279.95,114.98c0.4-0.13,0.8-0.24,1.2-0.3"/>
		<path class="st2" d="M280.12,117.85c0.4-0.13,0.8-0.24,1.2-0.3"/>
		<path class="st2" d="M280.38,120.38c0.4-0.13,0.8-0.24,1.2-0.3"/>
		<path class="st2" d="M280.46,123.42c0.4-0.13,0.8-0.24,1.2-0.3"/>
		<path class="st2" d="M283.45,108.28c0.4-0.13,0.8-0.24,1.2-0.3"/>
		<path class="st2" d="M283.45,110.89c0.4-0.13,0.8-0.24,1.2-0.3"/>
		<path class="st2" d="M283.45,113.76c0.4-0.13,0.8-0.24,1.2-0.3"/>
		<path class="st2" d="M283.62,116.63c0.4-0.13,0.8-0.24,1.2-0.3"/>
		<path class="st2" d="M283.88,119.16c0.4-0.13,0.8-0.24,1.2-0.3"/>
		<path class="st2" d="M283.96,122.2c0.4-0.13,0.8-0.24,1.2-0.3"/>
		<path class="st2" d="M286.34,107.21c0.4-0.13,0.8-0.24,1.2-0.3"/>
		<path class="st2" d="M286.34,109.83c0.4-0.13,0.8-0.24,1.2-0.3"/>
		<path class="st2" d="M286.34,112.7c0.4-0.13,0.8-0.24,1.2-0.3"/>
		<path class="st2" d="M286.51,115.56c0.4-0.13,0.8-0.24,1.2-0.3"/>
		<path class="st2" d="M286.76,118.1c0.4-0.13,0.8-0.24,1.2-0.3"/>
		<path class="st2" d="M286.85,121.13c0.39-0.13,0.8-0.24,1.2-0.3"/>
		<path class="st2" d="M289.54,105.69c0.4-0.13,0.8-0.24,1.2-0.3"/>
		<path class="st2" d="M289.54,108.31c0.4-0.13,0.8-0.24,1.2-0.3"/>
		<path class="st2" d="M289.54,111.18c0.4-0.13,0.8-0.24,1.2-0.3"/>
		<path class="st2" d="M289.71,114.04c0.39-0.13,0.8-0.24,1.2-0.3"/>
		<path class="st2" d="M289.96,116.58c0.4-0.13,0.8-0.24,1.2-0.3"/>
		<path class="st2" d="M290.04,119.61c0.4-0.13,0.8-0.24,1.2-0.3"/>
		<path class="st2" d="M292.27,104.47c0.4-0.13,0.8-0.24,1.2-0.3"/>
		<path class="st2" d="M292.27,107.09c0.4-0.13,0.8-0.24,1.2-0.3"/>
		<path class="st2" d="M292.27,109.96c0.4-0.13,0.8-0.24,1.2-0.3"/>
		<path class="st2" d="M292.44,112.83c0.4-0.13,0.8-0.24,1.2-0.3"/>
		<path class="st2" d="M292.7,115.36c0.4-0.13,0.8-0.24,1.2-0.3"/>
		<path class="st2" d="M292.78,118.4c0.4-0.13,0.8-0.24,1.2-0.3"/>
		<path class="st2" d="M295.01,103.87c0.4-0.13,0.8-0.24,1.2-0.3"/>
		<path class="st2" d="M295.01,106.48c0.4-0.13,0.8-0.24,1.2-0.3"/>
		<path class="st2" d="M295.01,109.35c0.4-0.13,0.8-0.24,1.2-0.3"/>
		<path class="st2" d="M295.18,112.22c0.4-0.13,0.8-0.24,1.2-0.3"/>
		<path class="st2" d="M295.43,114.75c0.4-0.13,0.8-0.24,1.2-0.3"/>
		<path class="st2" d="M295.52,117.79c0.4-0.13,0.8-0.24,1.2-0.3"/>
		<path class="st2" d="M297.75,103.11c0.4-0.13,0.8-0.24,1.2-0.3"/>
		<path class="st2" d="M299.27,105.57c0.39-0.13,0.8-0.24,1.2-0.3"/>
		<path class="st2" d="M297.75,108.59c0.4-0.13,0.8-0.24,1.2-0.3"/>
		<path class="st2" d="M300.18,107.83c0.4-0.13,0.8-0.24,1.2-0.3"/>
		<path class="st2" d="M297.92,111.46c0.4-0.13,0.8-0.24,1.2-0.3"/>
		<path class="st2" d="M301.11,110.39c0.4-0.13,0.8-0.24,1.2-0.3"/>
		<path class="st2" d="M302.48,109.18c0.4-0.13,0.8-0.24,1.2-0.3"/>
		<path class="st2" d="M298.17,113.99c0.4-0.13,0.8-0.24,1.2-0.3"/>
		<path class="st2" d="M301.37,112.47c0.4-0.13,0.8-0.24,1.2-0.3"/>
		<path class="st2" d="M303.65,111.56c0.39-0.13,0.8-0.24,1.2-0.3"/>
		<path class="st2" d="M300.69,115.81c0.4-0.13,0.8-0.24,1.2-0.3"/>
		<path class="st2" d="M302.82,114.59c0.4-0.13,0.8-0.24,1.2-0.3"/>
		<path class="st2" d="M304.65,113.68c0.4-0.13,0.8-0.24,1.2-0.3"/>
		<path class="st2" d="M279.34,107.44c0.4-0.13,0.8-0.24,1.2-0.3"/>
		<path class="st2" d="M282.55,106.43c0.4-0.13,0.8-0.24,1.2-0.3"/>
		<path class="st2" d="M284.74,105.41c0.4-0.13,0.8-0.24,1.2-0.3"/>
		<path class="st2" d="M288.29,103.76c0.4-0.13,0.8-0.24,1.2-0.3"/>
		<path class="st2" d="M290.9,102.92c0.4-0.13,0.8-0.24,1.2-0.3"/>
		<path class="st2" d="M293.6,101.77c0.4-0.13,0.8-0.24,1.2-0.3"/>
		<path class="st2" d="M295.71,100.2c0.4-0.13,0.8-0.24,1.2-0.3"/>
		<path class="st4" d="M302.19,148.54v-6.73h3.19v0.79h-2.56v2.08h2.22v0.79h-2.22v3.06H302.19z M297.47,145.27
			c0,0.81,0.15,1.45,0.46,1.92c0.31,0.47,0.69,0.7,1.15,0.7c0.47,0,0.86-0.23,1.16-0.71c0.3-0.47,0.46-1.14,0.46-2.01
			c0-0.55-0.07-1.03-0.2-1.43c-0.13-0.41-0.32-0.73-0.57-0.95c-0.25-0.22-0.53-0.34-0.84-0.34c-0.44,0-0.82,0.22-1.14,0.65
			C297.63,143.54,297.47,144.26,297.47,145.27z M296.83,145.26c0-1.12,0.21-1.99,0.63-2.62c0.42-0.63,0.97-0.95,1.63-0.95
			c0.44,0,0.83,0.15,1.18,0.45c0.35,0.3,0.62,0.71,0.8,1.24c0.18,0.53,0.27,1.13,0.27,1.8c0,0.68-0.1,1.29-0.29,1.83
			c-0.19,0.54-0.47,0.95-0.82,1.22c-0.36,0.28-0.74,0.42-1.15,0.42c-0.45,0-0.84-0.15-1.19-0.46c-0.35-0.31-0.62-0.72-0.8-1.25
			C296.92,146.41,296.83,145.85,296.83,145.26z M292.11,148.54v-2.85l-1.82-3.88h0.76l0.93,2.03c0.17,0.38,0.33,0.76,0.48,1.14
			c0.14-0.35,0.31-0.75,0.52-1.19l0.92-1.98h0.73l-1.89,3.88v2.85H292.11z M287.95,148.54v-5.94h-1.56v-0.79h3.75v0.79h-1.56v5.94
			H287.95z M285.02,148.54v-6.73h0.63v6.73H285.02z M280.29,146.38l0.59-0.07c0.03,0.34,0.09,0.61,0.2,0.83
			c0.1,0.22,0.26,0.39,0.48,0.52c0.21,0.13,0.46,0.2,0.73,0.2c0.24,0,0.45-0.05,0.63-0.15c0.18-0.1,0.32-0.24,0.41-0.42
			c0.09-0.18,0.13-0.37,0.13-0.58c0-0.21-0.04-0.39-0.13-0.55c-0.09-0.16-0.23-0.29-0.42-0.4c-0.13-0.07-0.41-0.18-0.84-0.33
			c-0.43-0.15-0.74-0.29-0.91-0.42c-0.23-0.17-0.39-0.38-0.51-0.63c-0.11-0.25-0.17-0.53-0.17-0.84c0-0.34,0.07-0.66,0.2-0.95
			c0.14-0.3,0.33-0.52,0.59-0.67c0.26-0.15,0.55-0.23,0.87-0.23c0.35,0,0.66,0.08,0.93,0.24c0.27,0.16,0.47,0.4,0.62,0.71
			c0.14,0.31,0.22,0.67,0.23,1.06l-0.6,0.06c-0.03-0.42-0.14-0.75-0.33-0.96c-0.19-0.22-0.46-0.33-0.82-0.33
			c-0.38,0-0.65,0.1-0.83,0.3c-0.17,0.2-0.26,0.44-0.26,0.71c0,0.24,0.06,0.44,0.18,0.6c0.12,0.16,0.44,0.32,0.94,0.48
			c0.51,0.16,0.86,0.31,1.05,0.43c0.28,0.18,0.48,0.41,0.61,0.69c0.13,0.28,0.2,0.6,0.2,0.96c0,0.36-0.07,0.7-0.22,1.01
			c-0.14,0.32-0.35,0.56-0.62,0.74c-0.27,0.18-0.57,0.26-0.91,0.26c-0.43,0-0.79-0.09-1.08-0.27c-0.29-0.18-0.52-0.44-0.68-0.8
			C280.39,147.23,280.3,146.83,280.29,146.38z M276.37,144.78h1.34c0.29,0,0.51-0.04,0.67-0.13c0.16-0.09,0.28-0.22,0.37-0.41
			c0.08-0.18,0.13-0.39,0.13-0.6c0-0.32-0.08-0.58-0.24-0.78c-0.16-0.21-0.42-0.31-0.77-0.31h-1.5V144.78z M275.75,148.54v-6.73h2.1
			c0.42,0,0.74,0.06,0.96,0.18c0.22,0.12,0.39,0.33,0.53,0.64c0.13,0.31,0.2,0.65,0.2,1.02c0,0.48-0.11,0.88-0.33,1.21
			c-0.22,0.33-0.55,0.54-1.01,0.62c0.17,0.11,0.29,0.22,0.38,0.34c0.18,0.24,0.36,0.54,0.52,0.9l0.82,1.83h-0.79l-0.63-1.4
			c-0.18-0.4-0.33-0.71-0.45-0.93c-0.12-0.21-0.22-0.36-0.32-0.45c-0.09-0.09-0.19-0.15-0.28-0.18c-0.07-0.02-0.19-0.03-0.35-0.03
			h-0.73v2.99H275.75z M271.35,148.54v-6.73h3.42v0.79h-2.79v2.06h2.61v0.79h-2.61v2.29h2.9v0.79H271.35z M268.28,148.54l-1.83-6.73
			h0.68l1.23,4.89c0.1,0.39,0.18,0.76,0.25,1.1c0.07-0.37,0.16-0.73,0.26-1.1l1.28-4.89h0.64l-1.85,6.73H268.28z M265.2,148.54
			v-6.73h0.63v6.73H265.2z M260.32,148.54v-6.73h0.64l2.48,5.28v-5.28h0.6v6.73h-0.64l-2.48-5.29v5.29H260.32z M258.66,141.81h0.63
			v3.89c0,0.68-0.05,1.21-0.16,1.61c-0.11,0.4-0.3,0.72-0.58,0.97c-0.28,0.25-0.65,0.37-1.1,0.37c-0.44,0-0.81-0.11-1.09-0.33
			c-0.28-0.22-0.48-0.53-0.6-0.94c-0.12-0.41-0.18-0.97-0.18-1.69v-3.89h0.63v3.89c0,0.58,0.04,1.02,0.11,1.29
			c0.08,0.28,0.21,0.49,0.39,0.64c0.19,0.15,0.41,0.23,0.68,0.23c0.46,0,0.79-0.15,0.98-0.45c0.19-0.3,0.29-0.87,0.29-1.71V141.81z
			 M248.95,148.54v-6.73h0.64l2.48,5.28v-5.28h0.6v6.73h-0.64l-2.48-5.29v5.29H248.95z M247.23,148.54v-6.73h0.63v6.73H247.23z
			 M242.37,148.54v-6.73H243v2.76h2.46v-2.76h0.63v6.73h-0.63v-3.17H243v3.17H242.37z M240.96,146.18l0.63,0.23
			c-0.13,0.73-0.37,1.29-0.71,1.67c-0.34,0.38-0.76,0.57-1.25,0.57c-0.51,0-0.92-0.15-1.24-0.44c-0.32-0.3-0.56-0.72-0.73-1.28
			c-0.17-0.56-0.25-1.16-0.25-1.81c0-0.7,0.09-1.31,0.28-1.83c0.19-0.52,0.46-0.92,0.8-1.19c0.35-0.27,0.73-0.41,1.14-0.41
			c0.47,0,0.87,0.17,1.19,0.51c0.32,0.34,0.55,0.82,0.67,1.45l-0.62,0.21c-0.11-0.49-0.27-0.85-0.48-1.07
			c-0.21-0.22-0.47-0.34-0.79-0.34c-0.36,0-0.67,0.12-0.91,0.37c-0.24,0.25-0.42,0.58-0.51,1c-0.1,0.42-0.15,0.85-0.15,1.29
			c0,0.57,0.06,1.07,0.18,1.5c0.12,0.43,0.3,0.75,0.55,0.96c0.25,0.21,0.51,0.32,0.8,0.32c0.35,0,0.65-0.14,0.89-0.43
			C240.71,147.17,240.87,146.74,240.96,146.18z M232.9,145.27c0,0.81,0.15,1.45,0.46,1.92c0.31,0.47,0.69,0.7,1.15,0.7
			c0.47,0,0.86-0.23,1.16-0.71c0.3-0.47,0.46-1.14,0.46-2.01c0-0.55-0.07-1.03-0.2-1.43c-0.13-0.41-0.32-0.73-0.57-0.95
			c-0.25-0.22-0.53-0.34-0.84-0.34c-0.44,0-0.82,0.22-1.14,0.65C233.06,143.54,232.9,144.26,232.9,145.27z M232.26,145.26
			c0-1.12,0.21-1.99,0.63-2.62c0.42-0.63,0.97-0.95,1.63-0.95c0.44,0,0.83,0.15,1.18,0.45c0.35,0.3,0.62,0.71,0.8,1.24
			c0.18,0.53,0.28,1.13,0.28,1.8c0,0.68-0.1,1.29-0.29,1.83c-0.19,0.54-0.47,0.95-0.82,1.22c-0.36,0.28-0.74,0.42-1.15,0.42
			c-0.45,0-0.84-0.15-1.19-0.46c-0.35-0.31-0.62-0.72-0.8-1.25C232.35,146.41,232.26,145.85,232.26,145.26z M231.05,146.18
			l0.63,0.23c-0.13,0.73-0.37,1.29-0.71,1.67c-0.34,0.38-0.76,0.57-1.25,0.57c-0.51,0-0.92-0.15-1.24-0.44
			c-0.32-0.3-0.56-0.72-0.73-1.28c-0.17-0.56-0.25-1.16-0.25-1.81c0-0.7,0.09-1.31,0.28-1.83c0.19-0.52,0.46-0.92,0.8-1.19
			c0.35-0.27,0.73-0.41,1.15-0.41c0.47,0,0.87,0.17,1.19,0.51c0.32,0.34,0.55,0.82,0.67,1.45l-0.62,0.21
			c-0.11-0.49-0.27-0.85-0.48-1.07c-0.21-0.22-0.47-0.34-0.79-0.34c-0.36,0-0.67,0.12-0.91,0.37c-0.24,0.25-0.42,0.58-0.51,1
			c-0.1,0.42-0.15,0.85-0.15,1.29c0,0.57,0.06,1.07,0.17,1.5c0.12,0.43,0.3,0.75,0.55,0.96c0.25,0.21,0.51,0.32,0.8,0.32
			c0.35,0,0.65-0.14,0.89-0.43C230.8,147.17,230.96,146.74,231.05,146.18z"/>
		<path class="st4" d="M310.46,159.77v-2.85l-1.82-3.88h0.76l0.93,2.03c0.17,0.38,0.33,0.76,0.48,1.14
			c0.14-0.35,0.31-0.75,0.52-1.19l0.92-1.98h0.73l-1.89,3.88v2.85H310.46z M306.2,157.13v-0.79l2-0.01v2.5
			c-0.31,0.35-0.62,0.61-0.95,0.79c-0.33,0.18-0.66,0.26-1.01,0.26c-0.46,0-0.89-0.14-1.27-0.43c-0.38-0.28-0.67-0.69-0.86-1.23
			c-0.19-0.54-0.29-1.13-0.29-1.8c0-0.65,0.1-1.27,0.29-1.83c0.19-0.57,0.47-0.99,0.83-1.27c0.36-0.27,0.78-0.41,1.25-0.41
			c0.34,0,0.65,0.08,0.93,0.24c0.28,0.16,0.49,0.38,0.65,0.66c0.16,0.28,0.28,0.65,0.36,1.1l-0.57,0.22
			c-0.07-0.34-0.16-0.61-0.26-0.81c-0.11-0.2-0.26-0.35-0.45-0.47c-0.19-0.12-0.41-0.18-0.65-0.18c-0.29,0-0.53,0.06-0.74,0.19
			c-0.21,0.12-0.38,0.29-0.51,0.49c-0.13,0.2-0.23,0.42-0.3,0.67c-0.12,0.42-0.18,0.87-0.18,1.35c0,0.6,0.07,1.1,0.22,1.51
			c0.15,0.4,0.36,0.7,0.63,0.9c0.28,0.2,0.57,0.29,0.88,0.29c0.27,0,0.54-0.07,0.79-0.22c0.26-0.15,0.45-0.31,0.59-0.47v-1.25H306.2
			z M299.31,156.5c0,0.81,0.15,1.45,0.46,1.92c0.31,0.47,0.69,0.7,1.15,0.7c0.47,0,0.86-0.24,1.16-0.71
			c0.3-0.47,0.46-1.14,0.46-2.01c0-0.55-0.07-1.02-0.2-1.43c-0.13-0.41-0.32-0.73-0.57-0.95c-0.25-0.22-0.53-0.34-0.84-0.34
			c-0.44,0-0.82,0.22-1.14,0.65C299.47,154.77,299.31,155.49,299.31,156.5z M298.66,156.49c0-1.12,0.21-1.99,0.63-2.62
			c0.42-0.63,0.96-0.95,1.63-0.95c0.44,0,0.83,0.15,1.18,0.45c0.35,0.3,0.62,0.71,0.8,1.24c0.18,0.53,0.28,1.13,0.28,1.81
			c0,0.68-0.1,1.29-0.29,1.83c-0.19,0.54-0.47,0.95-0.82,1.22c-0.36,0.28-0.74,0.42-1.15,0.42c-0.45,0-0.84-0.15-1.19-0.46
			c-0.35-0.31-0.62-0.72-0.8-1.25C298.75,157.64,298.66,157.08,298.66,156.49z M295.15,159.77v-6.73h0.63v5.94h2.33v0.79H295.15z
			 M290.5,156.5c0,0.81,0.15,1.45,0.46,1.92c0.31,0.47,0.69,0.7,1.15,0.7c0.47,0,0.86-0.24,1.16-0.71c0.3-0.47,0.46-1.14,0.46-2.01
			c0-0.55-0.07-1.02-0.2-1.43c-0.13-0.41-0.32-0.73-0.57-0.95c-0.25-0.22-0.53-0.34-0.84-0.34c-0.44,0-0.82,0.22-1.14,0.65
			C290.66,154.77,290.5,155.49,290.5,156.5z M289.85,156.49c0-1.12,0.21-1.99,0.63-2.62c0.42-0.63,0.97-0.95,1.63-0.95
			c0.44,0,0.83,0.15,1.18,0.45c0.35,0.3,0.62,0.71,0.8,1.24c0.18,0.53,0.28,1.13,0.28,1.81c0,0.68-0.1,1.29-0.29,1.83
			c-0.19,0.54-0.47,0.95-0.82,1.22c-0.36,0.28-0.74,0.42-1.15,0.42c-0.45,0-0.84-0.15-1.19-0.46c-0.35-0.31-0.62-0.72-0.8-1.25
			C289.94,157.64,289.85,157.08,289.85,156.49z M285.27,159.77v-6.73h0.64l2.48,5.28v-5.28h0.6v6.73h-0.64l-2.48-5.29v5.29H285.27z
			 M280.53,159.77v-6.73h0.63v2.76h2.46v-2.76h0.63v6.73h-0.63v-3.17h-2.46v3.17H280.53z M279.11,157.41l0.63,0.23
			c-0.13,0.73-0.37,1.29-0.71,1.67c-0.34,0.38-0.76,0.58-1.25,0.58c-0.51,0-0.92-0.15-1.24-0.44c-0.32-0.3-0.56-0.72-0.73-1.28
			c-0.17-0.56-0.25-1.16-0.25-1.81c0-0.7,0.09-1.31,0.28-1.83c0.19-0.52,0.46-0.92,0.8-1.19c0.35-0.27,0.73-0.41,1.15-0.41
			c0.47,0,0.87,0.17,1.19,0.51c0.32,0.34,0.55,0.82,0.67,1.45l-0.62,0.21c-0.11-0.49-0.27-0.85-0.48-1.07
			c-0.21-0.22-0.47-0.33-0.79-0.33c-0.36,0-0.67,0.12-0.91,0.37c-0.24,0.25-0.42,0.58-0.51,1c-0.1,0.42-0.15,0.85-0.15,1.29
			c0,0.57,0.06,1.07,0.18,1.5c0.12,0.43,0.3,0.75,0.55,0.96c0.25,0.21,0.52,0.32,0.8,0.32c0.35,0,0.65-0.14,0.89-0.43
			C278.86,158.4,279.02,157.97,279.11,157.41z M271.35,159.77v-6.73h3.42v0.79h-2.79v2.06h2.61v0.79h-2.61v2.29h2.9v0.79H271.35z
			 M268.5,159.77v-5.94h-1.56v-0.79h3.75v0.79h-1.56v5.94H268.5z M261.32,158.97h1.01c0.31,0,0.56-0.04,0.73-0.12
			c0.18-0.08,0.32-0.2,0.42-0.35c0.15-0.21,0.26-0.5,0.35-0.85c0.08-0.36,0.12-0.79,0.12-1.3c0-0.7-0.08-1.24-0.24-1.62
			c-0.16-0.38-0.36-0.63-0.59-0.76c-0.17-0.09-0.44-0.14-0.81-0.14h-0.99V158.97z M260.7,159.77v-6.73h1.63
			c0.37,0,0.65,0.03,0.84,0.1c0.27,0.09,0.5,0.25,0.69,0.48c0.25,0.3,0.44,0.68,0.56,1.15c0.12,0.47,0.19,1,0.19,1.6
			c0,0.51-0.04,0.96-0.13,1.36c-0.08,0.39-0.19,0.72-0.32,0.98c-0.13,0.26-0.27,0.46-0.43,0.61c-0.16,0.15-0.34,0.26-0.56,0.34
			c-0.22,0.08-0.47,0.11-0.76,0.11H260.7z M255.92,159.77v-6.73h0.64l2.48,5.28v-5.28h0.6v6.73H259l-2.48-5.29v5.29H255.92z
			 M252.37,157h1.6l-0.49-1.86c-0.15-0.57-0.26-1.03-0.33-1.4c-0.06,0.43-0.15,0.86-0.26,1.29L252.37,157z M251,159.77l1.82-6.73
			h0.67l1.93,6.73h-0.71l-0.55-2.04h-1.98l-0.52,2.04H251z M245.3,159.77v-6.73h3.42v0.79h-2.79v2.06h2.61v0.79h-2.61v2.29h2.9v0.79
			H245.3z M243.89,157.41l0.63,0.23c-0.13,0.73-0.37,1.29-0.71,1.67c-0.34,0.38-0.76,0.58-1.25,0.58c-0.51,0-0.92-0.15-1.24-0.44
			c-0.32-0.3-0.56-0.72-0.73-1.28c-0.17-0.56-0.25-1.16-0.25-1.81c0-0.7,0.09-1.31,0.28-1.83c0.19-0.52,0.46-0.92,0.8-1.19
			c0.35-0.27,0.73-0.41,1.15-0.41c0.47,0,0.87,0.17,1.19,0.51c0.32,0.34,0.55,0.82,0.67,1.45l-0.61,0.21
			c-0.11-0.49-0.27-0.85-0.48-1.07c-0.21-0.22-0.47-0.33-0.79-0.33c-0.36,0-0.67,0.12-0.91,0.37c-0.24,0.25-0.42,0.58-0.51,1
			c-0.1,0.42-0.15,0.85-0.15,1.29c0,0.57,0.06,1.07,0.18,1.5c0.12,0.43,0.3,0.75,0.55,0.96c0.25,0.21,0.52,0.32,0.8,0.32
			c0.35,0,0.65-0.14,0.89-0.43C243.64,158.4,243.8,157.97,243.89,157.41z M235.74,159.77v-6.73h0.64l2.48,5.28v-5.28h0.6v6.73h-0.64
			l-2.48-5.29v5.29H235.74z M231.36,159.77v-6.73h3.42v0.79h-2.79v2.06h2.61v0.79h-2.61v2.29h2.9v0.79H231.36z M229.62,159.77v-6.73
			h0.62v6.73H229.62z M228.11,157.41l0.63,0.23c-0.13,0.73-0.37,1.29-0.71,1.67c-0.34,0.38-0.76,0.58-1.25,0.58
			c-0.51,0-0.92-0.15-1.24-0.44c-0.32-0.3-0.56-0.72-0.73-1.28c-0.17-0.56-0.25-1.16-0.25-1.81c0-0.7,0.09-1.31,0.28-1.83
			c0.19-0.52,0.46-0.92,0.8-1.19c0.35-0.27,0.73-0.41,1.15-0.41c0.47,0,0.87,0.17,1.19,0.51c0.32,0.34,0.55,0.82,0.67,1.45
			l-0.62,0.21c-0.11-0.49-0.27-0.85-0.48-1.07c-0.21-0.22-0.47-0.33-0.79-0.33c-0.36,0-0.67,0.12-0.91,0.37
			c-0.24,0.25-0.42,0.58-0.51,1c-0.1,0.42-0.15,0.85-0.15,1.29c0,0.57,0.06,1.07,0.18,1.5c0.12,0.43,0.3,0.75,0.55,0.96
			c0.25,0.21,0.51,0.32,0.8,0.32c0.35,0,0.65-0.14,0.89-0.43C227.86,158.4,228.03,157.97,228.11,157.41z M220.12,157.61l0.59-0.07
			c0.03,0.34,0.09,0.61,0.19,0.83c0.1,0.22,0.26,0.39,0.48,0.52c0.21,0.13,0.46,0.2,0.73,0.2c0.24,0,0.45-0.05,0.63-0.15
			c0.18-0.1,0.32-0.24,0.41-0.42c0.09-0.18,0.13-0.37,0.13-0.58c0-0.21-0.04-0.4-0.13-0.55c-0.09-0.16-0.23-0.29-0.42-0.4
			c-0.13-0.07-0.41-0.18-0.84-0.33c-0.43-0.15-0.74-0.29-0.91-0.42c-0.23-0.17-0.39-0.38-0.51-0.63c-0.11-0.25-0.17-0.53-0.17-0.84
			c0-0.34,0.07-0.66,0.2-0.95c0.14-0.3,0.33-0.52,0.59-0.67c0.26-0.15,0.55-0.23,0.87-0.23c0.35,0,0.66,0.08,0.93,0.24
			c0.27,0.16,0.47,0.4,0.62,0.71c0.14,0.31,0.22,0.67,0.23,1.06l-0.6,0.06c-0.03-0.42-0.14-0.75-0.33-0.96
			c-0.19-0.22-0.46-0.33-0.82-0.33c-0.38,0-0.65,0.1-0.83,0.3c-0.17,0.2-0.26,0.44-0.26,0.71c0,0.24,0.06,0.44,0.18,0.6
			c0.12,0.16,0.43,0.32,0.94,0.48c0.51,0.16,0.86,0.31,1.05,0.43c0.28,0.18,0.48,0.41,0.61,0.69c0.13,0.28,0.2,0.6,0.2,0.96
			c0,0.36-0.07,0.7-0.22,1.01c-0.14,0.32-0.35,0.56-0.62,0.74c-0.27,0.18-0.57,0.26-0.91,0.26c-0.43,0-0.79-0.09-1.08-0.27
			c-0.29-0.18-0.52-0.44-0.68-0.8C220.22,158.46,220.13,158.05,220.12,157.61z"/>
		<path class="st2" d="M230.68,80.59c0.15-1.04,7.15-14.15,7.15-14.15"/>
		<polyline class="st2" points="237.83,66.44 266.72,67.19 274.02,76.72 273.73,83.87 261.07,84.31 260.92,77.76 		"/>
		<path class="st2" d="M260.92,77.76c0-0.89,5.81-10.13,5.81-10.13"/>
		<line class="st2" x1="232.02" y1="83.27" x2="261.07" y2="84.31"/>
		<path class="st2" d="M236.05,70.31c1.04-0.15,28.15,0.89,28.15,0.89"/>
		<line class="st2" x1="234.56" y1="72.99" x2="262.85" y2="73.89"/>
		<line class="st2" x1="232.77" y1="76.12" x2="260.92" y2="77.76"/>
		<path class="st2" d="M274.02,76.72c0.3-1.04,5.96-3.72,5.96-3.72"/>
		<polyline class="st2" points="279.98,72.99 279.98,77.61 279.98,83.87 		"/>
		<path class="st2" d="M286.24,73.74l0.3,10.28L286.24,73.74z"/>
		<path class="st2" d="M280.01,78.22c0,0,0.27-0.17,0.57-0.61c0.3-0.45,5.51-3.57,5.51-3.57"/>
		<polyline class="st2" points="286.53,77.31 292.79,73.74 293.53,83.87 		"/>
		<polyline class="st2" points="295.92,75.38 300.09,73.14 299.94,84.76 		"/>
		<line class="st2" x1="273.51" y1="83.89" x2="300.38" y2="84.46"/>
		<path class="st4" d="M286.65,58.94l-0.18-0.52l-0.14-0.53l0.28-0.61l0.24-0.69l0.15-0.69l0.07-0.68l-0.02-0.68l-0.14-0.64
			l-0.23-0.6l-0.35-0.52l0.21,0.07l0.26,0.1l0.26,0.07l0.26,0.1l0.26,0.1l0.26,0.07l0.22,0.11l0.17,0.07l3.94,3.22l-0.05-0.53
			l-0.19-0.6l-0.23-0.6l-0.31-0.63l-0.35-0.59l-0.4-0.63l-0.44-0.55l-0.44-0.48l-0.22-0.14l-0.26-0.14l-0.39-0.14l-0.39-0.18
			l-0.43-0.17l-0.47-0.17l-0.43-0.14l-0.39-0.14l0.3-0.01l0.3-0.01l0.3-0.01l0.34,0.03l0.3-0.01l0.26,0.03l0.26-0.01l0.21,0.03
			l0-0.11L289,50.5l-0.01-0.3l0.04-0.19l0.32,0.82l0.38,0.06l0.39,0.1l0.43,0.17l0.47,0.21l0.43,0.21l0.43,0.17l0.43,0.17l0.38,0.1
			l-0.18-0.45l-0.4-0.52l-0.52-0.51l-0.65-0.47l-0.82-0.42l-0.9-0.31l-0.98-0.15l-1.11,0l0.25-0.31l0.29-0.27l0.33-0.2l0.42-0.2
			l0.46-0.13l0.47-0.06l0.55,0.02l0.55,0.06l-0.01-0.46l0.56,0.43l0.21,0.03l0.26,0.07l0.26,0.07l0.26,0.07l0.26,0.07l0.21,0.03
			l0.13,0.07l0.04,0l-0.79-1.07l-0.87-0.69l-0.9-0.35l-0.89-0.04l-0.85,0.14l-0.75,0.37l-0.63,0.48l-0.5,0.51l0.08-0.31l0.08-0.27
			l0.16-0.27l0.17-0.19l0.17-0.19l0.12-0.16l0.16-0.16l0.08-0.08l0.38-0.2l0.5-0.25l0.54-0.25l0.55-0.21l0.5-0.21l0.42-0.17
			l0.29-0.09l0.08-0.04l-0.47-0.1l-0.47-0.06l-0.47-0.1l-0.47-0.02l-0.47-0.06l-0.43,0.02l-0.46,0.02l-0.43,0.02l-0.21,0.12
			l-0.21,0.12l-0.17,0.16l-0.21,0.2l-0.21,0.27l-0.25,0.31l-0.33,0.35l-0.42,0.43l0.3-1.6l2.2-2.2l-0.55,0.06l-0.51,0.17l-0.55,0.17
			l-0.55,0.25l-0.46,0.28l-0.46,0.24l-0.38,0.28l-0.29,0.24l-0.08,0.12l-0.04,0.19l-0.08,0.23l-0.04,0.27l-0.03,0.34l-0.04,0.3
			l-0.03,0.27l0,0.26l-0.17-0.14l-0.17-0.14l-0.18-0.22l-0.22-0.22l-0.17-0.18l-0.17-0.22l-0.13-0.15l-0.13-0.11l-0.25,0.01
			l-0.38-0.02l-0.47-0.02l-0.51-0.02l-0.55,0.06l-0.59,0.06l-0.59,0.14l-0.55,0.21l0.09,0.03l0.21,0.03l0.34,0.06l0.38,0.1
			l0.47,0.13l0.47,0.13l0.51,0.13l0.43,0.14l0.18,0.18l0.13,0.19l0.17,0.14l0.13,0.15l0.13,0.15l0.17,0.14l0.13,0.11l0.17,0.07
			l-0.26-0.07l-0.3-0.03l-0.3-0.06l-0.34-0.06l-0.34-0.02l-0.3-0.03l-0.25,0.01L280.13,47l-0.55,0.21l-0.5,0.36l-0.41,0.39
			l-0.33,0.47l-0.29,0.43l-0.2,0.39l-0.12,0.23l-0.04,0.11l0.29-0.28l0.33-0.24l0.38-0.2l0.34-0.16l0.34-0.09l0.34-0.13l0.33-0.09
			l0.25-0.08l0.34,0.03l0.34,0.02l0.34,0.06l0.34,0.06l0.3,0.1l0.3,0.14l0.3,0.14l0.26,0.22l-0.3,0.01l-0.38,0.01l-0.34,0.05
			l-0.42,0.09l-0.38,0.09l-0.38,0.13l-0.38,0.16l-0.33,0.16l-0.41,0.47l-0.37,0.51l-0.33,0.54l-0.29,0.5l-0.2,0.46l-0.16,0.38
			l-0.08,0.27l-0.04,0.08l0.37-0.43l0.46-0.39l0.5-0.36l0.5-0.32l0.5-0.28l0.42-0.2l0.42-0.13l0.3-0.05l0.08-0.42l0.22,0.33
			l0.21-0.01l0.3,0.06l0.3,0.07l0.3,0.14l-0.47,0.09l-0.42,0.13l-0.38,0.17l-0.37,0.2l-0.3,0.2l-0.29,0.2l-0.29,0.2l-0.21,0.16
			l-0.24,0.39l-0.33,0.47l-0.28,0.54l-0.32,0.65l-0.24,0.73l-0.15,0.76l-0.07,0.87l0.11,0.9l0.2-0.35l0.2-0.35l0.16-0.35l0.16-0.27
			l0.12-0.27l0.12-0.27l0.12-0.19l0.12-0.19l-0.05-0.07l-0.04-0.15l-0.05-0.19l-0.05-0.15l0.13,0.07l0.13,0.03l0.13,0.03l0.05,0.04
			l0.24-0.35l0.29-0.35l0.33-0.31l0.33-0.32l0.38-0.32l0.37-0.28l0.38-0.28l0.38-0.24l-0.16,0.19l-0.17,0.2l-0.12,0.23l-0.12,0.19
			l-0.12,0.19l-0.08,0.23l-0.08,0.23l-0.08,0.23l0.01,0.49l0.01,0.6l0.06,0.68l0.14,0.71l0.19,0.75l0.27,0.75l0.36,0.67l0.44,0.63
			l-0.01-0.38l-0.01-0.41l0.03-0.42l0.03-0.42l0.03-0.45l0.03-0.42l0.03-0.45l0.08-0.42l0.03-0.42l0.08-0.42l0.07-0.38l0.07-0.38
			l0.12-0.35l0.08-0.34l0.08-0.3l0.12-0.27l0.05,0.23l0,0.23l0.05,0.23l0.05,0.26l0.26,0.07l-0.08,0.19l-0.04,0.23l-0.08,0.15
			l0,0.15l0.09,0.11l0.22,0.18l0.3,0.18l0.26,0.14l-0.04,0.08l-0.04,0.08l-0.04,0.08l-0.04,0.08l0.09,0.37l0.1,0.45l0.1,0.49
			l0.18,0.49l0.14,0.52l0.14,0.49L286.65,58.94z M286.03,58.86l-0.14-0.45l-0.14-0.45l-0.1-0.41l-0.09-0.41l-0.05-0.38l0.04-0.19
			l0.08-0.15l0.04-0.19l0.08-0.16l0.1,0.45l0.1,0.49l0.14,0.49l0.14,0.49l0.14,0.53l0.14,0.52L286.03,58.86z"/>
		<path class="st2" d="M286.65,58.94l-0.18-0.52l-0.14-0.53l0.28-0.61l0.24-0.69l0.15-0.69l0.07-0.68l-0.02-0.68l-0.14-0.64
			l-0.23-0.6l-0.35-0.52l0.21,0.07l0.26,0.1l0.26,0.07l0.26,0.1l0.26,0.1l0.26,0.07l0.22,0.11l0.17,0.07l3.94,3.22l-0.05-0.53
			l-0.19-0.6l-0.23-0.6l-0.31-0.63l-0.35-0.59l-0.4-0.63l-0.44-0.55l-0.44-0.48l-0.22-0.14l-0.26-0.14l-0.39-0.14l-0.39-0.18
			l-0.43-0.17l-0.47-0.17l-0.43-0.14l-0.39-0.14l0.3-0.01l0.3-0.01l0.29-0.01l0.34,0.03l0.3-0.01l0.26,0.03l0.26-0.01l0.21,0.03
			l0-0.11L289,50.5l-0.01-0.3l0.04-0.19l0.32,0.82l0.38,0.06l0.38,0.1l0.43,0.17l0.47,0.21l0.43,0.21l0.43,0.17l0.43,0.17l0.38,0.1
			l-0.18-0.45l-0.4-0.52l-0.52-0.51l-0.65-0.47l-0.82-0.42l-0.9-0.31l-0.98-0.15l-1.11,0l0.25-0.31l0.29-0.27l0.33-0.2l0.42-0.2
			l0.46-0.13l0.47-0.06l0.55,0.02l0.55,0.06l-0.01-0.46l0.56,0.43l0.21,0.03l0.26,0.07l0.26,0.07l0.26,0.07l0.26,0.07l0.21,0.03
			l0.13,0.07l0.04,0l-0.79-1.07l-0.87-0.69l-0.9-0.35l-0.89-0.04l-0.85,0.14l-0.75,0.37l-0.63,0.48l-0.5,0.51l0.08-0.31l0.08-0.27
			l0.16-0.27l0.17-0.19l0.17-0.19l0.12-0.16l0.16-0.16l0.08-0.08l0.38-0.2l0.5-0.25l0.54-0.25l0.55-0.21l0.5-0.21l0.42-0.17
			l0.29-0.09l0.08-0.04l-0.47-0.1l-0.47-0.06l-0.47-0.1l-0.47-0.02l-0.47-0.06l-0.43,0.02l-0.46,0.02l-0.43,0.02l-0.21,0.12
			l-0.21,0.12l-0.17,0.16l-0.21,0.2l-0.21,0.27l-0.25,0.31l-0.33,0.35l-0.42,0.43l0.3-1.6l2.2-2.2l-0.55,0.06l-0.51,0.17l-0.55,0.17
			l-0.55,0.25l-0.46,0.28l-0.46,0.24l-0.38,0.28l-0.29,0.24l-0.08,0.12l-0.04,0.19l-0.08,0.23l-0.04,0.27l-0.03,0.34l-0.04,0.3
			l-0.03,0.27l0,0.26l-0.17-0.14l-0.17-0.14l-0.18-0.22l-0.22-0.22l-0.17-0.18l-0.17-0.22l-0.13-0.15l-0.13-0.11l-0.25,0.01
			l-0.38-0.02l-0.47-0.02l-0.51-0.02l-0.55,0.06l-0.59,0.06l-0.59,0.14l-0.55,0.21l0.09,0.03l0.21,0.03l0.34,0.06l0.38,0.1
			l0.47,0.13l0.47,0.13l0.51,0.13l0.43,0.14l0.18,0.18l0.13,0.19l0.17,0.14l0.13,0.15l0.13,0.15l0.17,0.14l0.13,0.11l0.17,0.07
			l-0.26-0.07l-0.3-0.03l-0.3-0.06l-0.34-0.06l-0.34-0.02l-0.3-0.03l-0.26,0.01L280.13,47l-0.55,0.21l-0.5,0.36l-0.41,0.39
			l-0.33,0.47l-0.29,0.43l-0.2,0.39l-0.12,0.23l-0.04,0.11l0.29-0.28l0.33-0.24l0.38-0.2l0.34-0.16l0.34-0.09l0.34-0.13l0.33-0.09
			l0.25-0.08l0.34,0.03l0.34,0.02l0.34,0.06l0.34,0.06l0.3,0.1l0.3,0.14l0.3,0.14l0.26,0.22l-0.3,0.01l-0.38,0.01l-0.34,0.05
			l-0.42,0.09l-0.38,0.09l-0.38,0.13l-0.38,0.16l-0.33,0.16l-0.41,0.47l-0.37,0.51l-0.33,0.54l-0.29,0.5l-0.2,0.46l-0.16,0.38
			l-0.08,0.27l-0.04,0.08l0.37-0.43l0.46-0.39l0.5-0.36l0.5-0.32l0.5-0.28l0.42-0.2l0.42-0.13l0.3-0.05l0.08-0.42l0.22,0.33
			l0.21-0.01l0.3,0.06l0.3,0.07l0.3,0.14l-0.47,0.09l-0.42,0.13l-0.38,0.17l-0.37,0.2l-0.3,0.2l-0.29,0.2l-0.29,0.2l-0.21,0.16
			l-0.24,0.39l-0.33,0.47l-0.28,0.54l-0.32,0.65l-0.24,0.73l-0.15,0.76l-0.07,0.87l0.11,0.9l0.2-0.35l0.2-0.35l0.16-0.35l0.17-0.27
			l0.12-0.27l0.12-0.27l0.12-0.19l0.12-0.19l-0.05-0.07l-0.04-0.15l-0.05-0.19l-0.05-0.15l0.13,0.07l0.13,0.03l0.13,0.03l0.04,0.04
			l0.24-0.35l0.29-0.35l0.33-0.31l0.33-0.32l0.38-0.32l0.37-0.28l0.38-0.28l0.38-0.24l-0.16,0.19L282.48,53l-0.12,0.23l-0.12,0.2
			l-0.12,0.19l-0.08,0.23l-0.08,0.23l-0.08,0.23l0.01,0.49l0.01,0.6l0.06,0.68l0.14,0.71l0.19,0.75l0.27,0.75l0.36,0.67l0.44,0.63
			l-0.01-0.38l-0.01-0.41l0.03-0.42l0.03-0.42l0.03-0.45l0.03-0.42l0.03-0.45l0.08-0.42l0.03-0.42l0.08-0.42l0.07-0.38l0.07-0.38
			l0.12-0.35l0.08-0.34l0.08-0.3l0.12-0.27l0.05,0.23l0,0.23l0.05,0.23l0.05,0.26l0.26,0.07l-0.08,0.19l-0.04,0.23l-0.08,0.15
			l0,0.15l0.09,0.11l0.22,0.18l0.3,0.18l0.26,0.14l-0.04,0.08l-0.04,0.08l-0.04,0.08l-0.04,0.08l0.09,0.37l0.1,0.45l0.1,0.49
			l0.18,0.49l0.14,0.52l0.14,0.49L286.65,58.94z M286.03,58.86l-0.14-0.45l-0.14-0.45l-0.1-0.41l-0.09-0.41l-0.05-0.38l0.04-0.19
			l0.08-0.15l0.04-0.19l0.08-0.16l0.1,0.45l0.1,0.49l0.14,0.49l0.14,0.49l0.14,0.53l0.14,0.52L286.03,58.86z"/>
		<path class="st4" d="M292.14,72.11c-0.53-1.01-6.97-14.84-5.85-15.1l1.23-0.28c-1.47,1.69,13.8,30.67,15.1,28.5
			c0,0-1.32,2.26-1.32,2.26C301.28,87.51,296.27,79.96,292.14,72.11z"/>
		<path class="st2" d="M292.14,72.11c-0.53-1.01-6.97-14.84-5.85-15.1l1.23-0.28c-1.47,1.69,13.8,30.67,15.1,28.5
			c0,0-1.32,2.26-1.32,2.26C301.28,87.51,296.27,79.96,292.14,72.11z"/>
		<path class="st4" d="M316.94,70.73c1.29-0.16,2.39-0.95,2.93-1.84l-0.73-0.95c-0.5,1.03-1.59,1.5-2.29,1.59
			c-1.15,0.14-2.19-0.26-2.37-1.14c-0.16-0.97,0.43-1.37,1.31-1.51l1.19-0.17c1.72-0.25,2.34-1.4,2.19-2.68
			c-0.1-0.84-0.49-1.43-1.07-1.8c0.44-0.35,0.74-0.89,0.63-1.8c-0.14-1.15-1.31-2.55-3.41-2.3c-1.04,0.13-2.42,0.81-3.08,2.15
			l0.83,0.76c0.63-1.14,1.67-1.67,2.41-1.76c1.29-0.16,2.08,0.37,2.19,1.31c0.07,0.59-0.35,1.09-1.17,1.2l-3.75,0.46l0.15,1.2
			l3.75-0.46c0.83-0.1,1.36,0.42,1.44,1.09c0.09,0.73-0.29,1.26-1.46,1.44l-1.1,0.16c-1.38,0.2-2.35,1.06-2.15,2.67
			C313.63,70.42,315.64,70.89,316.94,70.73 M311.96,54.59l-0.89-2.21c1.92,0.93,2.82,0.66,3.34,0.44c0.5-0.2,0.81-0.59,0.95-0.92
			c0.21,0.98-0.45,1.49-1.95,2.1L311.96,54.59z M314,51.77c-0.75,0.3-1.77,0.18-3.29-0.72l1.61-0.65c1.36-0.55,2.07-0.46,2.34,0.19
			C314.89,51.09,314.54,51.55,314,51.77z M311.45,56.1l2.41-0.97c2.47-1,3.01-2.37,2.27-4.2c-0.34-0.85-0.86-1.57-1.67-1.85
			c-0.84-0.3-1.36-0.3-3.43,0.54l-1.88,0.76L311.45,56.1z M307.29,42.36c-0.65,0.47-1.38,0.6-1.82-0.01
			c-0.27-0.37-0.07-1.05,0.64-1.56c0.65-0.47,1.61-0.56,2.33-0.4C308.31,41.32,307.96,41.87,307.29,42.36z M309.88,45.08
			c1.21-0.88,2.07-2.67,0.84-4.36c-0.35-0.48-0.71-0.83-1.21-1.06c-0.02-0.27-0.1-0.74-0.45-1.22c-1.34-1.84-3.44-1.52-4.54-0.73
			c-1.05,0.76-1.58,1.9-1.67,3.08l1.06,0.42c-0.08-1.11,0.6-2.06,1.24-2.52c0.98-0.71,2.37-0.64,2.92,0.11
			c0.16,0.22,0.25,0.39,0.3,0.48c-0.99-0.19-2.11-0.02-2.93,0.58c-1.19,0.86-1.44,2.29-0.82,3.14c0.85,1.18,2.34,1.09,3.36,0.35
			c0.64-0.46,1.38-1.27,1.54-2.48c0.09,0.07,0.21,0.2,0.3,0.32c0.75,1.03,0.26,2.3-0.69,2.99c-0.63,0.46-1.75,0.8-2.79,0.39
			l0.09,1.16C307.56,45.98,308.83,45.85,309.88,45.08z M301.67,30.07c-0.15,0.17-0.42,0.26-0.65,0.07c-0.15-0.13-0.2-0.39,0.03-0.67
			c0.17-0.21,0.51-0.25,0.59-0.26C301.96,29.46,301.83,29.88,301.67,30.07z M299.33,36.89l4.19-4.99c0.87-1.04,0.78-2.18-0.06-3
			c-0.92-0.9-2.36-0.91-3.1-0.04c-0.59,0.7-0.46,1.49,0.16,2.01c0.65,0.54,1.42,0.4,1.86-0.13c0.56-0.67,0.29-1.29,0.29-1.29
			s0.22,0.15,0.36,0.43c0.17,0.33-0.03,0.76-0.58,1.41l-4.04,4.82L299.33,36.89z M296.18,29.88c0.55-0.99,0.73-2.45,0.08-3.81
			l-1.12,0.27c0.52,1.18,0.35,2.36-0.01,3.01c-0.64,1.15-1.55,1.48-2.37,1.02c-0.51-0.28-0.66-0.93-0.25-1.67l1.86-3.36l-1.06-0.59
			l-1.86,3.36c-0.41,0.74-1.06,0.93-1.68,0.59c-0.63-0.35-0.98-1.37-0.35-2.51c0.36-0.65,1.27-1.42,2.57-1.58l-0.37-1.11
			c-1.51,0.16-2.64,1.1-3.19,2.09c-1.15,2.07-0.24,3.45,0.84,4.05c0.75,0.42,1.36,0.4,1.97,0.12c0.03,0.58,0.27,1.12,1.06,1.56
			C293.41,31.93,295.03,31.95,296.18,29.88z M283.56,26.61l1.38-5.99l-1.18-0.27l-1.15,4.97l-2.82-0.65
			c0.37-0.29,0.86-1.02,1.04-1.82c0.39-1.68-0.47-3.38-2.28-3.8c-1.88-0.43-3.45,0.91-3.8,2.42c-0.3,1.28,0.04,2.47,1.25,3.5
			l0.81-0.67c-0.86-0.84-1.15-1.53-0.92-2.56c0.27-1.18,1.3-1.93,2.37-1.68c1.18,0.27,1.64,1.48,1.4,2.52
			c-0.21,0.89-0.81,1.62-1.59,1.86l-0.19,0.84L283.56,26.61z M271.71,20.96c0.03-1.61-0.69-3.12-2.34-3.14
			c-1.52-0.03-2.39,1.06-2.42,2.62l1.11,0.02c0.02-1.27,0.59-1.61,1.27-1.6c0.9,0.02,1.24,0.99,1.22,2.08
			c-0.02,1.24-0.35,2.15-1.38,2.13c-0.59-0.01-1.11-0.39-1.09-1.43l-1.13-0.02c-0.03,1.79,1.01,2.49,2.18,2.51
			C271.04,24.16,271.68,22.68,271.71,20.96z M263.89,20.74c-0.41-2.33-1.93-2.84-3.17-2.62c-0.89,0.16-1.33,0.59-1.55,1.13
			c-0.48-0.46-1.04-0.68-1.88-0.53c-1.22,0.22-2.53,1.22-2.12,3.55c0.2,1.11,0.97,2.35,2.35,3l0.68-0.91
			c-1.2-0.56-1.76-1.59-1.89-2.33c-0.23-1.29,0.44-2.14,1.15-2.26c0.68-0.12,1.25,0.27,1.4,1.1l0.67,3.82l1.19-0.21l-0.67-3.82
			c-0.15-0.83,0.23-1.4,0.81-1.5c0.92-0.16,1.66,0.45,1.88,1.74c0.13,0.74-0.02,1.98-0.94,2.86l0.92,0.61
			C263.78,23.29,264.09,21.85,263.89,20.74z M248.57,28.01l-2.52-5.95c-0.55-1.3-1.58-1.7-2.62-1.26c-1.14,0.49-1.49,1.61-1,2.77
			l1.07-0.45c-0.25-0.6-0.26-1.13,0.29-1.37c0.61-0.26,0.89,0.19,1.19,0.89l2.48,5.84L248.57,28.01z M245.01,29.72l-3.07-5.33
			L240.89,25l2.55,4.42l-1.12,0.65l0.52,0.9L245.01,29.72z M238.63,29.45c-0.89-0.95-2.17-1.37-3.21-1.29l-0.34,1.15
			c1.12-0.2,2.15,0.4,2.63,0.92c0.79,0.85,1.08,1.92,0.47,2.59c-0.69,0.7-1.36,0.46-1.99-0.17l-0.84-0.86
			c-1.21-1.24-2.51-1.08-3.46-0.19c-0.62,0.58-0.87,1.24-0.83,1.93c-0.54-0.15-1.15-0.08-1.82,0.54c-0.85,0.79-1.3,2.56,0.15,4.11
			c0.71,0.76,2.07,1.48,3.55,1.22l0.13-1.12c-1.29,0.16-2.33-0.37-2.84-0.92c-0.89-0.95-0.92-1.9-0.23-2.54
			c0.43-0.4,1.09-0.36,1.66,0.25l2.58,2.76l0.89-0.83l-2.58-2.76c-0.57-0.61-0.46-1.34,0.03-1.81c0.54-0.5,1.19-0.51,2.02,0.33
			l0.78,0.8c0.97,1,2.23,1.28,3.42,0.17C240.33,32.3,239.53,30.41,238.63,29.45z M228.76,42.76c0.22,0.13,0.16,0.44,0.04,0.65
			c-0.13,0.22-0.38,0.33-0.55,0.23c-0.22-0.13-0.21-0.42-0.08-0.64C228.3,42.79,228.56,42.64,228.76,42.76z M222.65,46.05
			c0.22,0.13,0.19,0.39,0.08,0.58c-0.11,0.18-0.32,0.37-0.59,0.21c-0.23-0.14-0.22-0.43-0.1-0.62
			C222.17,46.01,222.44,45.92,222.65,46.05z M229.24,41.88c-0.62-0.37-1.21-0.09-1.7,0.72c-0.31,0.52-0.81,1.65-1.02,2.9
			c-0.21,1.26-0.7,3.13-1.53,2.63c-0.56-0.33-0.07-1.36,0.56-2.41l0.73-1.22c1.15-1.91,1.33-3.55-0.02-4.35
			c-1.21-0.73-2.29,0.03-2.83,0.93c-0.6,0.99-0.42,1.74-0.31,2.05c-0.41,0.11-1.2,0.44-1.73,1.33c-0.68,1.14-0.84,2.6,0.24,3.25
			c0.63,0.38,1.39,0.08,1.84-0.67c0.28-0.47,0.55-1.36-0.16-1.79c-0.79-0.47-1.3,0.19-1.3,0.19c0.03-0.24,0.04-0.32,0.14-0.48
			c0.35-0.58,1.06-1.03,1.76-0.6l0.7,0.42l0.63-1.05l-0.8-0.48c-0.57-0.34-0.53-0.93-0.18-1.51c0.35-0.58,0.96-0.84,1.48-0.52
			c0.69,0.41,0.53,1.39-0.2,2.61l-0.89,1.48c-1.18,1.97-1.22,3.3-0.29,3.86c0.87,0.52,1.77,0.04,2.32-0.86
			c0.35-0.58,0.63-1.46,0.77-2.43c0.1-0.6,0.21-1.19,0.25-1.54c0.05,0.03,0.08,0.05,0.12,0.07c0.58,0.35,1.21,0.05,1.64-0.66
			C229.84,43.08,229.95,42.31,229.24,41.88z M220.95,55.12c0.77,0.22,1.32,0.72,1.11,1.43c-0.12,0.43-0.79,0.7-1.63,0.46
			c-0.77-0.22-1.44-0.93-1.75-1.59C219.5,54.95,220.15,54.89,220.95,55.12z M221.5,51.4c-1.44-0.41-3.38,0.01-3.95,2.02
			c-0.16,0.57-0.22,1.07-0.09,1.6c-0.2,0.18-0.52,0.54-0.68,1.11c-0.63,2.18,0.92,3.65,2.22,4.03c1.25,0.36,2.47,0.08,3.46-0.58
			l-0.32-1.09c-0.83,0.75-1.99,0.79-2.75,0.58c-1.17-0.33-1.97-1.47-1.71-2.37c0.07-0.26,0.16-0.44,0.2-0.53
			c0.46,0.9,1.28,1.67,2.26,1.95c1.41,0.4,2.69-0.27,2.98-1.29c0.4-1.4-0.59-2.52-1.79-2.86c-0.76-0.22-1.85-0.31-2.91,0.31
			c0-0.12,0.02-0.29,0.07-0.44c0.35-1.22,1.65-1.62,2.78-1.3c0.75,0.21,1.71,0.89,2.02,1.96l0.86-0.78
			C223.63,52.67,222.75,51.76,221.5,51.4z M219.98,64.35c0.25,0.02,0.51,0.3,0.48,0.61c-0.16,0.21-0.39,0.29-0.55,0.28
			c-0.34-0.03-0.43-0.29-0.41-0.46C219.53,64.5,219.72,64.32,219.98,64.35z M216.84,64.07c0.27,0.02,0.42,0.24,0.4,0.5
			c-0.01,0.17-0.15,0.41-0.49,0.38c-0.15-0.01-0.37-0.13-0.49-0.37C216.28,64.28,216.58,64.05,216.84,64.07z M220.13,63.32
			c-0.87-0.08-1.4,0.47-1.48,1.34c-0.08,0.9,0.29,1.5,1.16,1.57c0.45,0.04,0.71-0.22,0.65-0.13c0,0-0.47,1.63-2.38,1.46
			c-1.88-0.16-2.03-1.85-2.03-1.85c-0.05-0.1,0.17,0.2,0.62,0.24c0.87,0.08,1.34-0.45,1.42-1.35c0.08-0.87-0.35-1.5-1.22-1.58
			c-0.9-0.08-1.59,0.74-1.72,2.24c-0.16,1.78,1,3.29,2.83,3.45c1.76,0.15,3.31-1.11,3.47-2.9C221.57,64.33,221.03,63.4,220.13,63.32
			z"/>
		<path class="st2" d="M244.41,99.22c-9.4-6.96-15.48-18.05-15.48-30.53c0-21.08,17.34-38.17,38.72-38.17
			c21.39,0,38.72,17.09,38.72,38.17c0,11.72-5.36,22.2-13.79,29.2"/>
		<polygon class="st1" points="305.11,64.51 307.27,64.15 307.28,71.77 305.16,72.11 		"/>
		<path class="st4" d="M309.67,68.42c-0.59,0.05-1.1-0.14-1.15-0.69c-0.03-0.33,0.36-0.69,1-0.75c0.59-0.05,1.24,0.25,1.63,0.63
			C310.71,68.15,310.28,68.37,309.67,68.42 M310.28,71.13c1.1-0.1,2.32-0.91,2.18-2.45c-0.04-0.44-0.13-0.79-0.36-1.13
			c0.09-0.18,0.22-0.51,0.18-0.95c-0.15-1.67-1.61-2.27-2.61-2.18c-0.96,0.09-1.73,0.61-2.23,1.32l0.51,0.67
			c0.37-0.74,1.16-1.08,1.74-1.13c0.89-0.08,1.75,0.49,1.81,1.17c0.02,0.2,0.01,0.34,0.01,0.42c-0.56-0.49-1.33-0.81-2.08-0.74
			c-1.08,0.1-1.78,0.91-1.71,1.68c0.1,1.07,1.08,1.58,2,1.49c0.58-0.05,1.36-0.28,1.92-0.99c0.03,0.08,0.06,0.2,0.07,0.32
			c0.08,0.93-0.71,1.56-1.57,1.64c-0.57,0.05-1.42-0.15-1.92-0.81l-0.38,0.77C308.47,70.83,309.33,71.22,310.28,71.13z"/>
		<path class="st5" d="M308.22,69.97c-1.62-0.82-0.79-4.91-2.24-4.75c-1.24,0.14-0.04,3.37,0.12,6.17"/>
		<polyline class="st6" points="254.98,103.57 248.94,96.7 257.15,99.44 252.06,91.68 259.63,96.39 258.55,87.76 263.25,95.48 
			264.88,86.75 266.65,95 269.82,87.57 270.21,95.26 275.14,89.24 273.14,97.1 280.07,92.75 276.01,99.99 283.9,96.66 
			278.16,103.88 		"/>
	</g>
</g>
<g>
</g>
<g>
</g>
<g>
</g>
<g>
</g>
<g>
</g>
<g>
</g>
<g>
</g>
<g>
</g>
<g>
</g>
<g>
</g>
<g>
</g>
<g>
</g>
<g>
</g>
<g>
</g>
<g>
</g>
</svg>
