<?xml version="1.0" encoding="utf-8"?>
<!-- Generator: Adobe Illustrator 26.3.1, SVG Export Plug-In . SVG Version: 6.00 Build 0)  -->
<svg version="1.1" id="Layer_1" xmlns="http://www.w3.org/2000/svg" xmlns:xlink="http://www.w3.org/1999/xlink" x="0px" y="0px"
	 viewBox="0 0 457.64 115.87" style="enable-background:new 0 0 457.64 115.87;" xml:space="preserve">
<style type="text/css">
	.st0{fill:#E12428;}
	.st1{fill-rule:evenodd;clip-rule:evenodd;fill:#FFFFFF;}
	.st2{fill:none;stroke:#E12428;stroke-miterlimit:2.6131;}
	.st3{fill-rule:evenodd;clip-rule:evenodd;fill:#E12428;}
</style>
<g>
	<g>
		<path class="st0" d="M50.79,79.26c0-5.12,3.2-8.16,7.16-8.16c1.96,0,3.52,0.94,4.5,1.98l-1.48,1.79c-0.8-0.8-1.74-1.36-2.96-1.36
			c-2.54,0-4.37,2.15-4.37,5.66c0,3.57,1.68,5.73,4.3,5.73c1.39,0,2.46-0.64,3.34-1.61l1.48,1.74c-1.27,1.47-2.9,2.28-4.93,2.28
			C53.91,87.31,50.79,84.43,50.79,79.26z"/>
		<path class="st0" d="M67.12,79.14c0-5.06,2.82-8.04,6.9-8.04s6.9,3,6.9,8.04c0,5.06-2.82,8.17-6.9,8.17S67.12,84.2,67.12,79.14z
			 M78.06,79.14c0-3.51-1.59-5.63-4.05-5.63s-4.05,2.12-4.05,5.63c0,3.51,1.59,5.76,4.05,5.76S78.06,82.65,78.06,79.14z"/>
		<path class="st0" d="M86.58,79.26c0-5.12,3.2-8.16,7.16-8.16c1.96,0,3.52,0.94,4.5,1.98l-1.48,1.79c-0.8-0.8-1.74-1.36-2.96-1.36
			c-2.54,0-4.37,2.15-4.37,5.66c0,3.57,1.68,5.73,4.3,5.73c1.39,0,2.46-0.64,3.34-1.61l1.48,1.74c-1.27,1.47-2.9,2.28-4.93,2.28
			C89.7,87.31,86.58,84.43,86.58,79.26z"/>
		<path class="st0" d="M104.52,71.39h2.77v6.28h6.32v-6.28h2.77v15.64h-2.77v-6.93h-6.32v6.93h-2.77V71.39z"/>
		<path class="st0" d="M123.71,71.39h2.77v15.64h-2.77V71.39z"/>
		<path class="st0" d="M133.8,71.39h2.85l4.86,8.79l1.62,3.34h0.1c-0.13-1.62-0.35-3.6-0.35-5.34v-6.79h2.64v15.64h-2.85l-4.86-8.8
			l-1.62-3.32h-0.1c0.13,1.65,0.35,3.54,0.35,5.28v6.85h-2.64V71.39z"/>
		<path class="st0" d="M160.88,80.17v-8.78h2.77v8.99c0,3.4,1.27,4.52,3.17,4.52c1.91,0,3.23-1.12,3.23-4.52v-8.99h2.67v8.78
			c0,5.14-2.28,7.14-5.9,7.14S160.88,85.3,160.88,80.17z"/>
		<path class="st0" d="M179.96,71.39h2.85l4.86,8.79l1.62,3.34h0.1c-0.13-1.62-0.35-3.6-0.35-5.34v-6.79h2.64v15.64h-2.85l-4.86-8.8
			l-1.62-3.32h-0.1c0.13,1.65,0.35,3.54,0.35,5.28v6.85h-2.64V71.39z"/>
		<path class="st0" d="M198.99,71.39h2.77v15.64h-2.77V71.39z"/>
		<path class="st0" d="M207,71.39h2.94l2.2,7.86c0.51,1.77,0.85,3.31,1.38,5.09h0.1c0.53-1.78,0.88-3.31,1.38-5.09l2.17-7.86h2.83
			l-4.84,15.64h-3.29L207,71.39z"/>
		<path class="st0" d="M225.1,71.39h9.41v2.33h-6.64v4.01h5.62v2.33h-5.62v4.63h6.88v2.33h-9.65V71.39z"/>
		<path class="st0" d="M241.3,71.39h5.27c3.25,0,5.76,1.15,5.76,4.64c0,3.36-2.51,4.89-5.76,4.89h-2.5v6.11h-2.77V71.39z
			 M246.29,78.69c2.14,0,3.31-0.89,3.31-2.67c0-1.8-1.17-2.42-3.31-2.42h-2.21v5.09H246.29z M246.05,80.17l2.01-1.65l4.88,8.51
			h-3.12L246.05,80.17z"/>
		<path class="st0" d="M257.4,85.02l1.62-1.9c1.12,1.07,2.62,1.78,4.07,1.78c1.76,0,2.73-0.8,2.73-2.02c0-1.29-1.01-1.7-2.43-2.3
			l-2.14-0.93c-1.54-0.64-3.16-1.86-3.16-4.15c0-2.49,2.2-4.41,5.25-4.41c1.83,0,3.6,0.75,4.82,1.99l-1.42,1.76
			c-1-0.85-2.06-1.34-3.4-1.34c-1.48,0-2.45,0.69-2.45,1.84c0,1.23,1.19,1.68,2.49,2.21l2.11,0.88c1.86,0.78,3.16,1.95,3.16,4.22
			c0,2.54-2.1,4.65-5.61,4.65C260.92,87.31,258.88,86.48,257.4,85.02z"/>
		<path class="st0" d="M274.84,71.39h2.77v15.64h-2.77V71.39z"/>
		<path class="st0" d="M288.09,73.72h-4.51v-2.33h11.8v2.33h-4.51v13.3h-2.77V73.72z"/>
		<path class="st0" d="M303.56,81.21l-4.71-9.82h2.96l1.7,4c0.46,1.16,0.9,2.25,1.39,3.44h0.1c0.49-1.19,0.98-2.28,1.44-3.44l1.7-4
			h2.89l-4.71,9.82v5.81h-2.77V81.21z"/>
		<path class="st0" d="M323.15,79.14c0-5.06,2.82-8.04,6.9-8.04s6.9,3,6.9,8.04c0,5.06-2.82,8.17-6.9,8.17S323.15,84.2,323.15,79.14
			z M334.09,79.14c0-3.51-1.59-5.63-4.05-5.63S326,75.63,326,79.14c0,3.51,1.59,5.76,4.05,5.76S334.09,82.65,334.09,79.14z"/>
		<path class="st0" d="M343.43,71.39h9.45v2.33h-6.68v4.44h5.68v2.33h-5.68v6.53h-2.77V71.39z"/>
		<path class="st0" d="M0.92,106.99l1.62-1.9c1.12,1.07,2.62,1.78,4.07,1.78c1.76,0,2.73-0.8,2.73-2.02c0-1.29-1.01-1.7-2.43-2.3
			l-2.14-0.93c-1.54-0.64-3.16-1.86-3.16-4.15c0-2.49,2.2-4.41,5.25-4.41c1.83,0,3.6,0.75,4.82,1.99l-1.42,1.76
			c-1-0.85-2.06-1.34-3.4-1.34c-1.48,0-2.45,0.69-2.45,1.84c0,1.23,1.19,1.68,2.49,2.21L9,100.41c1.86,0.78,3.16,1.95,3.16,4.22
			c0,2.54-2.1,4.65-5.61,4.65C4.44,109.28,2.4,108.44,0.92,106.99z"/>
		<path class="st0" d="M17.54,101.22c0-5.12,3.2-8.16,7.16-8.16c1.96,0,3.52,0.94,4.5,1.98l-1.48,1.79c-0.8-0.8-1.74-1.36-2.96-1.36
			c-2.54,0-4.37,2.15-4.37,5.66c0,3.57,1.68,5.73,4.3,5.73c1.39,0,2.46-0.64,3.34-1.61l1.48,1.74c-1.27,1.47-2.9,2.28-4.93,2.28
			C20.66,109.28,17.54,106.4,17.54,101.22z"/>
		<path class="st0" d="M35.48,93.35h2.77v15.64h-2.77V93.35z"/>
		<path class="st0" d="M45.57,93.35h9.41v2.33h-6.64v4.01h5.62v2.33h-5.62v4.63h6.88v2.33h-9.65V93.35z"/>
		<path class="st0" d="M61.78,93.35h2.85l4.86,8.79l1.62,3.34h0.1c-0.13-1.62-0.35-3.6-0.35-5.34v-6.79h2.64v15.64h-2.85l-4.86-8.8
			l-1.62-3.32h-0.1c0.13,1.65,0.35,3.54,0.35,5.28v6.85h-2.64V93.35z"/>
		<path class="st0" d="M79.98,101.22c0-5.12,3.2-8.16,7.16-8.16c1.96,0,3.52,0.94,4.5,1.98l-1.48,1.79c-0.8-0.8-1.74-1.36-2.96-1.36
			c-2.54,0-4.37,2.15-4.37,5.66c0,3.57,1.68,5.73,4.3,5.73c1.39,0,2.46-0.64,3.34-1.61l1.48,1.74c-1.27,1.47-2.9,2.28-4.93,2.28
			C83.1,109.28,79.98,106.4,79.98,101.22z"/>
		<path class="st0" d="M97.92,93.35h9.41v2.33h-6.64v4.01h5.62v2.33h-5.62v4.63h6.88v2.33h-9.65V93.35z"/>
		<path class="st0" d="M125.32,93.35h3.25l5.1,15.64h-2.94l-2.38-8.32c-0.5-1.66-0.96-3.44-1.42-5.16h-0.1
			c-0.43,1.73-0.89,3.5-1.39,5.16l-2.4,8.32h-2.83L125.32,93.35z M123.23,102.58h7.36v2.18h-7.36V102.58z"/>
		<path class="st0" d="M138.8,93.35h2.85l4.86,8.79l1.62,3.34h0.1c-0.13-1.62-0.35-3.6-0.35-5.34v-6.79h2.64v15.64h-2.85l-4.86-8.8
			l-1.62-3.32h-0.1c0.13,1.65,0.35,3.54,0.35,5.28v6.85h-2.64V93.35z"/>
		<path class="st0" d="M157.83,93.35H162c4.79,0,7.62,2.58,7.62,7.76c0,5.17-2.83,7.88-7.48,7.88h-4.31V93.35z M161.82,106.74
			c3.15,0,4.95-1.79,4.95-5.63s-1.81-5.51-4.95-5.51h-1.21v11.14H161.82z"/>
		<path class="st0" d="M187.4,95.69h-4.51v-2.33h11.8v2.33h-4.51v13.3h-2.77V95.69z"/>
		<path class="st0" d="M200.64,93.35h9.41v2.33h-6.64v4.01h5.62v2.33h-5.62v4.63h6.88v2.33h-9.65V93.35z"/>
		<path class="st0" d="M216.03,101.22c0-5.12,3.2-8.16,7.16-8.16c1.96,0,3.52,0.94,4.5,1.98l-1.48,1.79
			c-0.8-0.8-1.74-1.36-2.96-1.36c-2.54,0-4.37,2.15-4.37,5.66c0,3.57,1.68,5.73,4.3,5.73c1.39,0,2.46-0.64,3.34-1.61L228,107
			c-1.27,1.47-2.9,2.28-4.93,2.28C219.14,109.28,216.03,106.4,216.03,101.22z"/>
		<path class="st0" d="M233.96,93.35h2.77v6.28h6.32v-6.28h2.77v15.64h-2.77v-6.93h-6.32v6.93h-2.77V93.35z"/>
		<path class="st0" d="M253.16,93.35h2.85l4.86,8.79l1.62,3.34h0.1c-0.13-1.62-0.35-3.6-0.35-5.34v-6.79h2.64v15.64h-2.85l-4.86-8.8
			l-1.62-3.32h-0.1c0.13,1.65,0.35,3.54,0.35,5.28v6.85h-2.64V93.35z"/>
		<path class="st0" d="M271.37,101.11c0-5.06,2.82-8.04,6.9-8.04s6.9,3,6.9,8.04c0,5.06-2.82,8.17-6.9,8.17
			S271.37,106.17,271.37,101.11z M282.31,101.11c0-3.51-1.59-5.63-4.05-5.63s-4.05,2.12-4.05,5.63c0,3.51,1.59,5.76,4.05,5.76
			S282.31,104.62,282.31,101.11z"/>
		<path class="st0" d="M291.65,93.35h2.77v13.3h6.49v2.33h-9.27V93.35z"/>
		<path class="st0" d="M305.43,101.11c0-5.06,2.82-8.04,6.9-8.04s6.9,3,6.9,8.04c0,5.06-2.82,8.17-6.9,8.17
			S305.43,106.17,305.43,101.11z M316.37,101.11c0-3.51-1.59-5.63-4.05-5.63s-4.05,2.12-4.05,5.63c0,3.51,1.59,5.76,4.05,5.76
			S316.37,104.62,316.37,101.11z"/>
		<path class="st0" d="M324.89,101.22c0-5.12,3.24-8.16,7.4-8.16c2.22,0,3.74,0.98,4.72,1.98l-1.48,1.79
			c-0.78-0.76-1.7-1.36-3.16-1.36c-2.77,0-4.64,2.15-4.64,5.66c0,3.57,1.66,5.73,4.79,5.73c0.87,0,1.73-0.25,2.23-0.69v-3.38h-2.95
			v-2.28h5.43v6.9c-1.04,1.05-2.85,1.86-4.99,1.86C328.04,109.28,324.89,106.4,324.89,101.22z"/>
		<path class="st0" d="M346.68,103.18l-4.71-9.82h2.96l1.7,4c0.46,1.16,0.9,2.25,1.39,3.44h0.1c0.49-1.19,0.98-2.28,1.44-3.44l1.7-4
			h2.89l-4.71,9.82v5.81h-2.77V103.18z"/>
	</g>
	<g>
		<path class="st1" d="M395.95,81.79l-16.83-5.9l5.9-5.61c-23.47-30.2-1.82-66.63,31.29-66.13c30.21,1.82,52.75,34.68,26.86,67.31
			l4.72,5.61l-18.6,6.49h12.4l10.92,6.79l-0.3,18.01h-76.46l0.3-18.6l10.63-6.79L395.95,81.79z"/>
		<path class="st2" d="M408.76,43.12c0.45-1.98,0.96-2.3,6.48-25.15"/>
		<polyline class="st2" points="415.24,18.21 417.25,18.21 422.42,47.85 		"/>
		<polyline class="st2" points="417.28,18.1 414.81,20.72 418.15,23.54 413.8,25.73 418.77,29.07 411.99,32.2 420.65,38.46 		"/>
		<path class="st2" d="M420.65,38.46c-0.54-0.23-11.58,3.96-11.58,3.96"/>
		<polyline class="st2" points="415.24,17.97 417.94,20.72 414.08,23.33 417.83,25.73 412.94,28.89 418.69,33.2 411.16,37 		"/>
		<path class="st2" d="M411.16,37c0,0,10.35,6.75,10.64,7.62"/>
		<path class="st2" d="M395.9,42.04c0-2.01,1.04-14.65,1.04-14.65"/>
		<polyline class="st2" points="396.94,27.39 397.52,42.05 395.9,42.04 		"/>
		<path class="st2" d="M396.66,27.29c0.06,0.17,0.24,0.38,0.5,0.42c0.05,0.01,1.13-0.54,1.54-0.52c1.96,0.08,4.9,0.86,6.19-1.22
			c0.01-0.02-1.5,0.26-1.66,0.3c-1.04,0.26-1.82,0.18-2.89,0.04c-0.9-0.11-1.64,0.1-2.53,0.23c-0.53,0.08-0.91,0.34-1.21,0.69"/>
		<path class="st2" d="M407.38,20.46c-1.45,0.16-0.09,0.29-1.73,0.13c1.22,0,4.13-0.25,4.13-0.25"/>
		<polyline class="st2" points="409.78,20.34 409.97,20.85 412.51,20.1 413.11,20.66 413.03,21.35 418.1,20.85 419.25,21.17 
			420.98,20.85 422.45,20.98 422.83,21.36 423.99,20.98 427.7,21.04 		"/>
		<polyline class="st2" points="401.72,22.13 404.92,22.32 404.98,22.77 408.37,22.39 407.41,22.9 412.02,22.51 411.85,23.51 
			413.87,22.71 		"/>
		<polyline class="st2" points="418.42,23.22 421.87,23.09 421.75,23.6 425.27,23.15 425.14,23.73 429.49,23.28 429.04,23.92 
			431.6,23.6 		"/>
		<polyline class="st2" points="398.9,24.11 401.59,24.31 401.33,24.75 404.6,24.31 404.6,24.95 408.69,24.37 408.56,25.01 
			413.14,24.38 		"/>
		<polyline class="st2" points="418.87,25.39 421.17,25.39 420.98,25.84 424.24,25.2 423.73,25.84 428.02,25.33 427.63,26.03 
			430.45,25.59 430.58,26.16 433.91,25.78 		"/>
		<path class="st2" d="M385.36,70.02c-6.42-6.86-10.02-17.11-10.02-26.41c0-21.8,17.67-39.47,39.47-39.47
			c21.8,0,39.47,17.67,39.47,39.47c0,11-4.5,20.96-11.77,28.12"/>
		<polygon class="st2" points="394.52,62.39 414.96,71.49 435.03,62.7 447.6,76.66 414.7,88.77 379.32,75.73 		"/>
		<line class="st2" x1="414.7" y1="88.77" x2="414.86" y2="71.54"/>
		<path class="st2" d="M385.71,69.9l-3.03,5.07c11.8,3.52,21.38,7.97,32.07,13.15c10.18-5.45,19-9.9,29.73-12.58l-1.47-4.17"/>
		<polyline class="st2" points="398.43,82.77 386.76,82.72 376.09,89.82 452.86,90.29 442.02,83.49 430.3,83.23 		"/>
		<polyline class="st2" points="375.99,89.39 375.57,108.59 452.73,108.48 452.64,89.77 		"/>
		<path class="st2" d="M396.17,65.41c-0.24-0.16-0.69-0.46-0.93-0.62"/>
		<path class="st2" d="M394.62,66.79c-0.24-0.16-0.69-0.46-0.93-0.62"/>
		<path class="st2" d="M396.63,68.22c-0.24-0.16-0.69-0.46-0.93-0.62"/>
		<path class="st2" d="M398.63,69.14c-0.24-0.16-0.69-0.46-0.93-0.62"/>
		<path class="st2" d="M400.59,70.06c-0.24-0.16-0.69-0.46-0.93-0.62"/>
		<path class="st2" d="M398.35,71.84c-0.24-0.16-0.69-0.46-0.93-0.62"/>
		<path class="st2" d="M395.99,70.81c-0.24-0.16-0.69-0.46-0.93-0.62"/>
		<path class="st2" d="M393.87,69.72c-0.24-0.16-0.69-0.46-0.93-0.62"/>
		<path class="st2" d="M392.49,68.63c-0.24-0.16-0.69-0.46-0.93-0.62"/>
		<path class="st2" d="M391,71.04c-0.24-0.16-0.69-0.46-0.93-0.62"/>
		<path class="st2" d="M393.12,71.73c-0.24-0.16-0.69-0.46-0.93-0.62"/>
		<path class="st2" d="M394.96,72.76c-0.24-0.16-0.69-0.46-0.93-0.62"/>
		<path class="st2" d="M397.2,73.68c-0.24-0.16-0.69-0.46-0.93-0.62"/>
		<path class="st2" d="M399.05,74.39c-0.16-0.11-0.45-0.33-0.6-0.44"/>
		<path class="st2" d="M388.8,72c-0.24-0.16-0.69-0.46-0.93-0.62"/>
		<path class="st2" d="M390.49,70.44c-0.24-0.16-0.69-0.46-0.93-0.62"/>
		<path class="st2" d="M386.92,73.98c-0.24-0.16-0.69-0.46-0.93-0.62"/>
		<path class="st2" d="M390.02,75.74c-0.24-0.16-0.69-0.46-0.93-0.62"/>
		<path class="st2" d="M393.87,77.12c-0.24-0.16-0.69-0.46-0.93-0.62"/>
		<path class="st2" d="M396.91,78.44c-0.24-0.16-0.69-0.46-0.93-0.62"/>
		<path class="st2" d="M399.67,79.82c-0.24-0.16-0.69-0.46-0.93-0.62"/>
		<path class="st2" d="M403.11,81.31c-0.24-0.16-0.69-0.46-0.93-0.62"/>
		<path class="st2" d="M391.92,73.85c-0.24-0.16-0.69-0.46-0.93-0.62"/>
		<path class="st2" d="M393.76,74.88c-0.24-0.16-0.69-0.46-0.93-0.62"/>
		<path class="st2" d="M395.99,75.8c-0.24-0.16-0.69-0.46-0.93-0.62"/>
		<path class="st2" d="M397.84,76.51c-0.16-0.11-0.45-0.33-0.6-0.44"/>
		<path class="st2" d="M401.57,75.83c-0.16-0.11-0.45-0.33-0.6-0.44"/>
		<path class="st2" d="M401.34,77.95c-0.16-0.11-0.45-0.33-0.6-0.44"/>
		<path class="st2" d="M404.38,79.9c-0.16-0.11-0.45-0.33-0.6-0.44"/>
		<path class="st2" d="M406.91,81.16c-0.16-0.11-0.45-0.33-0.6-0.44"/>
		<path class="st2" d="M405.93,82.6c-0.16-0.11-0.45-0.33-0.6-0.44"/>
		<path class="st2" d="M408.86,82.25c-0.16-0.11-0.45-0.33-0.6-0.44"/>
		<path class="st2" d="M408.92,83.69c-0.16-0.11-0.45-0.33-0.6-0.44"/>
		<path class="st2" d="M410.76,82.89c-0.16-0.11-0.45-0.33-0.6-0.44"/>
		<path class="st2" d="M411.16,84.78c-0.16-0.11-0.45-0.33-0.6-0.44"/>
		<path class="st2" d="M412.13,83.63c-0.16-0.11-0.45-0.33-0.6-0.44"/>
		<path class="st2" d="M403.58,76.74c-0.16-0.11-0.45-0.33-0.6-0.44"/>
		<path class="st2" d="M406.05,77.78c-0.16-0.11-0.45-0.33-0.6-0.44"/>
		<path class="st2" d="M408.35,79.21c-0.16-0.11-0.45-0.33-0.6-0.44"/>
		<path class="st2" d="M410.47,80.25c-0.16-0.11-0.45-0.33-0.6-0.44"/>
		<path class="st2" d="M412.48,80.93c-0.16-0.11-0.45-0.33-0.6-0.44"/>
		<path class="st2" d="M400.01,72.64c-0.24-0.16-0.69-0.46-0.93-0.62"/>
		<path class="st2" d="M402.42,73.68c-0.24-0.16-0.69-0.46-0.93-0.62"/>
		<path class="st2" d="M402.77,71.61c-0.24-0.16-0.69-0.46-0.93-0.62"/>
		<path class="st2" d="M404.49,72.18c-0.24-0.16-0.69-0.46-0.93-0.62"/>
		<path class="st2" d="M407.07,73.33c-0.24-0.16-0.69-0.46-0.93-0.62"/>
		<path class="st2" d="M409.25,74.37c-0.24-0.16-0.69-0.46-0.93-0.62"/>
		<path class="st2" d="M411.26,75.11c-0.24-0.16-0.69-0.46-0.93-0.62"/>
		<path class="st2" d="M412.76,75.8c-0.24-0.16-0.69-0.46-0.93-0.62"/>
		<path class="st2" d="M411.95,78.1c-0.24-0.16-0.69-0.46-0.93-0.62"/>
		<path class="st2" d="M409.83,77.06c-0.24-0.16-0.69-0.46-0.93-0.62"/>
		<path class="st2" d="M407.48,76.03c-0.24-0.16-0.69-0.46-0.93-0.62"/>
		<path class="st2" d="M405.06,74.71c-0.24-0.16-0.69-0.46-0.93-0.62"/>
		<path class="st2" d="M398.18,66.67c-0.24-0.16-0.69-0.46-0.93-0.62"/>
		<path class="st2" d="M400.41,67.99c-0.24-0.16-0.69-0.46-0.93-0.62"/>
		<path class="st2" d="M402.6,68.86c-0.24-0.16-0.69-0.46-0.93-0.62"/>
		<path class="st2" d="M405.29,70.29c-0.24-0.16-0.69-0.46-0.93-0.62"/>
		<path class="st2" d="M407.7,70.98c-0.24-0.16-0.69-0.46-0.93-0.62"/>
		<path class="st2" d="M409.88,72.3c-0.24-0.16-0.69-0.46-0.93-0.62"/>
		<path class="st2" d="M411.95,73.33c-0.24-0.16-0.69-0.46-0.93-0.62"/>
		<path class="st2" d="M417.24,72.11c0.27-0.09,0.54-0.17,0.82-0.2"/>
		<path class="st2" d="M419.77,71.59c0.27-0.09,0.54-0.17,0.82-0.2"/>
		<path class="st2" d="M421.32,71.19c0.27-0.09,0.54-0.17,0.82-0.2"/>
		<path class="st2" d="M417.19,73.89c0.27-0.09,0.54-0.17,0.82-0.2"/>
		<path class="st2" d="M419.71,73.37c0.27-0.09,0.54-0.17,0.82-0.2"/>
		<path class="st2" d="M421.26,72.97c0.27-0.09,0.54-0.17,0.82-0.2"/>
		<path class="st2" d="M417.19,75.67c0.27-0.09,0.54-0.17,0.82-0.2"/>
		<path class="st2" d="M419.71,75.15c0.27-0.09,0.54-0.17,0.82-0.2"/>
		<path class="st2" d="M421.26,74.75c0.27-0.09,0.54-0.17,0.82-0.2"/>
		<path class="st2" d="M417.19,77.62c0.27-0.09,0.54-0.17,0.82-0.2"/>
		<path class="st2" d="M419.71,77.1c0.27-0.09,0.54-0.17,0.82-0.2"/>
		<path class="st2" d="M421.26,76.7c0.27-0.09,0.54-0.17,0.82-0.2"/>
		<path class="st2" d="M417.3,79.57c0.27-0.09,0.54-0.17,0.82-0.2"/>
		<path class="st2" d="M419.83,79.06c0.27-0.09,0.54-0.17,0.82-0.2"/>
		<path class="st2" d="M421.38,78.65c0.27-0.09,0.54-0.17,0.82-0.2"/>
		<path class="st2" d="M417.47,81.29c0.27-0.09,0.54-0.17,0.82-0.2"/>
		<path class="st2" d="M420,80.78c0.27-0.09,0.54-0.17,0.82-0.2"/>
		<path class="st2" d="M421.55,80.38c0.27-0.09,0.54-0.17,0.82-0.2"/>
		<path class="st2" d="M417.53,83.36c0.27-0.09,0.54-0.17,0.82-0.2"/>
		<path class="st2" d="M420.06,82.84c0.27-0.09,0.54-0.17,0.82-0.2"/>
		<path class="st2" d="M421.61,82.44c0.27-0.09,0.54-0.17,0.82-0.2"/>
		<path class="st2" d="M423.74,71.73c0.27-0.09,0.54-0.17,0.82-0.2"/>
		<path class="st2" d="M423.74,73.51c0.27-0.09,0.54-0.17,0.82-0.2"/>
		<path class="st2" d="M423.74,75.46c0.27-0.09,0.54-0.17,0.82-0.2"/>
		<path class="st2" d="M423.86,77.41c0.27-0.09,0.54-0.17,0.82-0.2"/>
		<path class="st2" d="M424.03,79.13c0.27-0.09,0.54-0.17,0.82-0.2"/>
		<path class="st2" d="M424.09,81.2c0.27-0.09,0.54-0.17,0.82-0.2"/>
		<path class="st2" d="M426.12,70.9c0.27-0.09,0.54-0.16,0.82-0.2"/>
		<path class="st2" d="M426.12,72.68c0.27-0.09,0.54-0.17,0.82-0.2"/>
		<path class="st2" d="M426.12,74.63c0.27-0.09,0.54-0.17,0.82-0.2"/>
		<path class="st2" d="M426.24,76.58c0.27-0.09,0.54-0.17,0.82-0.2"/>
		<path class="st2" d="M426.41,78.31c0.27-0.09,0.54-0.17,0.82-0.2"/>
		<path class="st2" d="M426.47,80.37c0.27-0.09,0.54-0.17,0.82-0.2"/>
		<path class="st2" d="M428.09,70.18c0.27-0.09,0.54-0.16,0.82-0.2"/>
		<path class="st2" d="M428.09,71.96c0.27-0.09,0.54-0.17,0.82-0.2"/>
		<path class="st2" d="M428.09,73.91c0.27-0.09,0.54-0.17,0.82-0.2"/>
		<path class="st2" d="M428.21,75.86c0.27-0.09,0.54-0.17,0.82-0.2"/>
		<path class="st2" d="M428.38,77.58c0.27-0.09,0.54-0.17,0.82-0.2"/>
		<path class="st2" d="M428.44,79.65c0.27-0.09,0.54-0.17,0.82-0.2"/>
		<path class="st2" d="M430.26,69.14c0.27-0.09,0.54-0.17,0.82-0.2"/>
		<path class="st2" d="M430.26,70.92c0.27-0.09,0.54-0.17,0.82-0.2"/>
		<path class="st2" d="M430.26,72.87c0.27-0.09,0.54-0.17,0.82-0.2"/>
		<path class="st2" d="M430.38,74.83c0.27-0.09,0.54-0.17,0.82-0.2"/>
		<path class="st2" d="M430.55,76.55c0.27-0.09,0.54-0.17,0.82-0.2"/>
		<path class="st2" d="M430.61,78.61c0.27-0.09,0.54-0.17,0.82-0.2"/>
		<path class="st2" d="M432.13,68.31c0.27-0.09,0.54-0.17,0.82-0.2"/>
		<path class="st2" d="M432.13,70.09c0.27-0.09,0.54-0.17,0.82-0.2"/>
		<path class="st2" d="M432.13,72.05c0.27-0.09,0.54-0.17,0.82-0.2"/>
		<path class="st2" d="M432.24,74c0.27-0.09,0.54-0.17,0.82-0.2"/>
		<path class="st2" d="M432.41,75.72c0.27-0.09,0.54-0.17,0.82-0.2"/>
		<path class="st2" d="M432.47,77.79c0.27-0.09,0.54-0.16,0.82-0.2"/>
		<path class="st2" d="M433.99,67.9c0.27-0.09,0.54-0.17,0.82-0.2"/>
		<path class="st2" d="M433.99,69.68c0.27-0.09,0.54-0.17,0.82-0.2"/>
		<path class="st2" d="M433.99,71.63c0.27-0.09,0.54-0.17,0.82-0.2"/>
		<path class="st2" d="M434.1,73.58c0.27-0.09,0.54-0.17,0.82-0.2"/>
		<path class="st2" d="M434.28,75.31c0.27-0.09,0.54-0.17,0.82-0.2"/>
		<path class="st2" d="M434.33,77.37c0.27-0.09,0.54-0.17,0.82-0.2"/>
		<path class="st2" d="M435.85,67.38c0.27-0.09,0.54-0.17,0.82-0.2"/>
		<path class="st2" d="M436.89,69.06c0.27-0.09,0.54-0.17,0.82-0.2"/>
		<path class="st2" d="M435.85,71.11c0.27-0.09,0.54-0.17,0.82-0.2"/>
		<path class="st2" d="M437.51,70.6c0.27-0.09,0.54-0.17,0.82-0.2"/>
		<path class="st2" d="M435.97,73.07c0.27-0.09,0.54-0.17,0.82-0.2"/>
		<path class="st2" d="M438.14,72.34c0.27-0.09,0.54-0.17,0.82-0.2"/>
		<path class="st2" d="M439.07,71.51c0.27-0.09,0.54-0.17,0.82-0.2"/>
		<path class="st2" d="M436.14,74.79c0.27-0.09,0.54-0.17,0.82-0.2"/>
		<path class="st2" d="M438.31,73.75c0.27-0.09,0.54-0.16,0.82-0.2"/>
		<path class="st2" d="M439.86,73.13c0.27-0.09,0.54-0.17,0.82-0.2"/>
		<path class="st2" d="M437.85,76.03c0.27-0.09,0.54-0.17,0.82-0.2"/>
		<path class="st2" d="M439.3,75.2c0.27-0.09,0.54-0.17,0.82-0.2"/>
		<path class="st2" d="M440.54,74.58c0.27-0.09,0.54-0.17,0.82-0.2"/>
		<path class="st2" d="M423.33,70.33c0.27-0.09,0.54-0.17,0.82-0.2"/>
		<path class="st2" d="M425.51,69.64c0.27-0.09,0.54-0.17,0.82-0.2"/>
		<path class="st2" d="M427,68.95c0.27-0.09,0.54-0.16,0.82-0.2"/>
		<path class="st2" d="M429.41,67.83c0.27-0.09,0.54-0.17,0.82-0.2"/>
		<path class="st2" d="M431.19,67.25c0.27-0.09,0.54-0.16,0.82-0.2"/>
		<path class="st2" d="M433.03,66.47c0.27-0.09,0.54-0.17,0.82-0.2"/>
		<path class="st2" d="M434.46,65.41c0.27-0.09,0.54-0.17,0.82-0.2"/>
		<path class="st3" d="M438.87,98.29v-4.58h2.17v0.54h-1.74v1.42h1.51v0.54h-1.51v2.08H438.87z M435.66,96.07
			c0,0.55,0.1,0.99,0.31,1.3c0.21,0.32,0.47,0.48,0.78,0.48c0.32,0,0.58-0.16,0.79-0.48c0.21-0.32,0.31-0.78,0.31-1.37
			c0-0.37-0.04-0.7-0.13-0.98c-0.09-0.28-0.22-0.49-0.39-0.65c-0.17-0.15-0.36-0.23-0.57-0.23c-0.3,0-0.56,0.15-0.78,0.44
			C435.77,94.89,435.66,95.38,435.66,96.07z M435.22,96.06c0-0.76,0.14-1.36,0.43-1.78c0.29-0.43,0.66-0.64,1.11-0.64
			c0.3,0,0.56,0.1,0.8,0.3c0.24,0.2,0.42,0.48,0.54,0.85c0.13,0.36,0.19,0.77,0.19,1.23c0,0.47-0.07,0.88-0.2,1.25
			c-0.13,0.37-0.32,0.64-0.56,0.83c-0.24,0.19-0.5,0.28-0.78,0.28c-0.3,0-0.57-0.1-0.81-0.31c-0.24-0.21-0.42-0.49-0.54-0.85
			C435.28,96.84,435.22,96.46,435.22,96.06z M432.01,98.29v-1.94l-1.24-2.64h0.52l0.63,1.38c0.12,0.26,0.23,0.52,0.33,0.78
			c0.1-0.24,0.21-0.51,0.35-0.81l0.62-1.35h0.5l-1.28,2.64v1.94H432.01z M429.18,98.29v-4.04h-1.06v-0.54h2.55v0.54h-1.06v4.04
			H429.18z M427.19,98.29v-4.58h0.43v4.58H427.19z M423.98,96.82l0.4-0.05c0.02,0.23,0.06,0.42,0.13,0.56
			c0.07,0.15,0.18,0.27,0.32,0.36c0.15,0.09,0.31,0.14,0.49,0.14c0.16,0,0.31-0.03,0.43-0.1c0.12-0.07,0.22-0.16,0.28-0.28
			c0.06-0.12,0.09-0.25,0.09-0.39c0-0.14-0.03-0.27-0.09-0.38c-0.06-0.11-0.15-0.2-0.29-0.27c-0.09-0.05-0.28-0.12-0.57-0.22
			c-0.3-0.1-0.5-0.2-0.62-0.29c-0.15-0.11-0.27-0.26-0.34-0.43c-0.08-0.17-0.11-0.36-0.11-0.57c0-0.23,0.05-0.45,0.14-0.65
			c0.09-0.2,0.23-0.35,0.4-0.46c0.18-0.1,0.37-0.16,0.59-0.16c0.24,0,0.45,0.05,0.63,0.16c0.18,0.11,0.32,0.27,0.42,0.48
			c0.1,0.21,0.15,0.45,0.16,0.72l-0.41,0.04c-0.02-0.29-0.1-0.51-0.22-0.66c-0.13-0.15-0.31-0.22-0.56-0.22
			c-0.26,0-0.44,0.07-0.56,0.2c-0.12,0.13-0.18,0.3-0.18,0.48c0,0.17,0.04,0.3,0.12,0.41c0.08,0.11,0.3,0.22,0.64,0.33
			c0.35,0.11,0.58,0.21,0.71,0.29c0.19,0.12,0.33,0.28,0.41,0.47c0.09,0.19,0.13,0.41,0.13,0.65c0,0.24-0.05,0.47-0.15,0.69
			c-0.1,0.22-0.24,0.38-0.42,0.5c-0.18,0.12-0.39,0.18-0.62,0.18c-0.29,0-0.54-0.06-0.73-0.18c-0.2-0.12-0.35-0.3-0.46-0.54
			C424.04,97.4,423.98,97.13,423.98,96.82z M421.31,95.73h0.91c0.19,0,0.35-0.03,0.46-0.09c0.11-0.06,0.19-0.15,0.25-0.28
			c0.06-0.13,0.09-0.26,0.09-0.41c0-0.22-0.05-0.39-0.17-0.53c-0.11-0.14-0.28-0.21-0.52-0.21h-1.02V95.73z M420.88,98.29v-4.58
			h1.43c0.29,0,0.5,0.04,0.65,0.12c0.15,0.08,0.27,0.23,0.36,0.43c0.09,0.21,0.13,0.44,0.13,0.69c0,0.33-0.07,0.6-0.22,0.82
			c-0.15,0.22-0.38,0.36-0.68,0.42c0.11,0.08,0.2,0.15,0.26,0.23c0.12,0.16,0.24,0.37,0.35,0.61l0.56,1.25h-0.54l-0.43-0.95
			c-0.12-0.27-0.23-0.49-0.31-0.63c-0.08-0.15-0.15-0.25-0.22-0.31c-0.06-0.06-0.13-0.1-0.19-0.12c-0.05-0.01-0.13-0.02-0.24-0.02
			h-0.49v2.03H420.88z M417.89,98.29v-4.58h2.32v0.54h-1.9v1.4h1.78v0.54h-1.78v1.56h1.97v0.54H417.89z M415.8,98.29l-1.25-4.58
			h0.46l0.84,3.33c0.07,0.27,0.12,0.52,0.17,0.75c0.05-0.25,0.11-0.5,0.17-0.75l0.87-3.33h0.43l-1.26,4.58H415.8z M413.71,98.29
			v-4.58h0.43v4.58H413.71z M410.39,98.29v-4.58h0.44l1.69,3.6v-3.6h0.41v4.58h-0.44l-1.69-3.6v3.6H410.39z M409.26,93.71h0.43v2.65
			c0,0.46-0.04,0.83-0.11,1.1c-0.07,0.27-0.21,0.49-0.4,0.66c-0.19,0.17-0.44,0.25-0.75,0.25c-0.3,0-0.55-0.07-0.74-0.22
			c-0.19-0.15-0.33-0.36-0.41-0.64c-0.08-0.28-0.12-0.66-0.12-1.15v-2.65h0.43v2.64c0,0.4,0.03,0.69,0.08,0.88
			c0.05,0.19,0.14,0.33,0.27,0.44c0.13,0.1,0.28,0.15,0.46,0.15c0.31,0,0.54-0.1,0.67-0.3c0.13-0.2,0.2-0.59,0.2-1.16V93.71z
			 M402.65,98.29v-4.58h0.44l1.69,3.6v-3.6h0.41v4.58h-0.44l-1.69-3.6v3.6H402.65z M401.48,98.29v-4.58h0.43v4.58H401.48z
			 M398.18,98.29v-4.58h0.43v1.88h1.67v-1.88h0.43v4.58h-0.43v-2.16h-1.67v2.16H398.18z M397.21,96.69l0.43,0.15
			c-0.09,0.5-0.25,0.88-0.48,1.14c-0.23,0.26-0.51,0.39-0.85,0.39c-0.35,0-0.63-0.1-0.85-0.3c-0.22-0.2-0.38-0.49-0.5-0.87
			c-0.11-0.38-0.17-0.79-0.17-1.23c0-0.48,0.06-0.89,0.19-1.25c0.13-0.36,0.31-0.62,0.55-0.81c0.24-0.18,0.5-0.28,0.78-0.28
			c0.32,0,0.59,0.12,0.81,0.35c0.22,0.23,0.37,0.56,0.46,0.98l-0.42,0.14c-0.07-0.33-0.18-0.58-0.32-0.73
			c-0.14-0.15-0.32-0.23-0.54-0.23c-0.25,0-0.45,0.08-0.62,0.25c-0.17,0.17-0.28,0.4-0.35,0.68c-0.07,0.28-0.1,0.58-0.1,0.88
			c0,0.39,0.04,0.73,0.12,1.02c0.08,0.29,0.2,0.51,0.37,0.65c0.17,0.14,0.35,0.22,0.55,0.22c0.24,0,0.44-0.1,0.61-0.29
			C397.04,97.36,397.16,97.07,397.21,96.69z M391.74,96.07c0,0.55,0.1,0.99,0.31,1.3c0.21,0.32,0.47,0.48,0.78,0.48
			c0.32,0,0.58-0.16,0.79-0.48c0.21-0.32,0.31-0.78,0.31-1.37c0-0.37-0.05-0.7-0.13-0.98c-0.09-0.28-0.22-0.49-0.39-0.65
			c-0.17-0.15-0.36-0.23-0.57-0.23c-0.3,0-0.56,0.15-0.78,0.44C391.84,94.89,391.74,95.38,391.74,96.07z M391.3,96.06
			c0-0.76,0.14-1.36,0.43-1.78c0.29-0.43,0.66-0.64,1.11-0.64c0.3,0,0.56,0.1,0.8,0.3c0.24,0.2,0.42,0.48,0.55,0.85
			c0.13,0.36,0.19,0.77,0.19,1.23c0,0.47-0.06,0.88-0.2,1.25c-0.13,0.37-0.32,0.64-0.56,0.83c-0.24,0.19-0.5,0.28-0.78,0.28
			c-0.3,0-0.57-0.1-0.81-0.31c-0.24-0.21-0.42-0.49-0.54-0.85C391.36,96.84,391.3,96.46,391.3,96.06z M390.48,96.69l0.43,0.15
			c-0.09,0.5-0.25,0.88-0.48,1.14c-0.23,0.26-0.52,0.39-0.85,0.39c-0.35,0-0.63-0.1-0.85-0.3c-0.22-0.2-0.38-0.49-0.5-0.87
			c-0.11-0.38-0.17-0.79-0.17-1.23c0-0.48,0.06-0.89,0.19-1.25c0.13-0.36,0.31-0.62,0.55-0.81c0.24-0.18,0.5-0.28,0.78-0.28
			c0.32,0,0.59,0.12,0.81,0.35c0.22,0.23,0.37,0.56,0.46,0.98l-0.42,0.14c-0.07-0.33-0.18-0.58-0.32-0.73
			c-0.14-0.15-0.32-0.23-0.54-0.23c-0.25,0-0.45,0.08-0.62,0.25c-0.17,0.17-0.28,0.4-0.35,0.68c-0.07,0.28-0.1,0.58-0.1,0.88
			c0,0.39,0.04,0.73,0.12,1.02c0.08,0.29,0.2,0.51,0.37,0.65c0.17,0.14,0.35,0.22,0.55,0.22c0.24,0,0.44-0.1,0.61-0.29
			C390.31,97.36,390.42,97.07,390.48,96.69z"/>
		<path class="st3" d="M444.49,105.93v-1.94l-1.24-2.64h0.52l0.63,1.38c0.12,0.26,0.23,0.52,0.33,0.78c0.1-0.24,0.21-0.51,0.35-0.81
			l0.62-1.35h0.5l-1.28,2.64v1.94H444.49z M441.6,104.13v-0.54l1.36,0v1.7c-0.21,0.24-0.42,0.42-0.65,0.54
			c-0.22,0.12-0.45,0.18-0.68,0.18c-0.32,0-0.6-0.1-0.86-0.29c-0.26-0.19-0.45-0.47-0.58-0.83c-0.13-0.36-0.2-0.77-0.2-1.22
			c0-0.45,0.07-0.86,0.2-1.25c0.13-0.39,0.32-0.67,0.56-0.86c0.25-0.19,0.53-0.28,0.85-0.28c0.23,0,0.44,0.05,0.63,0.16
			c0.19,0.11,0.34,0.26,0.44,0.45c0.11,0.19,0.19,0.44,0.24,0.75l-0.38,0.15c-0.05-0.23-0.11-0.42-0.18-0.55
			c-0.07-0.13-0.17-0.24-0.31-0.32c-0.13-0.08-0.28-0.12-0.44-0.12c-0.19,0-0.36,0.04-0.5,0.13c-0.14,0.08-0.26,0.19-0.34,0.33
			c-0.09,0.14-0.15,0.29-0.2,0.45c-0.08,0.28-0.12,0.59-0.12,0.92c0,0.41,0.05,0.75,0.15,1.02c0.1,0.28,0.24,0.48,0.43,0.61
			c0.19,0.13,0.39,0.2,0.6,0.2c0.18,0,0.36-0.05,0.54-0.15c0.18-0.1,0.31-0.21,0.4-0.32v-0.85H441.6z M436.91,103.71
			c0,0.55,0.1,0.99,0.31,1.3c0.21,0.32,0.47,0.48,0.78,0.48c0.32,0,0.58-0.16,0.79-0.48c0.21-0.32,0.31-0.78,0.31-1.37
			c0-0.37-0.04-0.7-0.13-0.98c-0.09-0.28-0.22-0.49-0.39-0.65c-0.17-0.15-0.36-0.23-0.57-0.23c-0.3,0-0.56,0.15-0.78,0.44
			C437.02,102.53,436.91,103.02,436.91,103.71z M436.47,103.7c0-0.76,0.14-1.36,0.43-1.78c0.29-0.43,0.66-0.64,1.11-0.64
			c0.3,0,0.56,0.1,0.8,0.3c0.24,0.2,0.42,0.48,0.54,0.85c0.13,0.36,0.19,0.77,0.19,1.23c0,0.46-0.07,0.88-0.2,1.25
			c-0.13,0.37-0.32,0.64-0.56,0.83c-0.24,0.19-0.5,0.28-0.78,0.28c-0.3,0-0.57-0.1-0.81-0.31c-0.24-0.21-0.42-0.49-0.54-0.85
			C436.53,104.48,436.47,104.1,436.47,103.7z M434.08,105.93v-4.58h0.43v4.04h1.58v0.54H434.08z M430.92,103.71
			c0,0.55,0.1,0.99,0.31,1.3c0.21,0.32,0.47,0.48,0.78,0.48c0.32,0,0.58-0.16,0.79-0.48c0.21-0.32,0.31-0.78,0.31-1.37
			c0-0.37-0.04-0.7-0.13-0.98c-0.09-0.28-0.22-0.49-0.39-0.65c-0.17-0.15-0.36-0.23-0.57-0.23c-0.3,0-0.56,0.15-0.78,0.44
			C431.03,102.53,430.92,103.02,430.92,103.71z M430.48,103.7c0-0.76,0.14-1.36,0.43-1.78c0.29-0.43,0.66-0.64,1.11-0.64
			c0.3,0,0.56,0.1,0.8,0.3c0.24,0.2,0.42,0.48,0.55,0.85c0.13,0.36,0.19,0.77,0.19,1.23c0,0.46-0.07,0.88-0.2,1.25
			c-0.13,0.37-0.32,0.64-0.56,0.83c-0.24,0.19-0.5,0.28-0.78,0.28c-0.3,0-0.57-0.1-0.81-0.31c-0.24-0.21-0.42-0.49-0.54-0.85
			C430.54,104.48,430.48,104.1,430.48,103.7z M427.36,105.93v-4.58h0.44l1.69,3.59v-3.59h0.41v4.58h-0.44l-1.69-3.6v3.6H427.36z
			 M424.13,105.93v-4.58h0.43v1.88h1.67v-1.88h0.43v4.58h-0.43v-2.16h-1.67v2.16H424.13z M423.17,104.32l0.43,0.15
			c-0.09,0.5-0.25,0.88-0.48,1.14c-0.23,0.26-0.51,0.39-0.85,0.39c-0.35,0-0.63-0.1-0.84-0.3c-0.22-0.2-0.38-0.49-0.5-0.87
			c-0.11-0.38-0.17-0.79-0.17-1.23c0-0.48,0.06-0.89,0.19-1.25c0.13-0.36,0.31-0.62,0.55-0.81c0.24-0.18,0.5-0.28,0.78-0.28
			c0.32,0,0.59,0.12,0.81,0.35c0.22,0.23,0.37,0.56,0.46,0.98l-0.42,0.14c-0.07-0.33-0.18-0.58-0.32-0.73
			c-0.14-0.15-0.32-0.23-0.54-0.23c-0.25,0-0.45,0.08-0.62,0.25c-0.17,0.17-0.28,0.4-0.35,0.68c-0.07,0.28-0.1,0.58-0.1,0.88
			c0,0.39,0.04,0.73,0.12,1.02c0.08,0.29,0.2,0.51,0.37,0.65c0.17,0.14,0.35,0.22,0.55,0.22c0.24,0,0.44-0.1,0.61-0.29
			C423,105,423.11,104.71,423.17,104.32z M417.89,105.93v-4.58h2.32v0.54h-1.9v1.4h1.78v0.54h-1.78v1.56h1.97v0.54H417.89z
			 M415.95,105.93v-4.04h-1.06v-0.54h2.55v0.54h-1.06v4.04H415.95z M411.07,105.39h0.69c0.21,0,0.38-0.03,0.5-0.08
			c0.12-0.06,0.22-0.14,0.29-0.24c0.1-0.14,0.18-0.34,0.24-0.58c0.06-0.24,0.08-0.54,0.08-0.88c0-0.48-0.06-0.85-0.17-1.1
			c-0.11-0.26-0.25-0.43-0.4-0.52c-0.11-0.06-0.3-0.09-0.55-0.09h-0.68V105.39z M410.64,105.93v-4.58h1.11
			c0.25,0,0.44,0.02,0.57,0.07c0.18,0.06,0.34,0.17,0.47,0.33c0.17,0.2,0.3,0.46,0.38,0.78c0.08,0.32,0.13,0.68,0.13,1.09
			c0,0.35-0.03,0.66-0.09,0.92c-0.06,0.27-0.13,0.49-0.22,0.67c-0.09,0.18-0.19,0.31-0.29,0.41c-0.11,0.1-0.23,0.18-0.38,0.23
			c-0.15,0.05-0.32,0.08-0.52,0.08H410.64z M407.4,105.93v-4.58h0.44l1.69,3.59v-3.59h0.41v4.58h-0.44l-1.69-3.6v3.6H407.4z
			 M404.98,104.05h1.09l-0.34-1.27c-0.1-0.39-0.18-0.7-0.23-0.95c-0.04,0.29-0.1,0.59-0.17,0.88L404.98,104.05z M404.05,105.93
			l1.24-4.58h0.46l1.32,4.58h-0.49l-0.37-1.39h-1.34l-0.35,1.39H404.05z M400.17,105.93v-4.58h2.32v0.54h-1.9v1.4h1.78v0.54h-1.78
			v1.56h1.97v0.54H400.17z M399.21,104.32l0.43,0.15c-0.09,0.5-0.25,0.88-0.48,1.14c-0.23,0.26-0.51,0.39-0.85,0.39
			c-0.35,0-0.63-0.1-0.85-0.3c-0.22-0.2-0.38-0.49-0.5-0.87c-0.11-0.38-0.17-0.79-0.17-1.23c0-0.48,0.06-0.89,0.19-1.25
			c0.13-0.36,0.31-0.62,0.55-0.81c0.24-0.18,0.5-0.28,0.78-0.28c0.32,0,0.59,0.12,0.81,0.35c0.22,0.23,0.37,0.56,0.46,0.98
			l-0.42,0.14c-0.07-0.33-0.18-0.58-0.33-0.73c-0.14-0.15-0.32-0.23-0.54-0.23c-0.25,0-0.45,0.08-0.62,0.25
			c-0.17,0.17-0.28,0.4-0.35,0.68c-0.07,0.28-0.1,0.58-0.1,0.88c0,0.39,0.04,0.73,0.12,1.02c0.08,0.29,0.2,0.51,0.37,0.65
			c0.17,0.14,0.35,0.22,0.55,0.22c0.24,0,0.44-0.1,0.61-0.29C399.04,105,399.15,104.71,399.21,104.32z M393.67,105.93v-4.58h0.44
			l1.69,3.59v-3.59h0.41v4.58h-0.44l-1.69-3.6v3.6H393.67z M390.69,105.93v-4.58h2.32v0.54h-1.9v1.4h1.78v0.54h-1.78v1.56h1.97v0.54
			H390.69z M389.5,105.93v-4.58h0.43v4.58H389.5z M388.48,104.32l0.43,0.15c-0.09,0.5-0.25,0.88-0.48,1.14
			c-0.23,0.26-0.51,0.39-0.85,0.39c-0.35,0-0.63-0.1-0.85-0.3c-0.22-0.2-0.38-0.49-0.5-0.87c-0.11-0.38-0.17-0.79-0.17-1.23
			c0-0.48,0.06-0.89,0.19-1.25c0.13-0.36,0.31-0.62,0.55-0.81c0.24-0.18,0.5-0.28,0.78-0.28c0.32,0,0.59,0.12,0.81,0.35
			c0.22,0.23,0.37,0.56,0.46,0.98l-0.42,0.14c-0.08-0.33-0.18-0.58-0.32-0.73c-0.14-0.15-0.32-0.23-0.54-0.23
			c-0.25,0-0.45,0.08-0.62,0.25c-0.17,0.17-0.28,0.4-0.35,0.68c-0.07,0.28-0.1,0.58-0.1,0.88c0,0.39,0.04,0.73,0.12,1.02
			c0.08,0.29,0.2,0.51,0.37,0.65c0.17,0.14,0.35,0.22,0.55,0.22c0.24,0,0.44-0.1,0.61-0.29C388.31,105,388.42,104.71,388.48,104.32z
			 M383.04,104.46l0.4-0.05c0.02,0.23,0.06,0.42,0.13,0.56c0.07,0.15,0.18,0.27,0.32,0.36c0.15,0.09,0.31,0.14,0.49,0.14
			c0.16,0,0.31-0.03,0.43-0.1c0.12-0.07,0.22-0.16,0.28-0.28c0.06-0.12,0.09-0.25,0.09-0.39c0-0.14-0.03-0.27-0.09-0.38
			c-0.06-0.11-0.16-0.2-0.29-0.27c-0.09-0.05-0.28-0.12-0.57-0.22c-0.29-0.1-0.5-0.2-0.62-0.29c-0.15-0.11-0.27-0.26-0.34-0.43
			c-0.07-0.17-0.11-0.36-0.11-0.57c0-0.23,0.05-0.45,0.14-0.65c0.09-0.2,0.23-0.35,0.4-0.46c0.18-0.1,0.37-0.16,0.59-0.16
			c0.24,0,0.45,0.05,0.63,0.16c0.18,0.11,0.32,0.27,0.42,0.48c0.1,0.21,0.15,0.45,0.16,0.72l-0.41,0.04
			c-0.02-0.29-0.1-0.51-0.22-0.66c-0.13-0.15-0.31-0.22-0.56-0.22c-0.26,0-0.44,0.07-0.56,0.2c-0.12,0.13-0.18,0.3-0.18,0.49
			c0,0.17,0.04,0.3,0.13,0.41c0.08,0.11,0.3,0.22,0.64,0.33c0.35,0.11,0.58,0.21,0.71,0.29c0.19,0.12,0.33,0.28,0.41,0.47
			c0.09,0.19,0.13,0.41,0.13,0.65c0,0.24-0.05,0.47-0.15,0.69c-0.1,0.22-0.24,0.38-0.42,0.5c-0.18,0.12-0.39,0.18-0.62,0.18
			c-0.29,0-0.54-0.06-0.73-0.18c-0.2-0.12-0.35-0.3-0.46-0.54C383.11,105.04,383.05,104.76,383.04,104.46z"/>
		<path class="st2" d="M390.23,52.07c0.1-0.71,4.86-9.62,4.86-9.62"/>
		<polyline class="st2" points="395.09,42.44 414.74,42.95 419.71,49.43 419.51,54.3 410.9,54.6 410.79,50.14 		"/>
		<path class="st2" d="M410.79,50.14c0-0.61,3.95-6.89,3.95-6.89"/>
		<line class="st2" x1="391.14" y1="53.89" x2="410.9" y2="54.6"/>
		<path class="st2" d="M393.87,45.08c0.71-0.1,19.15,0.61,19.15,0.61"/>
		<line class="st2" x1="392.86" y1="46.9" x2="412.11" y2="47.51"/>
		<line class="st2" x1="391.65" y1="49.03" x2="410.79" y2="50.14"/>
		<path class="st2" d="M419.71,49.43c0.2-0.71,4.05-2.53,4.05-2.53"/>
		<polyline class="st2" points="423.76,46.9 423.76,50.04 423.76,54.3 		"/>
		<path class="st2" d="M428.02,47.41l0.2,6.99L428.02,47.41z"/>
		<path class="st2" d="M423.78,50.46c0,0,0.19-0.11,0.39-0.42c0.2-0.3,3.75-2.43,3.75-2.43"/>
		<polyline class="st2" points="428.22,49.84 432.47,47.41 432.98,54.3 		"/>
		<polyline class="st2" points="434.6,48.52 437.44,47 437.34,54.9 		"/>
		<line class="st2" x1="419.36" y1="54.32" x2="437.64" y2="54.7"/>
		<path class="st3" d="M428.3,37.34l-0.12-0.36l-0.1-0.36l0.19-0.42l0.16-0.47l0.1-0.47l0.05-0.46l-0.01-0.46l-0.1-0.43l-0.15-0.41
			l-0.24-0.35l0.15,0.05l0.17,0.07l0.18,0.05l0.17,0.07l0.18,0.07l0.17,0.05l0.15,0.07l0.12,0.05l2.68,2.19l-0.04-0.36l-0.13-0.41
			l-0.15-0.41l-0.21-0.43l-0.24-0.4l-0.27-0.43l-0.3-0.38l-0.3-0.32l-0.15-0.1l-0.18-0.1l-0.26-0.09l-0.26-0.12l-0.29-0.12
			l-0.32-0.12l-0.29-0.09l-0.26-0.09l0.2-0.01l0.2-0.01l0.2-0.01l0.23,0.02l0.2-0.01l0.17,0.02l0.17-0.01l0.14,0.02l0-0.08
			l-0.03-0.2l0-0.21l0.03-0.13l0.22,0.56l0.26,0.04l0.26,0.07l0.29,0.12l0.32,0.14l0.29,0.14l0.29,0.12l0.29,0.12l0.26,0.07
			l-0.12-0.3l-0.27-0.35l-0.35-0.35l-0.44-0.32l-0.55-0.29l-0.61-0.21l-0.67-0.1l-0.75,0l0.17-0.21l0.2-0.19l0.23-0.14l0.29-0.14
			l0.31-0.09l0.32-0.04l0.38,0.01l0.38,0.04l-0.01-0.31l0.38,0.3l0.15,0.02l0.17,0.05l0.17,0.05l0.18,0.04l0.18,0.05l0.14,0.02
			l0.09,0.05l0.03,0l-0.54-0.73l-0.59-0.47l-0.61-0.24l-0.61-0.03l-0.58,0.1l-0.51,0.25l-0.43,0.32l-0.34,0.35l0.05-0.21l0.05-0.18
			l0.11-0.18l0.11-0.13l0.11-0.13l0.08-0.11l0.11-0.11l0.06-0.05l0.26-0.14l0.34-0.17l0.37-0.17l0.37-0.14l0.34-0.14l0.29-0.11
			l0.2-0.06l0.06-0.03l-0.32-0.07l-0.32-0.04l-0.32-0.07l-0.32-0.01l-0.32-0.04l-0.29,0.01l-0.32,0.01l-0.29,0.01l-0.14,0.08
			l-0.14,0.08l-0.11,0.11l-0.14,0.13l-0.14,0.19l-0.17,0.21l-0.23,0.24l-0.28,0.29l0.21-1.09l1.5-1.49l-0.37,0.04l-0.35,0.12
			l-0.37,0.12l-0.37,0.17l-0.31,0.19l-0.31,0.17l-0.26,0.19l-0.2,0.16l-0.06,0.08l-0.03,0.13l-0.05,0.16l-0.03,0.18l-0.02,0.23
			l-0.02,0.21l-0.02,0.18l0,0.18l-0.12-0.1l-0.12-0.1l-0.12-0.15l-0.15-0.15l-0.12-0.12L425.45,28l-0.09-0.1l-0.09-0.07l-0.17,0.01
			l-0.26-0.02l-0.32-0.02l-0.35-0.01l-0.38,0.04l-0.4,0.04l-0.4,0.09l-0.37,0.14l0.06,0.02l0.14,0.02l0.23,0.04l0.26,0.07l0.32,0.09
			l0.32,0.09l0.35,0.09l0.29,0.09l0.12,0.12l0.09,0.13l0.12,0.1l0.09,0.1l0.09,0.1l0.12,0.1l0.09,0.07l0.12,0.05l-0.18-0.05
			l-0.2-0.02l-0.2-0.04l-0.23-0.04l-0.23-0.02l-0.2-0.02L424,29.21l-0.14,0l-0.37,0.14l-0.34,0.24l-0.28,0.27l-0.22,0.32l-0.19,0.29
			l-0.14,0.26l-0.08,0.16l-0.03,0.08l0.2-0.19l0.23-0.16l0.26-0.14l0.23-0.11l0.23-0.06l0.23-0.09l0.23-0.06l0.17-0.06l0.23,0.02
			l0.23,0.02l0.23,0.04l0.23,0.04l0.2,0.07l0.2,0.1l0.21,0.1l0.18,0.15l-0.2,0.01l-0.26,0.01l-0.23,0.03l-0.29,0.06l-0.26,0.06
			l-0.26,0.09l-0.26,0.11l-0.23,0.11l-0.28,0.32l-0.25,0.34l-0.22,0.37l-0.19,0.34l-0.14,0.31l-0.11,0.26l-0.05,0.18l-0.03,0.05
			l0.25-0.29l0.31-0.27l0.34-0.24l0.34-0.22l0.34-0.19l0.29-0.14l0.29-0.09l0.2-0.03l0.05-0.28l0.15,0.23l0.15-0.01l0.2,0.04
			l0.2,0.04l0.2,0.1l-0.32,0.06l-0.29,0.09l-0.26,0.11l-0.25,0.14l-0.2,0.14l-0.2,0.14l-0.2,0.14l-0.14,0.11l-0.17,0.26l-0.22,0.32
			l-0.19,0.37l-0.22,0.45l-0.16,0.49l-0.1,0.52l-0.04,0.59l0.07,0.61l0.14-0.24l0.14-0.24l0.11-0.24l0.11-0.18l0.08-0.18l0.08-0.18
			l0.08-0.13l0.08-0.13l-0.03-0.05l-0.03-0.1l-0.03-0.13l-0.03-0.1l0.09,0.05l0.09,0.02l0.09,0.02l0.03,0.03l0.17-0.24l0.2-0.24
			l0.22-0.21l0.23-0.21l0.26-0.21l0.25-0.19l0.26-0.19l0.26-0.16l-0.11,0.13l-0.11,0.13l-0.08,0.16l-0.08,0.13l-0.08,0.13
			l-0.06,0.16l-0.05,0.16l-0.05,0.16l0.01,0.33l0.01,0.41l0.04,0.46l0.1,0.49l0.13,0.51l0.19,0.51l0.24,0.45l0.3,0.43l-0.01-0.26
			l-0.01-0.28l0.02-0.28l0.02-0.28l0.02-0.31l0.02-0.28l0.02-0.31l0.05-0.29l0.02-0.28l0.05-0.28l0.05-0.26l0.05-0.26l0.08-0.24
			l0.05-0.23l0.05-0.21l0.08-0.18l0.03,0.15l0,0.15l0.03,0.15l0.03,0.18l0.18,0.05l-0.06,0.13l-0.02,0.16l-0.05,0.1l0,0.1l0.06,0.08
			l0.15,0.12l0.2,0.12l0.18,0.1l-0.03,0.05l-0.03,0.05l-0.03,0.05l-0.03,0.05l0.06,0.25l0.07,0.31l0.07,0.33l0.12,0.33l0.09,0.36
			l0.1,0.33L428.3,37.34z M427.88,37.29l-0.09-0.31l-0.09-0.3l-0.07-0.28l-0.06-0.28l-0.04-0.26l0.03-0.13l0.06-0.11l0.02-0.13
			l0.06-0.11l0.07,0.31l0.07,0.33l0.1,0.33l0.09,0.33l0.1,0.36l0.1,0.36L427.88,37.29z"/>
		<path class="st2" d="M428.3,37.34l-0.12-0.36l-0.1-0.36l0.19-0.42l0.16-0.47l0.1-0.47l0.05-0.46l-0.01-0.46l-0.1-0.43l-0.15-0.41
			l-0.24-0.35l0.15,0.05l0.17,0.07l0.18,0.05l0.17,0.07l0.18,0.07l0.17,0.05l0.15,0.07l0.12,0.05l2.68,2.19l-0.04-0.36l-0.13-0.41
			l-0.15-0.41l-0.21-0.43l-0.24-0.4l-0.27-0.43l-0.3-0.38l-0.3-0.32l-0.15-0.1l-0.18-0.1l-0.26-0.09l-0.26-0.12l-0.29-0.12
			l-0.32-0.12l-0.29-0.09l-0.26-0.09l0.2-0.01l0.2-0.01l0.2-0.01l0.23,0.02l0.2-0.01l0.17,0.02l0.17-0.01l0.14,0.02l0-0.08
			l-0.03-0.2l0-0.21l0.03-0.13l0.22,0.56l0.26,0.04l0.26,0.07l0.29,0.12l0.32,0.14l0.29,0.14l0.29,0.12l0.29,0.12l0.26,0.07
			l-0.12-0.3l-0.27-0.35l-0.35-0.35l-0.44-0.32l-0.55-0.29l-0.61-0.21l-0.67-0.1l-0.75,0l0.17-0.21l0.2-0.19l0.23-0.14l0.29-0.14
			l0.31-0.09l0.32-0.04l0.38,0.01l0.38,0.04l-0.01-0.31l0.38,0.3l0.15,0.02l0.18,0.05l0.17,0.05l0.18,0.04l0.18,0.05l0.14,0.02
			l0.09,0.05l0.03,0l-0.54-0.73l-0.59-0.47l-0.61-0.24l-0.61-0.03l-0.58,0.1l-0.51,0.25l-0.43,0.32l-0.34,0.35l0.05-0.21l0.05-0.18
			l0.11-0.18l0.11-0.13l0.11-0.13l0.08-0.11l0.11-0.11l0.06-0.05l0.26-0.14l0.34-0.17l0.37-0.17l0.37-0.14l0.34-0.14l0.29-0.11
			l0.2-0.06l0.06-0.03l-0.32-0.07l-0.32-0.04l-0.32-0.07l-0.32-0.01l-0.32-0.04l-0.29,0.01l-0.32,0.01l-0.29,0.01l-0.14,0.08
			l-0.14,0.08l-0.11,0.11l-0.14,0.13l-0.14,0.19l-0.17,0.21l-0.23,0.24l-0.28,0.29l0.21-1.09l1.5-1.49l-0.37,0.04l-0.35,0.12
			l-0.37,0.12l-0.37,0.17l-0.31,0.19l-0.31,0.17l-0.26,0.19l-0.2,0.16l-0.06,0.08l-0.03,0.13l-0.05,0.16l-0.03,0.18l-0.02,0.23
			l-0.02,0.21l-0.02,0.18l0,0.18l-0.12-0.1l-0.12-0.1l-0.12-0.15l-0.15-0.15l-0.12-0.12L425.45,28l-0.09-0.1l-0.09-0.07l-0.17,0.01
			l-0.26-0.02l-0.32-0.02l-0.35-0.01l-0.38,0.04l-0.4,0.04l-0.4,0.09l-0.37,0.14l0.06,0.02l0.14,0.02l0.23,0.04l0.26,0.07l0.32,0.09
			l0.32,0.09l0.35,0.09l0.29,0.09l0.12,0.12l0.09,0.13l0.12,0.1l0.09,0.1l0.09,0.1l0.12,0.1l0.09,0.07l0.12,0.05l-0.18-0.05
			l-0.2-0.02l-0.2-0.04l-0.23-0.04l-0.23-0.02l-0.2-0.02L424,29.21l-0.14,0l-0.37,0.14l-0.34,0.24l-0.28,0.27l-0.22,0.32l-0.19,0.29
			l-0.14,0.26l-0.08,0.16l-0.03,0.08l0.2-0.19l0.23-0.16l0.26-0.14l0.23-0.11l0.23-0.06l0.23-0.09l0.23-0.06l0.17-0.06l0.23,0.02
			l0.23,0.02l0.23,0.04l0.23,0.04l0.2,0.07l0.2,0.1l0.2,0.1l0.18,0.15l-0.2,0.01l-0.26,0.01l-0.23,0.03l-0.29,0.06l-0.26,0.06
			l-0.26,0.09l-0.26,0.11l-0.23,0.11l-0.28,0.32l-0.25,0.34l-0.22,0.37l-0.19,0.34l-0.14,0.31l-0.11,0.26l-0.05,0.18l-0.03,0.05
			l0.25-0.29l0.31-0.27l0.34-0.24l0.34-0.22l0.34-0.19l0.29-0.14l0.29-0.09l0.2-0.03l0.05-0.28l0.15,0.23l0.15-0.01l0.2,0.04
			l0.2,0.04l0.2,0.1l-0.32,0.06l-0.29,0.09l-0.26,0.11l-0.25,0.14l-0.2,0.14l-0.2,0.14l-0.2,0.14l-0.14,0.11l-0.17,0.26l-0.22,0.32
			l-0.19,0.37l-0.22,0.45l-0.16,0.49l-0.1,0.52l-0.04,0.59l0.07,0.61l0.14-0.24l0.14-0.24l0.11-0.24l0.11-0.18l0.08-0.18l0.08-0.18
			l0.08-0.13l0.08-0.13l-0.03-0.05l-0.03-0.1l-0.03-0.13l-0.03-0.1l0.09,0.05l0.09,0.02l0.09,0.02l0.03,0.03l0.17-0.24l0.2-0.24
			l0.22-0.21l0.23-0.21l0.26-0.21l0.25-0.19l0.26-0.19l0.26-0.16l-0.11,0.13l-0.11,0.13l-0.08,0.16l-0.08,0.13l-0.08,0.13
			l-0.06,0.16l-0.05,0.16l-0.05,0.16l0.01,0.33l0.01,0.41l0.04,0.46l0.1,0.49l0.13,0.51l0.19,0.51l0.24,0.45l0.3,0.43l-0.01-0.26
			l-0.01-0.28l0.02-0.28l0.02-0.28l0.02-0.31l0.02-0.28l0.02-0.31l0.05-0.29l0.02-0.28l0.05-0.28l0.05-0.26l0.05-0.26l0.08-0.24
			l0.05-0.23l0.05-0.21l0.08-0.18l0.03,0.15l0,0.15l0.03,0.15l0.03,0.18l0.18,0.05l-0.06,0.13l-0.02,0.16l-0.05,0.1l0,0.1l0.06,0.08
			l0.15,0.12l0.2,0.12l0.18,0.1l-0.03,0.05l-0.03,0.05l-0.03,0.05l-0.03,0.05l0.06,0.25l0.07,0.31l0.07,0.33l0.12,0.33l0.09,0.36
			l0.1,0.33L428.3,37.34z M427.88,37.29l-0.09-0.31l-0.09-0.3l-0.07-0.28l-0.06-0.28l-0.04-0.26l0.03-0.13l0.06-0.11l0.02-0.13
			l0.06-0.11l0.07,0.31l0.07,0.33l0.1,0.33l0.09,0.33l0.1,0.36l0.1,0.36L427.88,37.29z"/>
		<path class="st3" d="M432.03,46.3c-0.36-0.69-4.74-10.1-3.98-10.27l0.83-0.19c-1,1.15,9.38,20.86,10.27,19.39
			c0,0-0.9,1.54-0.9,1.54C438.25,56.78,434.85,51.64,432.03,46.3z"/>
		<path class="st2" d="M432.03,46.3c-0.36-0.69-4.74-10.1-3.98-10.27l0.83-0.19c-1,1.15,9.38,20.86,10.27,19.39
			c0,0-0.9,1.54-0.9,1.54C438.25,56.78,434.85,51.64,432.03,46.3z"/>
		<path class="st3" d="M448.91,45.36c0.88-0.11,1.62-0.64,1.99-1.25l-0.5-0.65c-0.34,0.7-1.08,1.02-1.56,1.08
			c-0.78,0.1-1.49-0.17-1.61-0.78c-0.11-0.66,0.29-0.93,0.89-1.03l0.81-0.12c1.17-0.17,1.59-0.95,1.49-1.83
			c-0.07-0.57-0.33-0.97-0.73-1.22c0.3-0.24,0.51-0.6,0.43-1.22c-0.1-0.78-0.89-1.74-2.32-1.56c-0.7,0.09-1.64,0.55-2.09,1.47
			l0.57,0.52c0.43-0.78,1.14-1.14,1.64-1.2c0.88-0.11,1.41,0.25,1.49,0.89c0.05,0.4-0.24,0.74-0.8,0.81l-2.55,0.31l0.1,0.82
			l2.55-0.31c0.56-0.07,0.92,0.28,0.98,0.74c0.06,0.5-0.19,0.86-0.99,0.98l-0.75,0.11c-0.94,0.13-1.6,0.72-1.46,1.81
			C446.66,45.15,448.02,45.47,448.91,45.36 M445.52,34.38l-0.61-1.5c1.31,0.63,1.92,0.45,2.27,0.3c0.34-0.14,0.55-0.4,0.65-0.62
			c0.14,0.67-0.3,1.01-1.33,1.43L445.52,34.38z M446.91,32.46c-0.51,0.2-1.2,0.12-2.24-0.49l1.09-0.44
			c0.92-0.37,1.41-0.31,1.59,0.13C447.51,32,447.27,32.31,446.91,32.46z M445.17,35.41l1.64-0.66c1.68-0.68,2.05-1.61,1.55-2.86
			c-0.23-0.58-0.59-1.07-1.14-1.26c-0.57-0.2-0.92-0.21-2.34,0.36l-1.28,0.52L445.17,35.41z M442.34,26.06
			c-0.44,0.32-0.94,0.41-1.24,0c-0.18-0.25-0.04-0.71,0.44-1.06c0.44-0.32,1.1-0.38,1.58-0.27
			C443.03,25.35,442.8,25.73,442.34,26.06z M444.1,27.91c0.82-0.6,1.41-1.82,0.57-2.97c-0.24-0.33-0.48-0.56-0.82-0.72
			c-0.01-0.18-0.07-0.51-0.31-0.83c-0.91-1.25-2.34-1.04-3.09-0.5c-0.71,0.52-1.08,1.29-1.14,2.1l0.72,0.28
			c-0.05-0.76,0.41-1.4,0.84-1.71c0.67-0.49,1.62-0.44,1.99,0.07c0.11,0.15,0.17,0.27,0.2,0.33c-0.67-0.13-1.43-0.01-1.99,0.39
			c-0.81,0.59-0.98,1.56-0.56,2.14c0.58,0.8,1.59,0.74,2.29,0.24c0.43-0.32,0.94-0.86,1.05-1.69c0.06,0.05,0.14,0.13,0.21,0.22
			c0.51,0.7,0.18,1.57-0.47,2.04c-0.43,0.31-1.19,0.55-1.9,0.26l0.06,0.79C442.53,28.52,443.38,28.43,444.1,27.91z M438.52,17.7
			c-0.1,0.12-0.28,0.17-0.44,0.04c-0.1-0.09-0.14-0.27,0.02-0.46c0.12-0.14,0.35-0.17,0.4-0.18
			C438.71,17.29,438.63,17.57,438.52,17.7z M436.93,22.34l2.85-3.4c0.59-0.71,0.53-1.48-0.04-2.04c-0.63-0.61-1.61-0.62-2.11-0.03
			c-0.4,0.48-0.31,1.01,0.11,1.37c0.44,0.37,0.96,0.27,1.27-0.09c0.38-0.46,0.2-0.88,0.2-0.88s0.15,0.1,0.24,0.29
			c0.11,0.22-0.02,0.52-0.39,0.96l-2.75,3.28L436.93,22.34z M434.78,17.57c0.37-0.67,0.5-1.67,0.05-2.59l-0.76,0.18
			c0.36,0.8,0.24,1.6-0.01,2.05c-0.43,0.78-1.05,1.01-1.61,0.7c-0.34-0.19-0.45-0.63-0.17-1.14l1.27-2.28l-0.72-0.4l-1.27,2.28
			c-0.28,0.5-0.72,0.63-1.14,0.4c-0.43-0.24-0.67-0.93-0.24-1.71c0.25-0.44,0.87-0.97,1.75-1.07l-0.25-0.75
			c-1.03,0.11-1.8,0.75-2.17,1.42c-0.78,1.41-0.16,2.35,0.57,2.75c0.51,0.28,0.93,0.27,1.34,0.08c0.02,0.4,0.18,0.76,0.72,1.06
			C432.9,18.97,434,18.98,434.78,17.57z M426.2,15.35l0.94-4.08l-0.8-0.19l-0.78,3.38l-1.92-0.44c0.25-0.2,0.58-0.69,0.71-1.24
			c0.26-1.14-0.32-2.3-1.55-2.58c-1.28-0.3-2.35,0.62-2.59,1.65c-0.2,0.87,0.03,1.68,0.85,2.38l0.55-0.46
			c-0.59-0.57-0.78-1.04-0.62-1.74c0.19-0.8,0.88-1.31,1.61-1.14c0.8,0.19,1.12,1.01,0.95,1.72c-0.14,0.61-0.55,1.1-1.08,1.27
			l-0.13,0.57L426.2,15.35z M418.13,11.5c0.02-1.09-0.47-2.12-1.59-2.14c-1.04-0.02-1.62,0.72-1.64,1.78l0.76,0.01
			c0.02-0.86,0.4-1.1,0.86-1.09c0.61,0.01,0.84,0.68,0.83,1.42c-0.01,0.84-0.24,1.46-0.94,1.45c-0.4-0.01-0.75-0.26-0.74-0.97
			l-0.77-0.01c-0.02,1.22,0.69,1.69,1.49,1.71C417.68,13.68,418.11,12.67,418.13,11.5z M412.82,11.35
			c-0.28-1.59-1.32-1.93-2.16-1.78c-0.6,0.11-0.9,0.4-1.05,0.77c-0.33-0.31-0.7-0.46-1.28-0.36c-0.83,0.15-1.72,0.83-1.44,2.42
			c0.13,0.76,0.66,1.6,1.6,2.04l0.47-0.62c-0.82-0.38-1.2-1.08-1.28-1.59c-0.16-0.88,0.3-1.46,0.78-1.54
			c0.46-0.08,0.85,0.18,0.95,0.75l0.46,2.6l0.81-0.14l-0.46-2.6c-0.1-0.57,0.15-0.95,0.55-1.02c0.62-0.11,1.13,0.31,1.28,1.19
			c0.09,0.5-0.02,1.35-0.64,1.94l0.63,0.42C412.74,13.09,412.95,12.11,412.82,11.35z M402.39,16.3l-1.72-4.04
			c-0.38-0.88-1.08-1.16-1.78-0.86c-0.78,0.33-1.02,1.1-0.68,1.88l0.73-0.31c-0.17-0.41-0.18-0.77,0.2-0.93
			c0.42-0.18,0.61,0.13,0.81,0.61l1.69,3.97L402.39,16.3z M399.97,17.46l-2.09-3.62l-0.71,0.41l1.74,3.01l-0.76,0.44l0.35,0.62
			L399.97,17.46z M395.63,17.28c-0.6-0.65-1.47-0.93-2.18-0.88l-0.23,0.78c0.77-0.14,1.46,0.27,1.79,0.63
			c0.54,0.58,0.74,1.31,0.32,1.76c-0.47,0.48-0.93,0.31-1.35-0.12l-0.57-0.58c-0.83-0.84-1.71-0.73-2.35-0.13
			c-0.42,0.39-0.59,0.84-0.56,1.31c-0.37-0.1-0.79-0.05-1.24,0.37c-0.58,0.54-0.88,1.74,0.1,2.79c0.48,0.52,1.41,1.01,2.42,0.83
			l0.09-0.77c-0.88,0.11-1.59-0.25-1.93-0.62c-0.6-0.65-0.63-1.29-0.16-1.73c0.3-0.28,0.74-0.25,1.13,0.17l1.75,1.88l0.6-0.56
			l-1.75-1.88c-0.39-0.41-0.31-0.91,0.02-1.23c0.37-0.34,0.81-0.35,1.38,0.22l0.53,0.54c0.66,0.68,1.52,0.87,2.33,0.12
			C396.79,19.22,396.24,17.93,395.63,17.28z M388.92,26.33c0.15,0.09,0.11,0.3,0.03,0.44c-0.09,0.15-0.26,0.23-0.37,0.16
			c-0.15-0.09-0.14-0.29-0.05-0.43C388.6,26.35,388.78,26.25,388.92,26.33z M384.76,28.57c0.15,0.09,0.13,0.27,0.06,0.39
			c-0.07,0.12-0.22,0.25-0.4,0.14c-0.16-0.09-0.15-0.29-0.07-0.42C384.43,28.54,384.62,28.48,384.76,28.57z M389.24,25.73
			c-0.42-0.25-0.83-0.06-1.16,0.49c-0.21,0.35-0.55,1.12-0.69,1.97c-0.14,0.85-0.48,2.13-1.04,1.79c-0.38-0.23-0.05-0.92,0.38-1.64
			l0.5-0.83c0.78-1.3,0.9-2.41-0.01-2.96c-0.82-0.49-1.56,0.02-1.93,0.63c-0.41,0.67-0.29,1.18-0.21,1.39
			c-0.28,0.08-0.82,0.3-1.18,0.9c-0.46,0.77-0.57,1.77,0.16,2.21c0.43,0.26,0.94,0.05,1.25-0.46c0.19-0.32,0.38-0.93-0.11-1.22
			c-0.53-0.32-0.88,0.13-0.88,0.13c0.02-0.17,0.03-0.22,0.09-0.32c0.24-0.39,0.72-0.7,1.2-0.41l0.48,0.29l0.43-0.72l-0.54-0.33
			c-0.39-0.23-0.36-0.63-0.12-1.03c0.24-0.39,0.66-0.57,1.01-0.36c0.47,0.28,0.36,0.94-0.14,1.78l-0.6,1
			c-0.81,1.34-0.83,2.24-0.2,2.62c0.59,0.36,1.2,0.03,1.58-0.59c0.24-0.39,0.43-1,0.52-1.66c0.07-0.41,0.14-0.81,0.17-1.05
			c0.03,0.02,0.06,0.04,0.08,0.05c0.4,0.24,0.82,0.03,1.11-0.45C389.65,26.55,389.73,26.03,389.24,25.73z M383.6,34.74
			c0.53,0.15,0.9,0.49,0.76,0.98c-0.08,0.3-0.54,0.48-1.11,0.31c-0.53-0.15-0.98-0.63-1.19-1.08
			C382.62,34.62,383.06,34.58,383.6,34.74z M383.98,32.21c-0.98-0.28-2.3,0.01-2.69,1.37c-0.11,0.39-0.15,0.73-0.06,1.09
			c-0.13,0.12-0.35,0.37-0.47,0.75c-0.43,1.49,0.63,2.49,1.51,2.74c0.85,0.24,1.68,0.05,2.35-0.39l-0.22-0.74
			c-0.56,0.51-1.35,0.54-1.87,0.39c-0.79-0.23-1.34-1-1.17-1.61c0.05-0.18,0.11-0.3,0.13-0.36c0.31,0.61,0.87,1.14,1.54,1.33
			c0.96,0.27,1.83-0.18,2.03-0.88c0.27-0.95-0.4-1.71-1.22-1.95c-0.52-0.15-1.26-0.21-1.98,0.21c0-0.08,0.02-0.19,0.05-0.3
			c0.24-0.83,1.13-1.1,1.89-0.88c0.51,0.15,1.16,0.6,1.37,1.33l0.58-0.53C385.43,33.07,384.83,32.45,383.98,32.21z M382.95,41.02
			c0.17,0.01,0.35,0.2,0.33,0.41c-0.11,0.14-0.27,0.2-0.37,0.19c-0.23-0.02-0.29-0.2-0.28-0.31C382.64,41.12,382.77,41,382.95,41.02
			z M380.81,40.83c0.18,0.02,0.28,0.16,0.27,0.34c-0.01,0.11-0.1,0.28-0.33,0.26c-0.11-0.01-0.25-0.09-0.33-0.25
			C380.43,40.97,380.63,40.81,380.81,40.83z M383.05,40.32c-0.59-0.05-0.95,0.32-1,0.91c-0.05,0.61,0.2,1.02,0.79,1.07
			c0.31,0.03,0.48-0.15,0.44-0.09c0,0-0.32,1.11-1.62,0.99c-1.28-0.11-1.38-1.26-1.38-1.26c-0.03-0.07,0.11,0.13,0.42,0.16
			c0.59,0.05,0.91-0.31,0.97-0.92c0.05-0.59-0.24-1.02-0.83-1.07c-0.61-0.05-1.08,0.5-1.17,1.53c-0.11,1.21,0.68,2.24,1.92,2.34
			c1.19,0.1,2.25-0.76,2.36-1.97C384.03,41,383.66,40.37,383.05,40.32z"/>
		<path class="st2" d="M399.56,64.74c-6.39-4.74-10.53-12.28-10.53-20.77c0-14.34,11.79-25.96,26.34-25.96
			c14.55,0,26.34,11.62,26.34,25.96c0,7.97-3.64,15.1-9.38,19.87"/>
		<polygon class="st1" points="440.86,41.13 442.33,40.88 442.33,46.07 440.89,46.3 		"/>
		<path class="st3" d="M443.96,43.79c-0.4,0.04-0.75-0.1-0.78-0.47c-0.02-0.23,0.24-0.47,0.68-0.51c0.4-0.04,0.84,0.17,1.11,0.43
			C444.67,43.61,444.37,43.75,443.96,43.79 M444.37,45.63c0.75-0.07,1.58-0.62,1.49-1.67c-0.03-0.3-0.09-0.54-0.25-0.77
			c0.06-0.12,0.15-0.35,0.12-0.64c-0.1-1.14-1.09-1.55-1.77-1.48c-0.65,0.06-1.17,0.41-1.51,0.9l0.35,0.45
			c0.25-0.5,0.79-0.73,1.18-0.77c0.61-0.06,1.19,0.33,1.23,0.8c0.01,0.13,0.01,0.23,0,0.28c-0.38-0.34-0.91-0.55-1.41-0.51
			c-0.73,0.07-1.21,0.62-1.16,1.15c0.07,0.73,0.73,1.07,1.36,1.02c0.4-0.04,0.92-0.19,1.31-0.67c0.02,0.06,0.04,0.14,0.05,0.22
			c0.06,0.64-0.48,1.06-1.07,1.12c-0.39,0.04-0.96-0.1-1.3-0.55l-0.26,0.52C443.15,45.42,443.73,45.69,444.37,45.63z"/>
		<path class="st2" d="M442.97,44.84c-1.1-0.55-0.54-3.34-1.52-3.23c-0.84,0.09-0.03,2.29,0.08,4.2"/>
		<polyline class="st2" points="406.75,67.7 402.65,63.03 408.23,64.89 404.77,59.61 409.92,62.81 409.18,56.95 412.38,62.2 
			413.49,56.26 414.69,61.87 416.85,56.82 417.12,62.05 420.47,57.95 419.11,63.3 423.82,60.34 421.06,65.26 426.43,63 
			422.52,67.91 		"/>
	</g>
</g>
<g>
</g>
<g>
</g>
<g>
</g>
<g>
</g>
<g>
</g>
<g>
</g>
</svg>
