<?xml version="1.0" encoding="utf-8"?>
<!-- Generator: Adobe Illustrator 26.3.1, SVG Export Plug-In . SVG Version: 6.00 Build 0)  -->
<svg version="1.1" id="Layer_1" xmlns="http://www.w3.org/2000/svg" xmlns:xlink="http://www.w3.org/1999/xlink" x="0px" y="0px"
	 viewBox="0 0 587 85.41" style="enable-background:new 0 0 587 85.41;" xml:space="preserve">
<style type="text/css">
	.st0{fill:#2055A6;}
	.st1{fill:#700E18;}
</style>
<g>
	<g>
		<g>
			<path class="st0" d="M14.7,25.88c-1.95,0.96-2.75,3.33-1.79,5.28s3.33,2.75,5.28,1.79c1.95-0.96,2.75-3.33,1.79-5.28
				C19.01,25.72,16.65,24.91,14.7,25.88z M17.51,26.73c-0.03,0.11-0.1,0.2-0.2,0.24c-0.08,0.04-0.17,0.05-0.26,0.03
				c-1.18-0.3-2.39,0.3-2.87,1.42c-0.08,0.19-0.3,0.28-0.49,0.2c-0.19-0.08-0.28-0.3-0.2-0.49c0.63-1.46,2.2-2.24,3.74-1.85
				C17.44,26.33,17.56,26.53,17.51,26.73z"/>
			<path class="st0" d="M31.15,59.49c-1.95,0.96-2.75,3.33-1.79,5.28c0.96,1.95,3.33,2.75,5.28,1.79c1.95-0.96,2.75-3.33,1.79-5.28
				C35.46,59.33,33.1,58.53,31.15,59.49z M33.96,60.34c-0.03,0.11-0.1,0.2-0.2,0.24c-0.08,0.04-0.17,0.05-0.26,0.03
				c-1.18-0.3-2.39,0.3-2.87,1.42c-0.08,0.19-0.3,0.28-0.49,0.2c-0.19-0.08-0.28-0.3-0.2-0.49c0.63-1.46,2.2-2.24,3.74-1.85
				C33.89,59.94,34.01,60.14,33.96,60.34z"/>
			<path class="st1" d="M74.92,5.13C72.67,0.57,67.15-1.3,62.6,0.95c-4.55,2.25-6.42,7.76-4.17,12.32c0.52,1.05,1.21,1.96,2.03,2.7
				L49.98,28.42c-3.47-2.54-8-3.39-12.26-2.11l-2.6-9.85c2.76-1.54,3.85-4.99,2.44-7.86c-1.46-2.96-5.05-4.17-8-2.71
				c-2.96,1.46-4.17,5.05-2.71,8c1.16,2.35,3.65,3.6,6.11,3.28l2.64,9.97c-0.01,0-0.02,0.01-0.03,0.01
				c-6.3,3.11-9.21,10.34-7.09,16.83l-11.32,4.49c-2.4-4.16-7.66-5.8-12.03-3.64C0.57,47.1-1.3,52.61,0.95,57.16
				c2.25,4.55,7.76,6.42,12.32,4.17c4.08-2.02,6.01-6.66,4.74-10.88l11.29-4.48c2.88,5.68,9.13,8.56,15.12,7.39l4.24,11.34
				l0.18-0.07c-3.3,2.21-4.53,6.58-2.72,10.23c1.97,3.98,6.79,5.62,10.77,3.65s5.62-6.79,3.65-10.77c-1.83-3.71-6.14-5.38-9.95-4
				l-4.1-10.96c0.48-0.17,0.96-0.38,1.43-0.61c6.91-3.41,9.74-11.78,6.33-18.69c-0.67-1.36-1.54-2.56-2.54-3.58L62.32,17.3
				c2.53,1.36,5.66,1.52,8.43,0.15C75.3,15.19,77.17,9.68,74.92,5.13z M28.77,9.75c-0.12,0.29-0.46,0.42-0.74,0.3
				c-0.29-0.12-0.42-0.45-0.3-0.74c0.95-2.22,3.34-3.4,5.68-2.8c0.3,0.08,0.49,0.38,0.41,0.69c-0.04,0.17-0.15,0.3-0.3,0.37
				c-0.12,0.06-0.25,0.08-0.39,0.04C31.33,7.14,29.5,8.04,28.77,9.75z M11.69,46.84c-0.06,0.26-0.24,0.46-0.46,0.57
				c-0.18,0.09-0.39,0.12-0.6,0.06c-2.76-0.7-5.59,0.69-6.71,3.31c-0.19,0.44-0.7,0.65-1.14,0.46c-0.44-0.19-0.65-0.7-0.46-1.14
				c1.46-3.41,5.14-5.23,8.74-4.31C11.53,45.9,11.81,46.37,11.69,46.84z M54.95,64.91c0.41,0.1,0.65,0.52,0.55,0.92
				c-0.06,0.22-0.21,0.4-0.4,0.5c-0.16,0.08-0.34,0.1-0.52,0.06c-2.42-0.61-4.89,0.61-5.87,2.9c-0.17,0.39-0.61,0.56-1,0.4
				c-0.39-0.17-0.56-0.61-0.4-1C48.59,65.7,51.8,64.12,54.95,64.91z M33.73,36.16c-0.29,0.67-1.06,0.98-1.73,0.69
				c-0.67-0.29-0.98-1.06-0.69-1.73c2.22-5.18,7.79-7.93,13.25-6.54c0.71,0.18,1.13,0.9,0.95,1.6c-0.1,0.39-0.36,0.69-0.69,0.86
				c-0.27,0.13-0.59,0.18-0.91,0.1C39.72,30.07,35.44,32.19,33.73,36.16z M69.16,2.94C69.1,3.2,68.93,3.4,68.71,3.51
				c-0.18,0.09-0.39,0.12-0.6,0.06c-2.76-0.7-5.59,0.69-6.71,3.31c-0.19,0.44-0.7,0.65-1.14,0.46c-0.44-0.19-0.65-0.7-0.46-1.14
				c1.46-3.41,5.14-5.23,8.74-4.31C69,2.01,69.28,2.48,69.16,2.94z"/>
		</g>
		<g>
			<path class="st0" d="M91.67,25.51H73.12c-0.72,0-1.3,0.58-1.3,1.3v50.28c0,0.72,0.58,1.3,1.3,1.3h11.4c0.72,0,1.3-0.58,1.3-1.3
				V62.92c0-0.72,0.58-1.3,1.3-1.3h4.56c11.06,0,21.15-5.61,21.15-18.55C112.82,29.74,103.06,25.51,91.67,25.51z M85.01,30.72h-6.12
				c-0.96,0-1.75,0.78-1.75,1.75v4.45c0,0.79-0.64,1.43-1.43,1.43c-0.79,0-1.43-0.64-1.43-1.43v-4.45c0-2.54,2.07-4.61,4.61-4.61
				h6.12c0.79,0,1.43,0.64,1.43,1.43C86.44,30.08,85.8,30.72,85.01,30.72z M91.02,50.56h-3.91c-0.72,0-1.3-0.58-1.3-1.3v-11.4
				c0-0.72,0.58-1.3,1.3-1.3h3.91c5.21,0,8.13,1.79,8.13,6.51C99.16,47.79,96.55,50.56,91.02,50.56z"/>
			<path class="st0" d="M214.88,76.45l-9.79-17.49c-0.33-0.6-0.15-1.36,0.43-1.72c4.55-2.86,7.51-7.62,7.51-14.65
				c0-13.18-9.76-17.08-21.15-17.08h-18.39c-0.72,0-1.3,0.58-1.3,1.3v50.28c0,0.72,0.58,1.3,1.3,1.3h11.4c0.72,0,1.3-0.58,1.3-1.3
				V61.94c0-0.72,0.58-1.3,1.3-1.3h2.96c0.49,0,0.93,0.27,1.15,0.7l8.38,16.32c0.22,0.43,0.67,0.7,1.15,0.7h12.62
				C214.74,78.38,215.36,77.31,214.88,76.45z M186.09,30.72h-6.12c-0.96,0-1.75,0.78-1.75,1.75v4.45c0,0.79-0.64,1.43-1.43,1.43
				c-0.79,0-1.43-0.64-1.43-1.43v-4.45c0-2.54,2.07-4.61,4.61-4.61h6.12c0.79,0,1.43,0.64,1.43,1.43
				C187.52,30.08,186.88,30.72,186.09,30.72z M190.91,49.58h-3.42c-0.72,0-1.3-0.58-1.3-1.3V37.87c0-0.72,0.58-1.3,1.3-1.3h3.42
				c5.53,0,8.46,1.46,8.46,6.02C199.36,47.14,196.44,49.58,190.91,49.58z"/>
			<path class="st0" d="M263.22,25.51H221.4c-0.72,0-1.3,0.58-1.3,1.3v9.12c0,0.72,0.58,1.3,1.3,1.3h12.62c0.72,0,1.3,0.58,1.3,1.3
				v38.57c0,0.72,0.58,1.3,1.3,1.3h11.4c0.72,0,1.3-0.58,1.3-1.3V38.52c0-0.72,0.58-1.3,1.3-1.3h12.62c0.72,0,1.3-0.58,1.3-1.3V26.8
				C264.52,26.09,263.94,25.51,263.22,25.51z M233.53,30h-6.12c-0.96,0-1.75,0.78-1.75,1.75v1.35c0,0.79-0.64,1.43-1.43,1.43
				c-0.79,0-1.43-0.64-1.43-1.43v-1.35c0-2.54,2.07-4.61,4.61-4.61h6.12c0.79,0,1.43,0.64,1.43,1.43
				C234.96,29.36,234.32,30,233.53,30z"/>
			<path class="st0" d="M151.13,47.96l-6.1-2.52c-5.29-1.95-8.3-2.85-8.3-5.29s2.11-3.58,5.21-3.58c4.61,0,7.52,1.09,10.91,3.2
				c0.56,0.35,1.28,0.22,1.69-0.3l5.5-6.91c0.43-0.54,0.36-1.34-0.16-1.79c-4.99-4.23-11.24-6.25-17.13-6.25
				c-12.04,0-20.17,7.4-20.17,16.43c0,7.65,5.04,12.45,11.14,14.72l6.59,2.77c4.88,2.03,7.65,2.68,7.65,5.78
				c0,1.71-1.63,3.09-5.86,3.09c-4.41,0-8.76-1.79-12.53-4.42c-0.56-0.39-1.31-0.29-1.75,0.23l-6.36,7.66
				c-0.46,0.56-0.38,1.39,0.19,1.84c5.78,4.55,12.95,6.73,19.48,6.73c13.67,0,21.15-7.97,21.15-16.92
				C162.27,55.12,158.21,50.56,151.13,47.96z M128.13,38.94c-0.23,0.55-0.76,0.88-1.32,0.88c-0.18,0-0.37-0.04-0.55-0.11
				c-0.73-0.3-1.07-1.14-0.77-1.87c0.16-0.39,4.05-9.47,13.94-10.01c0.79-0.04,1.46,0.56,1.51,1.35c0.04,0.79-0.56,1.46-1.35,1.51
				C131.52,31.12,128.27,38.62,128.13,38.94z"/>
		</g>
	</g>
	<g>
		<path class="st0" d="M286.85,40.92h4.93c3.47,0,6.04,1.21,6.04,4.82c0,3.49-2.58,5.07-5.95,5.07h-2.25v5.75h-2.77V40.92z
			 M291.64,48.59c2.33,0,3.44-0.93,3.44-2.85c0-1.94-1.21-2.6-3.54-2.6h-1.92v5.45H291.64z"/>
		<path class="st0" d="M303.29,48.68c0-5.06,2.82-8.04,6.9-8.04s6.9,3,6.9,8.04c0,5.06-2.82,8.17-6.9,8.17
			S303.29,53.74,303.29,48.68z M314.23,48.68c0-3.51-1.59-5.63-4.05-5.63s-4.05,2.12-4.05,5.63c0,3.51,1.59,5.76,4.05,5.76
			S314.23,52.19,314.23,48.68z"/>
		<path class="st0" d="M323.57,40.92h2.77v13.3h6.49v2.33h-9.27V40.92z"/>
		<path class="st0" d="M339.59,50.74l-4.71-9.82h2.96l1.7,4c0.46,1.16,0.9,2.25,1.39,3.44h0.1c0.49-1.19,0.98-2.28,1.44-3.44l1.7-4
			h2.89l-4.71,9.82v5.81h-2.77V50.74z"/>
		<path class="st0" d="M351.87,40.92h3.14l2.76,7.64c0.34,0.99,0.66,2.05,1,3.07h0.1c0.34-1.02,0.64-2.08,0.99-3.07l2.71-7.64h3.14
			v15.64h-2.54V49.4c0-1.44,0.22-3.52,0.35-4.97h-0.1l-1.26,3.63l-2.57,7.02h-1.65l-2.58-7.02l-1.24-3.63h-0.1
			c0.13,1.45,0.35,3.53,0.35,4.97v7.15h-2.5V40.92z"/>
		<path class="st0" d="M373.03,40.92h9.41v2.33h-6.64v4.01h5.62v2.33h-5.62v4.63h6.88v2.33h-9.65V40.92z"/>
		<path class="st0" d="M389.23,40.92h5.27c3.25,0,5.76,1.15,5.76,4.64c0,3.36-2.51,4.89-5.76,4.89h-2.5v6.11h-2.77V40.92z
			 M394.22,48.23c2.14,0,3.31-0.89,3.31-2.67c0-1.8-1.17-2.42-3.31-2.42h-2.21v5.09H394.22z M393.98,49.71l2.01-1.65l4.88,8.51
			h-3.12L393.98,49.71z"/>
		<path class="st0" d="M413.79,54.55l1.62-1.9c1.12,1.07,2.62,1.78,4.07,1.78c1.76,0,2.73-0.8,2.73-2.02c0-1.29-1.01-1.7-2.43-2.3
			l-2.14-0.93c-1.54-0.64-3.16-1.86-3.16-4.15c0-2.49,2.2-4.41,5.25-4.41c1.83,0,3.6,0.76,4.82,1.99l-1.42,1.76
			c-1-0.85-2.06-1.34-3.4-1.34c-1.48,0-2.45,0.69-2.45,1.84c0,1.23,1.19,1.68,2.49,2.21l2.11,0.88c1.86,0.77,3.16,1.95,3.16,4.22
			c0,2.53-2.1,4.65-5.61,4.65C417.31,56.84,415.27,56.01,413.79,54.55z"/>
		<path class="st0" d="M430.41,48.79c0-5.12,3.2-8.16,7.16-8.16c1.96,0,3.52,0.94,4.5,1.98l-1.48,1.79c-0.8-0.8-1.74-1.36-2.96-1.36
			c-2.54,0-4.37,2.15-4.37,5.66c0,3.57,1.68,5.73,4.3,5.73c1.39,0,2.46-0.64,3.34-1.61l1.48,1.74c-1.27,1.47-2.9,2.28-4.93,2.28
			C433.53,56.84,430.41,53.97,430.41,48.79z"/>
		<path class="st0" d="M448.35,40.92h2.77v15.64h-2.77V40.92z"/>
		<path class="st0" d="M458.44,40.92h9.41v2.33h-6.64v4.01h5.62v2.33h-5.62v4.63h6.88v2.33h-9.65V40.92z"/>
		<path class="st0" d="M474.65,40.92h2.85l4.86,8.79l1.62,3.34h0.1c-0.13-1.62-0.35-3.6-0.35-5.34v-6.79h2.64v15.64h-2.85l-4.86-8.8
			l-1.62-3.32h-0.1c0.13,1.65,0.35,3.54,0.35,5.28v6.85h-2.64V40.92z"/>
		<path class="st0" d="M492.85,48.79c0-5.12,3.2-8.16,7.16-8.16c1.96,0,3.52,0.94,4.5,1.98l-1.48,1.79c-0.8-0.8-1.74-1.36-2.96-1.36
			c-2.54,0-4.37,2.15-4.37,5.66c0,3.57,1.68,5.73,4.3,5.73c1.39,0,2.46-0.64,3.34-1.61l1.48,1.74c-1.27,1.47-2.9,2.28-4.93,2.28
			C495.97,56.84,492.85,53.97,492.85,48.79z"/>
		<path class="st0" d="M510.79,40.92h9.41v2.33h-6.64v4.01h5.62v2.33h-5.62v4.63h6.88v2.33h-9.65V40.92z"/>
		<path class="st0" d="M538.19,40.92h3.25l5.1,15.64h-2.94l-2.38-8.32c-0.5-1.65-0.96-3.44-1.42-5.16h-0.1
			c-0.43,1.73-0.89,3.5-1.39,5.16l-2.4,8.32h-2.83L538.19,40.92z M536.1,50.15h7.36v2.18h-7.36V50.15z"/>
		<path class="st0" d="M551.67,40.92h2.85l4.86,8.79l1.62,3.34h0.1c-0.13-1.62-0.35-3.6-0.35-5.34v-6.79h2.64v15.64h-2.85l-4.86-8.8
			l-1.62-3.32h-0.1c0.13,1.65,0.35,3.54,0.35,5.28v6.85h-2.64V40.92z"/>
		<path class="st0" d="M570.7,40.92h4.17c4.79,0,7.62,2.58,7.62,7.76s-2.83,7.88-7.48,7.88h-4.31V40.92z M574.69,54.31
			c3.15,0,4.95-1.79,4.95-5.63s-1.81-5.51-4.95-5.51h-1.21v11.14H574.69z"/>
		<path class="st0" d="M286.85,62.89h5.27c3.25,0,5.76,1.15,5.76,4.64c0,3.36-2.51,4.89-5.76,4.89h-2.5v6.11h-2.77V62.89z
			 M291.83,70.19c2.14,0,3.31-0.89,3.31-2.67c0-1.8-1.17-2.42-3.31-2.42h-2.21v5.09H291.83z M291.6,71.67l2.01-1.65l4.88,8.51h-3.12
			L291.6,71.67z"/>
		<path class="st0" d="M304.27,71.67v-8.78h2.77v8.99c0,3.4,1.27,4.52,3.17,4.52c1.91,0,3.23-1.12,3.23-4.52v-8.99h2.67v8.78
			c0,5.14-2.28,7.14-5.9,7.14S304.27,76.8,304.27,71.67z"/>
		<path class="st0" d="M323.35,62.89h5c3.21,0,5.58,0.99,5.58,3.85c0,1.47-0.8,2.91-2.17,3.39v0.1c1.73,0.39,3,1.6,3,3.71
			c0,3.13-2.56,4.59-6.01,4.59h-5.4V62.89z M328.1,69.34c2.18,0,3.11-0.85,3.11-2.21c0-1.51-1.02-2.08-3.05-2.08h-2.04v4.29H328.1z
			 M328.47,76.36c2.29,0,3.58-0.82,3.58-2.58c0-1.65-1.24-2.36-3.58-2.36h-2.34v4.94H328.47z"/>
		<path class="st0" d="M340.97,62.89h5c3.21,0,5.58,0.99,5.58,3.85c0,1.47-0.8,2.91-2.17,3.39v0.1c1.73,0.39,3,1.6,3,3.71
			c0,3.13-2.56,4.59-6.01,4.59h-5.4V62.89z M345.72,69.34c2.18,0,3.11-0.85,3.11-2.21c0-1.51-1.02-2.08-3.05-2.08h-2.04v4.29H345.72
			z M346.09,76.36c2.29,0,3.58-0.82,3.58-2.58c0-1.65-1.24-2.36-3.58-2.36h-2.34v4.94H346.09z"/>
		<path class="st0" d="M358.59,62.89H368v2.33h-6.64v4.01h5.62v2.33h-5.62v4.63h6.88v2.33h-9.65V62.89z"/>
		<path class="st0" d="M374.79,62.89h5.27c3.25,0,5.76,1.15,5.76,4.64c0,3.36-2.51,4.89-5.76,4.89h-2.5v6.11h-2.77V62.89z
			 M379.78,70.19c2.14,0,3.31-0.89,3.31-2.67c0-1.8-1.17-2.42-3.31-2.42h-2.21v5.09H379.78z M379.54,71.67l2.01-1.65l4.88,8.51
			h-3.12L379.54,71.67z"/>
		<path class="st0" d="M403.58,65.22h-4.51v-2.33h11.8v2.33h-4.51v13.3h-2.77V65.22z"/>
		<path class="st0" d="M416.82,62.89h9.41v2.33h-6.64v4.01h5.62v2.33h-5.62v4.63h6.88v2.33h-9.65V62.89z"/>
		<path class="st0" d="M432.21,70.76c0-5.12,3.2-8.16,7.16-8.16c1.96,0,3.52,0.94,4.5,1.98l-1.48,1.79c-0.8-0.8-1.74-1.36-2.96-1.36
			c-2.54,0-4.37,2.15-4.37,5.66c0,3.57,1.68,5.73,4.3,5.73c1.39,0,2.46-0.64,3.34-1.61l1.48,1.74c-1.27,1.47-2.9,2.28-4.93,2.28
			C435.32,78.81,432.21,75.93,432.21,70.76z"/>
		<path class="st0" d="M450.14,62.89h2.77v6.28h6.32v-6.28h2.77v15.64h-2.77v-6.93h-6.32v6.93h-2.77V62.89z"/>
		<path class="st0" d="M469.34,62.89h2.85l4.86,8.79l1.62,3.34h0.1c-0.13-1.62-0.35-3.6-0.35-5.34v-6.79h2.64v15.64h-2.85l-4.86-8.8
			l-1.62-3.32h-0.1c0.13,1.65,0.35,3.54,0.35,5.28v6.85h-2.64V62.89z"/>
		<path class="st0" d="M487.54,70.64c0-5.06,2.82-8.04,6.9-8.04s6.9,3,6.9,8.04c0,5.06-2.82,8.17-6.9,8.17S487.54,75.7,487.54,70.64
			z M498.49,70.64c0-3.51-1.59-5.63-4.05-5.63s-4.05,2.12-4.05,5.63c0,3.51,1.59,5.76,4.05,5.76S498.49,74.15,498.49,70.64z"/>
		<path class="st0" d="M507.83,62.89h2.77v13.3h6.49v2.33h-9.27V62.89z"/>
		<path class="st0" d="M521.61,70.64c0-5.06,2.82-8.04,6.9-8.04s6.9,3,6.9,8.04c0,5.06-2.82,8.17-6.9,8.17S521.61,75.7,521.61,70.64
			z M532.55,70.64c0-3.51-1.59-5.63-4.05-5.63s-4.05,2.12-4.05,5.63c0,3.51,1.59,5.76,4.05,5.76S532.55,74.15,532.55,70.64z"/>
		<path class="st0" d="M541.07,70.76c0-5.12,3.24-8.16,7.4-8.16c2.22,0,3.74,0.98,4.72,1.98l-1.48,1.79
			c-0.78-0.77-1.7-1.36-3.16-1.36c-2.77,0-4.64,2.15-4.64,5.66c0,3.57,1.66,5.73,4.79,5.73c0.87,0,1.73-0.25,2.23-0.69v-3.38h-2.95
			v-2.28h5.43v6.9c-1.04,1.05-2.85,1.86-4.99,1.86C544.22,78.81,541.07,75.93,541.07,70.76z"/>
		<path class="st0" d="M562.86,72.71l-4.71-9.82h2.96l1.7,4c0.46,1.16,0.9,2.25,1.39,3.44h0.1c0.49-1.19,0.98-2.28,1.44-3.44l1.7-4
			h2.89l-4.71,9.82v5.81h-2.77V72.71z"/>
	</g>
</g>
<g>
</g>
<g>
</g>
<g>
</g>
<g>
</g>
<g>
</g>
<g>
</g>
</svg>
