<?xml version="1.0" encoding="utf-8"?>
<!-- Generator: Adobe Illustrator 26.3.1, SVG Export Plug-In . SVG Version: 6.00 Build 0)  -->
<svg version="1.1" id="Layer_1" xmlns="http://www.w3.org/2000/svg" xmlns:xlink="http://www.w3.org/1999/xlink" x="0px" y="0px"
	 viewBox="0 0 448.06 231.39" style="enable-background:new 0 0 448.06 231.39;" xml:space="preserve">
<style type="text/css">
	.st0{fill:#1753AB;}
	.st1{fill:#700114;}
</style>
<g>
	<g>
		<g>
			<path class="st0" d="M51.33,43.92c-2.87,1.42-4.04,4.89-2.63,7.75s4.89,4.04,7.75,2.63s4.04-4.89,2.63-7.75
				C57.67,43.68,54.19,42.51,51.33,43.92z M55.46,45.18c-0.04,0.16-0.15,0.29-0.29,0.36c-0.11,0.06-0.24,0.07-0.38,0.04
				c-1.74-0.44-3.52,0.44-4.23,2.09c-0.12,0.28-0.44,0.41-0.72,0.29c-0.28-0.12-0.41-0.44-0.29-0.72c0.92-2.15,3.23-3.29,5.5-2.72
				C55.36,44.59,55.53,44.88,55.46,45.18z"/>
			<path class="st0" d="M75.51,93.33c-2.87,1.42-4.04,4.89-2.63,7.75c1.42,2.87,4.89,4.04,7.75,2.63c2.87-1.42,4.04-4.89,2.63-7.75
				C81.85,93.1,78.37,91.92,75.51,93.33z M79.64,94.59c-0.04,0.16-0.15,0.29-0.29,0.36c-0.11,0.06-0.24,0.07-0.38,0.04
				c-1.74-0.44-3.52,0.44-4.23,2.09c-0.12,0.28-0.44,0.41-0.72,0.29c-0.28-0.12-0.41-0.44-0.29-0.72c0.92-2.15,3.23-3.29,5.5-2.72
				C79.54,94,79.71,94.29,79.64,94.59z"/>
			<path class="st1" d="M139.85,13.42c-3.31-6.69-11.41-9.44-18.11-6.13c-6.69,3.31-9.44,11.41-6.13,18.11
				c0.76,1.54,1.78,2.88,2.98,3.97l-15.39,18.3c-5.1-3.73-11.77-4.99-18.02-3.1l-3.83-14.48c4.05-2.27,5.66-7.34,3.58-11.55
				c-2.15-4.35-7.42-6.14-11.77-3.99c-4.35,2.15-6.14,7.42-3.99,11.77c1.7,3.45,5.37,5.29,8.99,4.82l3.88,14.66
				c-0.01,0.01-0.03,0.01-0.04,0.02c-9.26,4.57-13.54,15.21-10.42,24.75l-16.64,6.6c-3.53-6.12-11.26-8.52-17.68-5.35
				c-6.69,3.31-9.44,11.41-6.13,18.11c3.31,6.69,11.41,9.44,18.11,6.13c6-2.96,8.83-9.79,6.96-16l16.59-6.59
				C77.02,81.82,86.21,86.05,95,84.33l6.24,16.67l0.26-0.1c-4.85,3.25-6.66,9.67-4,15.04c2.89,5.86,9.98,8.26,15.84,5.37
				c5.86-2.89,8.26-9.98,5.37-15.84c-2.69-5.45-9.03-7.91-14.62-5.88l-6.03-16.11c0.71-0.26,1.41-0.55,2.1-0.89
				c10.16-5.02,14.32-17.31,9.31-27.47c-0.99-2-2.26-3.76-3.73-5.27l15.6-18.54c3.72,2,8.31,2.23,12.39,0.22
				C140.41,28.22,143.15,20.11,139.85,13.42z M72.01,20.21c-0.18,0.42-0.67,0.62-1.09,0.44c-0.42-0.18-0.62-0.67-0.44-1.09
				c1.4-3.26,4.91-4.99,8.35-4.12c0.44,0.11,0.71,0.56,0.6,1.01c-0.06,0.25-0.23,0.44-0.44,0.54c-0.17,0.08-0.37,0.11-0.57,0.06
				C75.78,16.37,73.08,17.7,72.01,20.21z M46.9,74.73c-0.1,0.38-0.35,0.67-0.67,0.83c-0.26,0.13-0.57,0.17-0.88,0.09
				c-4.06-1.03-8.21,1.02-9.87,4.87c-0.28,0.65-1.03,0.95-1.68,0.67c-0.65-0.28-0.95-1.03-0.67-1.68c2.15-5.01,7.55-7.68,12.84-6.34
				C46.66,73.36,47.08,74.05,46.9,74.73z M110.49,101.31c0.6,0.15,0.96,0.76,0.81,1.36c-0.08,0.33-0.31,0.59-0.59,0.73
				c-0.23,0.11-0.5,0.15-0.77,0.08c-3.56-0.9-7.18,0.89-8.63,4.26c-0.24,0.57-0.9,0.83-1.47,0.59c-0.57-0.24-0.83-0.9-0.59-1.47
				C101.14,102.47,105.86,100.13,110.49,101.31z M79.31,59.04c-0.42,0.98-1.56,1.44-2.54,1.02c-0.98-0.42-1.44-1.56-1.02-2.54
				c3.26-7.61,11.46-11.65,19.48-9.62c1.04,0.26,1.67,1.32,1.4,2.35c-0.14,0.57-0.53,1.02-1.02,1.26c-0.4,0.2-0.87,0.26-1.33,0.14
				C88.11,50.09,81.81,53.2,79.31,59.04z M131.39,10.21c-0.1,0.38-0.35,0.67-0.67,0.83c-0.26,0.13-0.57,0.17-0.88,0.09
				c-4.06-1.03-8.21,1.02-9.87,4.87c-0.28,0.65-1.03,0.95-1.68,0.67c-0.65-0.28-0.95-1.03-0.67-1.68c2.15-5.01,7.55-7.68,12.84-6.34
				C131.15,8.83,131.56,9.52,131.39,10.21z"/>
		</g>
		<g>
			<path class="st0" d="M164.48,43.38H137.2c-1.05,0-1.9,0.85-1.9,1.9v73.91c0,1.05,0.85,1.9,1.9,1.9h16.76c1.05,0,1.9-0.85,1.9-1.9
				V98.37c0-1.05,0.85-1.9,1.9-1.9h6.7c16.26,0,31.09-8.25,31.09-27.26C195.56,49.6,181.22,43.38,164.48,43.38z M154.68,51.04h-9
				c-1.42,0-2.57,1.15-2.57,2.57v6.54c0,1.16-0.94,2.1-2.1,2.1s-2.1-0.94-2.1-2.1v-6.54c0-3.73,3.04-6.77,6.77-6.77h9
				c1.16,0,2.1,0.94,2.1,2.1C156.78,50.1,155.84,51.04,154.68,51.04z M163.52,80.21h-5.75c-1.05,0-1.9-0.85-1.9-1.9V61.54
				c0-1.05,0.85-1.9,1.9-1.9h5.75c7.65,0,11.96,2.63,11.96,9.57C175.48,76.14,171.65,80.21,163.52,80.21z"/>
			<path class="st0" d="M345.59,118.26L331.2,92.55c-0.49-0.88-0.22-2,0.64-2.53c6.69-4.21,11.04-11.2,11.04-21.53
				c0-19.37-14.35-25.11-31.09-25.11h-27.03c-1.05,0-1.9,0.85-1.9,1.9v73.91c0,1.05,0.85,1.9,1.9,1.9h16.76c1.05,0,1.9-0.85,1.9-1.9
				V96.94c0-1.05,0.85-1.9,1.9-1.9h4.36c0.71,0,1.37,0.4,1.69,1.03l12.32,24c0.33,0.64,0.98,1.03,1.69,1.03h18.55
				C345.38,121.1,346.3,119.53,345.59,118.26z M303.27,51.04h-9c-1.42,0-2.57,1.15-2.57,2.57v6.54c0,1.16-0.94,2.1-2.1,2.1
				s-2.1-0.94-2.1-2.1v-6.54c0-3.73,3.04-6.77,6.77-6.77h9c1.16,0,2.1,0.94,2.1,2.1C305.37,50.1,304.43,51.04,303.27,51.04z
				 M310.35,78.77h-5.03c-1.05,0-1.9-0.85-1.9-1.9V61.54c0-1.05,0.85-1.9,1.9-1.9h5.03c8.13,0,12.44,2.15,12.44,8.85
				C322.78,75.18,318.48,78.77,310.35,78.77z"/>
			<path class="st0" d="M416.65,43.38h-61.48c-1.05,0-1.9,0.85-1.9,1.9v13.41c0,1.05,0.85,1.9,1.9,1.9h18.55
				c1.05,0,1.9,0.85,1.9,1.9v56.69c0,1.05,0.85,1.9,1.9,1.9h16.76c1.05,0,1.9-0.85,1.9-1.9V62.5c0-1.05,0.85-1.9,1.9-1.9h18.55
				c1.05,0,1.9-0.85,1.9-1.9V45.28C418.56,44.23,417.71,43.38,416.65,43.38z M373,49.99h-9c-1.42,0-2.57,1.15-2.57,2.57v1.99
				c0,1.16-0.94,2.1-2.1,2.1s-2.1-0.94-2.1-2.1v-1.99c0-3.73,3.04-6.77,6.77-6.77h9c1.16,0,2.1,0.94,2.1,2.1S374.16,49.99,373,49.99
				z"/>
			<path class="st0" d="M251.88,76.38l-8.97-3.71c-7.77-2.87-12.2-4.18-12.2-7.77c0-3.59,3.11-5.26,7.65-5.26
				c6.78,0,11.06,1.6,16.04,4.71c0.82,0.51,1.89,0.32,2.49-0.44l8.09-10.16c0.64-0.8,0.54-1.97-0.24-2.63
				c-7.33-6.22-16.52-9.19-25.18-9.19c-17.7,0-29.65,10.88-29.65,24.15c0,11.24,7.41,18.29,16.38,21.64l9.69,4.07
				c7.17,2.99,11.24,3.95,11.24,8.49c0,2.51-2.39,4.54-8.61,4.54c-6.49,0-12.88-2.63-18.42-6.5c-0.82-0.57-1.93-0.43-2.57,0.34
				l-9.36,11.27c-0.68,0.82-0.56,2.05,0.27,2.71c8.49,6.69,19.04,9.89,28.64,9.89c20.09,0,31.09-11.72,31.09-24.87
				C268.26,86.9,262.28,80.21,251.88,76.38z M218.07,63.12c-0.34,0.8-1.12,1.29-1.94,1.29c-0.27,0-0.55-0.05-0.81-0.16
				c-1.07-0.45-1.58-1.67-1.13-2.74c0.24-0.57,5.95-13.91,20.49-14.71c1.16-0.06,2.15,0.83,2.21,1.98c0.06,1.16-0.83,2.15-1.98,2.21
				C223.05,51.64,218.27,62.65,218.07,63.12z"/>
		</g>
	</g>
	<g>
		<path class="st0" d="M6.85,160.12h7.24c5.1,0,8.88,1.77,8.88,7.08c0,5.12-3.8,7.45-8.74,7.45h-3.3v8.45H6.85V160.12z
			 M13.89,171.39c3.43,0,5.06-1.36,5.06-4.19c0-2.85-1.79-3.82-5.2-3.82h-2.83v8.01H13.89z"/>
		<path class="st0" d="M31.01,171.52c0-7.44,4.15-11.82,10.13-11.82c5.99,0,10.13,4.41,10.13,11.82c0,7.44-4.15,12-10.13,12
			C35.15,183.52,31.01,178.95,31.01,171.52z M47.09,171.52c0-5.16-2.33-8.28-5.95-8.28s-5.95,3.12-5.95,8.28
			c0,5.16,2.33,8.46,5.95,8.46S47.09,176.68,47.09,171.52z"/>
		<path class="st0" d="M60.82,160.12h4.08v19.55h9.54v3.43H60.82V160.12z"/>
		<path class="st0" d="M84.37,174.56l-6.92-14.44h4.36l2.5,5.88c0.67,1.71,1.32,3.3,2.04,5.05h0.14c0.72-1.75,1.45-3.34,2.12-5.05
			l2.5-5.88h4.25l-6.92,14.44v8.55h-4.08V174.56z"/>
		<path class="st0" d="M102.43,160.12h4.61l4.06,11.23c0.51,1.46,0.97,3.01,1.48,4.51h0.14c0.51-1.5,0.94-3.05,1.45-4.51l3.98-11.23
			h4.61v22.98h-3.74v-10.51c0-2.12,0.32-5.18,0.52-7.31h-0.14l-1.86,5.34l-3.78,10.33h-2.42l-3.8-10.33l-1.83-5.34h-0.14
			c0.2,2.13,0.52,5.19,0.52,7.31v10.51h-3.67V160.12z"/>
		<path class="st0" d="M133.53,160.12h13.83v3.43h-9.76v5.89h8.27v3.43h-8.27v6.8h10.11v3.43h-14.18V160.12z"/>
		<path class="st0" d="M157.35,160.12h7.75c4.78,0,8.46,1.69,8.46,6.82c0,4.94-3.68,7.18-8.46,7.18h-3.67v8.98h-4.08V160.12z
			 M164.68,170.86c3.15,0,4.86-1.31,4.86-3.92c0-2.64-1.72-3.56-4.86-3.56h-3.25v7.48H164.68z M164.33,173.03l2.95-2.43l7.18,12.5
			h-4.58L164.33,173.03z"/>
		<path class="st0" d="M193.45,180.16l2.38-2.8c1.64,1.57,3.85,2.62,5.99,2.62c2.59,0,4.01-1.17,4.01-2.97
			c0-1.89-1.48-2.49-3.57-3.38l-3.14-1.36c-2.26-0.94-4.65-2.73-4.65-6.09c0-3.66,3.23-6.48,7.72-6.48c2.68,0,5.29,1.11,7.08,2.93
			l-2.09,2.59c-1.46-1.24-3.02-1.97-4.99-1.97c-2.18,0-3.6,1.02-3.6,2.7c0,1.81,1.75,2.47,3.65,3.25l3.1,1.3
			c2.73,1.14,4.65,2.87,4.65,6.2c0,3.73-3.09,6.83-8.25,6.83C198.62,183.52,195.63,182.3,193.45,180.16z"/>
		<path class="st0" d="M217.89,171.69c0-7.52,4.71-11.99,10.53-11.99c2.88,0,5.17,1.38,6.62,2.91l-2.18,2.63
			c-1.18-1.18-2.56-2-4.36-2c-3.74,0-6.42,3.16-6.42,8.32c0,5.24,2.47,8.42,6.33,8.42c2.04,0,3.61-0.94,4.91-2.36l2.18,2.56
			c-1.86,2.17-4.26,3.35-7.24,3.35C222.47,183.52,217.89,179.29,217.89,171.69z"/>
		<path class="st0" d="M244.25,160.12h4.08v22.98h-4.08V160.12z"/>
		<path class="st0" d="M259.08,160.12h13.83v3.43h-9.76v5.89h8.27v3.43h-8.27v6.8h10.11v3.43h-14.18V160.12z"/>
		<path class="st0" d="M282.91,160.12h4.19l7.14,12.92l2.38,4.91h0.14c-0.2-2.38-0.52-5.29-0.52-7.84v-9.98h3.88v22.98h-4.19
			l-7.14-12.94l-2.38-4.88h-0.14c0.2,2.43,0.52,5.2,0.52,7.76v10.06h-3.88V160.12z"/>
		<path class="st0" d="M309.67,171.69c0-7.52,4.71-11.99,10.53-11.99c2.88,0,5.17,1.38,6.62,2.91l-2.18,2.63
			c-1.18-1.18-2.56-2-4.36-2c-3.74,0-6.42,3.16-6.42,8.32c0,5.24,2.47,8.42,6.33,8.42c2.04,0,3.61-0.94,4.91-2.36l2.18,2.56
			c-1.86,2.17-4.26,3.35-7.24,3.35C314.25,183.52,309.67,179.29,309.67,171.69z"/>
		<path class="st0" d="M336.04,160.12h13.83v3.43h-9.76v5.89h8.27v3.43h-8.27v6.8h10.11v3.43h-14.18V160.12z"/>
		<path class="st0" d="M376.31,160.12h4.78l7.49,22.98h-4.31l-3.5-12.23c-0.73-2.43-1.41-5.05-2.08-7.58h-0.14
			c-0.63,2.54-1.31,5.14-2.04,7.58l-3.53,12.23h-4.16L376.31,160.12z M373.25,173.68h10.82v3.2h-10.82V173.68z"/>
		<path class="st0" d="M396.13,160.12h4.19l7.14,12.92l2.38,4.91h0.14c-0.2-2.38-0.52-5.29-0.52-7.84v-9.98h3.88v22.98h-4.19
			l-7.14-12.94l-2.38-4.88h-0.14c0.2,2.43,0.52,5.2,0.52,7.76v10.06h-3.88V160.12z"/>
		<path class="st0" d="M424.1,160.12h6.13c7.04,0,11.2,3.8,11.2,11.4s-4.16,11.58-10.99,11.58h-6.34V160.12z M429.97,179.8
			c4.62,0,7.28-2.63,7.28-8.28c0-5.65-2.66-8.1-7.28-8.1h-1.79v16.38H429.97z"/>
		<path class="st0" d="M17.02,192.41h7.75c4.78,0,8.46,1.69,8.46,6.82c0,4.94-3.68,7.18-8.46,7.18h-3.67v8.98h-4.08V192.41z
			 M24.34,203.15c3.15,0,4.86-1.31,4.86-3.92c0-2.64-1.72-3.56-4.86-3.56h-3.25v7.48H24.34z M24,205.32l2.95-2.43l7.18,12.5h-4.58
			L24,205.32z"/>
		<path class="st0" d="M42.63,205.31v-12.9h4.08v13.21c0,5,1.87,6.65,4.65,6.65c2.81,0,4.75-1.65,4.75-6.65v-13.21h3.92v12.9
			c0,7.55-3.35,10.5-8.67,10.5C46.03,215.81,42.63,212.86,42.63,205.31z"/>
		<path class="st0" d="M70.68,192.41h7.35c4.72,0,8.19,1.45,8.19,5.67c0,2.17-1.18,4.27-3.19,4.98v0.14
			c2.54,0.58,4.41,2.35,4.41,5.45c0,4.6-3.77,6.75-8.83,6.75h-7.94V192.41z M77.66,201.9c3.21,0,4.57-1.25,4.57-3.25
			c0-2.22-1.5-3.06-4.48-3.06h-2.99v6.31H77.66z M78.2,212.21c3.37,0,5.26-1.21,5.26-3.79c0-2.42-1.83-3.47-5.26-3.47h-3.44v7.27
			H78.2z"/>
		<path class="st0" d="M96.58,192.41h7.35c4.72,0,8.19,1.45,8.19,5.67c0,2.17-1.18,4.27-3.19,4.98v0.14
			c2.54,0.58,4.41,2.35,4.41,5.45c0,4.6-3.77,6.75-8.83,6.75h-7.94V192.41z M103.56,201.9c3.21,0,4.57-1.25,4.57-3.25
			c0-2.22-1.5-3.06-4.48-3.06h-2.99v6.31H103.56z M104.1,212.21c3.37,0,5.26-1.21,5.26-3.79c0-2.42-1.83-3.47-5.26-3.47h-3.44v7.27
			H104.1z"/>
		<path class="st0" d="M122.47,192.41h13.83v3.43h-9.76v5.89h8.27v3.43h-8.27v6.8h10.11v3.43h-14.18V192.41z"/>
		<path class="st0" d="M146.3,192.41h7.75c4.78,0,8.46,1.69,8.46,6.82c0,4.94-3.68,7.18-8.46,7.18h-3.67v8.98h-4.08V192.41z
			 M153.62,203.15c3.15,0,4.86-1.31,4.86-3.92c0-2.64-1.72-3.56-4.86-3.56h-3.25v7.48H153.62z M153.28,205.32l2.95-2.43l7.18,12.5
			h-4.58L153.28,205.32z"/>
		<path class="st0" d="M188.61,195.84h-6.63v-3.43h17.35v3.43h-6.63v19.55h-4.08V195.84z"/>
		<path class="st0" d="M208.08,192.41h13.83v3.43h-9.76v5.89h8.27v3.43h-8.27v6.8h10.11v3.43h-14.18V192.41z"/>
		<path class="st0" d="M230.69,203.98c0-7.52,4.71-11.99,10.53-11.99c2.88,0,5.17,1.38,6.62,2.91l-2.18,2.63
			c-1.18-1.18-2.56-2-4.36-2c-3.74,0-6.42,3.16-6.42,8.32c0,5.24,2.47,8.42,6.33,8.42c2.04,0,3.61-0.94,4.91-2.36l2.18,2.56
			c-1.86,2.17-4.26,3.35-7.24,3.35C235.28,215.81,230.69,211.58,230.69,203.98z"/>
		<path class="st0" d="M257.06,192.41h4.08v9.24h9.29v-9.24h4.08v22.98h-4.08V205.2h-9.29v10.19h-4.08V192.41z"/>
		<path class="st0" d="M285.28,192.41h4.19l7.14,12.92l2.38,4.91h0.14c-0.2-2.38-0.52-5.29-0.52-7.84v-9.98h3.88v22.98h-4.19
			l-7.14-12.94l-2.38-4.88h-0.14c0.2,2.43,0.52,5.2,0.52,7.76v10.06h-3.88V192.41z"/>
		<path class="st0" d="M312.04,203.81c0-7.44,4.15-11.82,10.13-11.82c5.99,0,10.13,4.41,10.13,11.82c0,7.44-4.15,12-10.13,12
			C316.19,215.81,312.04,211.24,312.04,203.81z M328.12,203.81c0-5.16-2.33-8.28-5.95-8.28c-3.61,0-5.95,3.12-5.95,8.28
			c0,5.16,2.33,8.46,5.95,8.46C325.79,212.27,328.12,208.97,328.12,203.81z"/>
		<path class="st0" d="M341.86,192.41h4.08v19.55h9.54v3.43h-13.62V192.41z"/>
		<path class="st0" d="M362.12,203.81c0-7.44,4.15-11.82,10.13-11.82c5.99,0,10.13,4.41,10.13,11.82c0,7.44-4.15,12-10.13,12
			C366.27,215.81,362.12,211.24,362.12,203.81z M378.2,203.81c0-5.16-2.33-8.28-5.95-8.28s-5.95,3.12-5.95,8.28
			c0,5.16,2.33,8.46,5.95,8.46S378.2,208.97,378.2,203.81z"/>
		<path class="st0" d="M390.72,203.98c0-7.52,4.77-11.99,10.88-11.99c3.26,0,5.5,1.43,6.94,2.91l-2.18,2.63c-1.15-1.12-2.5-2-4.64-2
			c-4.08,0-6.82,3.16-6.82,8.32c0,5.24,2.43,8.42,7.04,8.42c1.28,0,2.54-0.37,3.28-1.01v-4.96h-4.33v-3.34h7.98v10.13
			c-1.53,1.55-4.19,2.73-7.34,2.73C395.35,215.81,390.72,211.58,390.72,203.98z"/>
		<path class="st0" d="M422.76,206.85l-6.92-14.44h4.36l2.5,5.88c0.67,1.71,1.32,3.3,2.04,5.05h0.14c0.72-1.75,1.45-3.34,2.12-5.05
			l2.5-5.88h4.25l-6.92,14.44v8.55h-4.08V206.85z"/>
	</g>
</g>
</svg>
